<svg xmlns="http://www.w3.org/2000/svg" width="52.719" height="52.719" viewBox="0 0 52.719 52.719">
  <g id="crescent-moon" transform="translate(-1 -1)">
    <path id="Path_11165" data-name="Path 11165" d="M57.659,43.611h-.85V24.9h.85a.85.85,0,0,0,0-1.7H56.74a5.952,5.952,0,0,0-5.884-5.1A4.252,4.252,0,0,1,46.6,13.85a.85.85,0,1,0-1.7,0A4.252,4.252,0,0,1,40.653,18.1a5.952,5.952,0,0,0-5.884,5.1H33.85a.85.85,0,1,0,0,1.7h.85V43.611h-.85a.85.85,0,1,0,0,1.7h.918a5.952,5.952,0,0,0,5.884,5.1A4.252,4.252,0,0,1,44.9,54.665a.85.85,0,0,0,1.7,0,4.252,4.252,0,0,1,4.252-4.252,5.952,5.952,0,0,0,5.884-5.1h.918a.85.85,0,0,0,0-1.7Zm-17.856,0H36.4V24.9h3.4Zm5.1,0H41.5V24.9h3.4Zm5.1,0H46.6V24.9h3.4Zm5.1,0h-3.4V24.9h3.4Z" transform="translate(-4.79 -1.796)" fill="#fabb27" opacity="0.7"/>
    <g id="Group_5992" data-name="Group 5992" transform="translate(1 0.999)">
      <path id="Path_11166" data-name="Path 11166" d="M43.243,18.856a.85.85,0,1,0-1.7,0A13.6,13.6,0,1,1,25.659,2.947a.85.85,0,1,0,0-1.7A21.623,21.623,0,0,0,22.258,1,21.258,21.258,0,1,0,43.515,22.257a21.623,21.623,0,0,0-.272-3.4ZM22.258,41.814A19.565,19.565,0,1,1,21.144,2.7,15.305,15.305,0,1,0,41.815,23.371,19.557,19.557,0,0,1,22.258,41.814Z" transform="translate(-1 -0.999)" fill="#0d1435"/>
      <path id="Path_11167" data-name="Path 11167" d="M23.006,41.156A15.305,15.305,0,0,1,7.7,25.85a.85.85,0,0,0-1.7,0A17.006,17.006,0,0,0,23.006,42.856a.85.85,0,1,0,0-1.7Z" transform="translate(-1.748 -4.592)" fill="#0d1435"/>
      <path id="Path_11168" data-name="Path 11168" d="M23.232,13.783a.85.85,0,0,0-.476,1.446l4.039,3.937-.952,5.561a.85.85,0,0,0,1.233.893L32.066,23l4.991,2.619a.85.85,0,0,0,1.233-.893l-.91-5.561,4-3.937a.85.85,0,0,0-.476-1.446l-5.578-.85L32.832,7.916a.85.85,0,0,0-1.531,0L28.81,12.966Zm6.9.34,1.93-3.911,1.913,3.911a.85.85,0,0,0,.638.468l4.32.629-3.121,3.044a.85.85,0,0,0-.247.748l.74,4.3-3.86-2.032a.85.85,0,0,0-.8,0l-3.86,2.032.74-4.3a.85.85,0,0,0-.247-.748L25.162,15.22l4.32-.629a.85.85,0,0,0,.655-.468Z" transform="translate(-4.219 -1.963)" fill="#0d1435"/>
    </g>
  </g>
</svg>
