<svg xmlns="http://www.w3.org/2000/svg" width="52" height="53.433" viewBox="0 0 52 53.433">
  <g id="discount-tag" transform="translate(2 4.282)">
    <path id="Path_11157" data-name="Path 11157" d="M51.4,28.319h-.021a3.938,3.938,0,1,0-6.7-4.062,3.94,3.94,0,1,0-6.7,4.062h-.021A2.371,2.371,0,0,0,35.6,30.69V41.754h8.3V29.9h1.581V41.754h8.3V30.69A2.371,2.371,0,0,0,51.4,28.319Zm-7.9,0H41.129A2.371,2.371,0,1,1,43.5,25.948Zm4.742,0H45.871V25.948a2.371,2.371,0,1,1,2.371,2.371ZM45.476,43.335h8.3v7.9A2.371,2.371,0,0,1,51.4,53.609H45.476Zm-9.879,0h8.3V53.609H37.968A2.371,2.371,0,0,1,35.6,51.238Zm-3.622-5.5a3.147,3.147,0,1,0-5.467-3.116,3.148,3.148,0,1,0-5.47,3.113A2.371,2.371,0,0,0,19,40.174v4.742h6.718V39.383H27.3v5.532h6.718V40.174A2.371,2.371,0,0,0,31.975,37.837ZM25.323,37.8H23.742a1.581,1.581,0,1,1,1.581-1.581Zm3.952,0H27.694V36.222A1.581,1.581,0,1,1,29.274,37.8ZM27.3,46.5h6.718v4.742a2.371,2.371,0,0,1-2.371,2.371H27.3Zm-8.3,0h6.718v7.113H21.371A2.371,2.371,0,0,1,19,51.238Z" transform="translate(-3.774 -4.459)" fill="#fabb27" opacity="0.6"/>
    <path id="Path_11158" data-name="Path 11158" d="M5.347,40.457A4.352,4.352,0,0,0,9.694,36.11v-24.9a8.688,8.688,0,0,1,17.365-.434L16.377,17.19a2.381,2.381,0,0,0-1.151,2.033V38.086A2.371,2.371,0,0,0,17.6,40.457H38.134a2.371,2.371,0,0,0,2.371-2.388L40.372,19.2a2.356,2.356,0,0,0-1.14-2.01l-10.59-6.438a10.268,10.268,0,1,0-20.53.458v24.9a2.766,2.766,0,1,1-5.532,0V20.7A.79.79,0,1,0,1,20.7V36.11a4.352,4.352,0,0,0,4.347,4.347Zm22.524-23.71a.79.79,0,1,1-.79.79A.79.79,0,0,1,27.871,16.747Zm10.921,2.468.133,18.865a.79.79,0,0,1-.79.8H17.6a.79.79,0,0,1-.79-.79V19.223a.79.79,0,0,1,.384-.677l9.89-5.935v2.7a2.371,2.371,0,1,0,1.581,0V12.62l9.75,5.927A.79.79,0,0,1,38.792,19.215ZM23.276,34.469l7.9-11.065a.79.79,0,1,1,1.287.918l-7.9,11.065a.79.79,0,0,1-1.287-.918Zm6.176-1.915a2.987,2.987,0,0,0,2.766,3.161,2.987,2.987,0,0,0,2.766-3.161,2.987,2.987,0,0,0-2.766-3.161A2.987,2.987,0,0,0,29.452,32.554Zm3.952,0c0,.857-.543,1.581-1.185,1.581s-1.185-.724-1.185-1.581.543-1.581,1.185-1.581S33.4,31.7,33.4,32.554ZM26.29,26.231a2.987,2.987,0,0,0-2.766-3.161,2.987,2.987,0,0,0-2.766,3.161,2.987,2.987,0,0,0,2.766,3.161,2.987,2.987,0,0,0,2.766-3.161Zm-3.952,0c0-.857.543-1.581,1.185-1.581s1.185.724,1.185,1.581-.543,1.581-1.185,1.581S22.339,27.088,22.339,26.231Z" transform="translate(-3 -5)" fill="#0d1435"/>
  </g>
</svg>
