<svg xmlns="http://www.w3.org/2000/svg" width="51.052" height="51.887" viewBox="0 0 51.052 51.887">
  <g id="discount" transform="translate(-1.497 -1)">
    <path id="Path_11149" data-name="Path 11149" d="M56.687,56.617a.84.84,0,0,1-.679,0l-3.43-1.523L49.15,56.617a.838.838,0,0,1-.68,0l-3.424-1.523-3.424,1.523a.835.835,0,0,1-.68,0l-3.424-1.523-3.425,1.523a.835.835,0,0,1-.68,0l-.914-.406V59.2a2.513,2.513,0,0,0,2.511,2.511H55.1A2.513,2.513,0,0,0,57.606,59.2V56.209Z" transform="translate(-5.057 -8.824)" fill="#fabb27" opacity="0.6"/>
    <path id="Path_11150" data-name="Path 11150" d="M56.555,32.1,46.513,24.926a2.51,2.51,0,0,0-2.919,0L33.551,32.1h0A2.517,2.517,0,0,0,32.5,34.142V47.708l1.254.557,3.425-1.523a.835.835,0,0,1,.68,0l3.424,1.523,3.424-1.523a.835.835,0,0,1,.68,0l3.424,1.523,3.427-1.523a.841.841,0,0,1,.68,0l3.43,1.523,1.259-.559V34.142A2.517,2.517,0,0,0,56.555,32.1Zm-11.5-3.84a2.929,2.929,0,1,1-2.929,2.929A2.929,2.929,0,0,1,45.053,28.259Zm8.369,15.9H36.684a.837.837,0,0,1,0-1.674H53.422a.837.837,0,0,1,0,1.674Zm0-5.021H36.684a.837.837,0,0,1,0-1.674H53.422a.837.837,0,0,1,0,1.674Z" transform="translate(-5.057 -3.826)" fill="#fabb27" opacity="0.6"/>
    <g id="Group_5990" data-name="Group 5990" transform="translate(1.497 1)">
      <path id="Path_11151" data-name="Path 11151" d="M41.3,20.112a7.549,7.549,0,0,0-2.711-8.419,5.817,5.817,0,0,1-2.108-2.928,7.452,7.452,0,0,0-7.1-5.2,5.735,5.735,0,0,1-3.412-1.119,7.391,7.391,0,0,0-8.774,0,5.735,5.735,0,0,1-3.412,1.119,7.452,7.452,0,0,0-7.1,5.2,5.817,5.817,0,0,1-2.108,2.928,7.549,7.549,0,0,0-2.711,8.419,5.868,5.868,0,0,1,0,3.62,7.549,7.549,0,0,0,2.711,8.419A5.817,5.817,0,0,1,6.688,35.08a7.452,7.452,0,0,0,7.1,5.2A5.735,5.735,0,0,1,17.2,41.4a7.391,7.391,0,0,0,8.774,0,5.735,5.735,0,0,1,3.412-1.119,7.452,7.452,0,0,0,7.1-5.2,5.817,5.817,0,0,1,2.108-2.928A7.549,7.549,0,0,0,41.3,23.732a5.868,5.868,0,0,1,0-3.62Zm-1.578,4.137A5.871,5.871,0,0,1,37.615,30.8,7.482,7.482,0,0,0,34.9,34.562a5.8,5.8,0,0,1-5.521,4.047A7.372,7.372,0,0,0,25,40.048a5.748,5.748,0,0,1-6.824,0,7.372,7.372,0,0,0-4.387-1.438,5.8,5.8,0,0,1-5.521-4.047A7.482,7.482,0,0,0,5.554,30.8a5.871,5.871,0,0,1-2.109-6.548,7.552,7.552,0,0,0,0-4.654,5.871,5.871,0,0,1,2.109-6.548A7.482,7.482,0,0,0,8.265,9.282a5.8,5.8,0,0,1,5.521-4.047A7.372,7.372,0,0,0,18.173,3.8,5.747,5.747,0,0,1,25,3.8a7.372,7.372,0,0,0,4.387,1.438A5.8,5.8,0,0,1,34.9,9.282a7.482,7.482,0,0,0,2.711,3.765,5.871,5.871,0,0,1,2.109,6.548,7.552,7.552,0,0,0,0,4.654Z" transform="translate(-1.497 -1)" fill="#0d1435"/>
      <path id="Path_11152" data-name="Path 11152" d="M20.324,34.214a.826.826,0,0,0,1.086-.447L29.527,14.25a.839.839,0,0,0-.443-1.1A.825.825,0,0,0,28,13.6L19.881,33.119a.839.839,0,0,0,.443,1.1Z" transform="translate(-4.485 -2.972)" fill="#0d1435"/>
      <path id="Path_11153" data-name="Path 11153" d="M18.089,22.087c2.435,0,4.416-2.262,4.416-5.042S20.524,12,18.089,12s-4.416,2.262-4.416,5.042S15.654,22.087,18.089,22.087Zm0-8.411c1.52,0,2.757,1.511,2.757,3.369s-1.237,3.368-2.757,3.368-2.757-1.511-2.757-3.368S16.569,13.676,18.089,13.676Z" transform="translate(-3.483 -2.795)" fill="#0d1435"/>
      <path id="Path_11154" data-name="Path 11154" d="M31.189,27.947c-2.435,0-4.416,2.262-4.416,5.042s1.981,5.042,4.416,5.042,4.416-2.262,4.416-5.042-1.981-5.042-4.416-5.042Zm0,8.411c-1.52,0-2.757-1.511-2.757-3.369s1.237-3.368,2.757-3.368,2.757,1.511,2.757,3.368S32.71,36.358,31.189,36.358Z" transform="translate(-5.62 -5.396)" fill="#0d1435"/>
      <path id="Path_11155" data-name="Path 11155" d="M25.337,7a.837.837,0,1,0,0,1.673A14.177,14.177,0,0,1,39.434,22.9a.829.829,0,1,0,1.659,0A15.845,15.845,0,0,0,25.337,7Z" transform="translate(-5.25 -1.979)" fill="#0d1435"/>
      <path id="Path_11156" data-name="Path 11156" d="M22.429,40.062a14.177,14.177,0,0,1-14.1-14.224.829.829,0,1,0-1.659,0,15.845,15.845,0,0,0,15.756,15.9.837.837,0,1,0,0-1.673Z" transform="translate(-2.342 -4.916)" fill="#0d1435"/>
    </g>
  </g>
</svg>
