<svg xmlns="http://www.w3.org/2000/svg" width="46" height="50.928" viewBox="0 0 46 50.928">
  <g id="guarantee-certificate" transform="translate(-4 -1)">
    <g id="Group_5988" data-name="Group 5988" transform="translate(13.857 15.786)" opacity="0.6">
      <path id="Path_11130" data-name="Path 11130" d="M42,42.821v9.036a.821.821,0,0,0,.821.821H56.786V42H42.821A.821.821,0,0,0,42,42.821Zm9.036,6.571H47.75a.821.821,0,0,1,0-1.643h3.286a.821.821,0,0,1,0,1.643Zm-4.929-4.929h4.929a.821.821,0,1,1,0,1.643H46.107a.821.821,0,0,1,0-1.643Z" transform="translate(-20.643 -23.107)" fill="#fabb27"/>
      <path id="Path_11131" data-name="Path 11131" d="M38.179,50.214a2.464,2.464,0,0,1-2.464-2.464V38.714a2.464,2.464,0,0,1,2.464-2.464H52.143V21.464A2.464,2.464,0,0,0,49.679,19H40.643v9.036A2.464,2.464,0,0,1,38.179,30.5H29.964A2.464,2.464,0,0,1,27.5,28.036V19H18.464A2.464,2.464,0,0,0,16,21.464V52.679a2.464,2.464,0,0,0,2.464,2.464H49.679a2.464,2.464,0,0,0,2.464-2.464V50.214Z" transform="translate(-16 -19)" fill="#fabb27"/>
      <path id="Path_11132" data-name="Path 11132" d="M32.821,28.857h8.214a.821.821,0,0,0,.821-.821V19H32v9.036A.821.821,0,0,0,32.821,28.857Z" transform="translate(-18.857 -19)" fill="#fabb27"/>
    </g>
    <path id="Path_11133" data-name="Path 11133" d="M20.679,7A10.679,10.679,0,1,0,31.357,17.679,10.679,10.679,0,0,0,20.679,7Zm0,19.714a9.036,9.036,0,1,1,9.036-9.036,9.036,9.036,0,0,1-9.036,9.036Z" transform="translate(-1.071 -1.071)" fill="#151a6a"/>
    <path id="Path_11134" data-name="Path 11134" d="M32.979,22.146c.674-1.631,2.235-3.335,2.235-5.539,0-2.188-1.573-3.943-2.235-5.539-.706-1.7-.833-3.995-2.336-5.5s-3.8-1.634-5.5-2.335C23.529,2.566,21.8,1,19.607,1s-3.943,1.576-5.539,2.236c-1.69.7-3.99.829-5.5,2.334s-1.639,3.818-2.336,5.5C5.561,12.7,4,14.4,4,16.607,4,18.8,5.573,20.55,6.235,22.146c.695,1.676.828,3.923,2.278,5.431L4.8,38.719a1.643,1.643,0,0,0,2.469,1.889l4.28-2.854a.821.821,0,0,1,1.037.1l2.574,2.572a1.643,1.643,0,0,0,2.8-1.162V31.932a4.917,4.917,0,0,0,3.286,0v7.335a1.643,1.643,0,0,0,2.8,1.162l2.574-2.574a.821.821,0,0,1,1.037-.1l4.28,2.854a1.643,1.643,0,0,0,2.469-1.889L30.7,27.578c1.447-1.506,1.589-3.773,2.278-5.432ZM16.321,39.267l-2.574-2.574a2.469,2.469,0,0,0-3.109-.308l-4.28,2.854L9.909,28.584c1.347.672,2.915.88,4.159,1.4.7.291,1.367.721,2.253,1.207Zm12.254-2.882a2.464,2.464,0,0,0-3.108.308l-2.574,2.574V31.185c.886-.485,1.552-.917,2.253-1.207,1.238-.514,2.805-.72,4.159-1.4l3.552,10.657Zm2.886-14.868c-.72,1.734-.871,3.855-1.98,4.964s-3.231,1.26-4.965,1.98c-1.616.67-3.287,2.111-4.91,2.111-1.643,0-3.2-1.4-4.91-2.11-1.769-.734-3.851-.865-4.965-1.98s-1.256-3.221-1.98-4.964c-.714-1.714-2.11-3.26-2.11-4.911s1.4-3.188,2.11-4.91.871-3.855,1.98-4.964,3.231-1.26,4.965-1.98c1.706-.706,3.26-2.11,4.91-2.11s3.185,1.4,4.91,2.11c1.769.734,3.851.865,4.965,1.98s1.256,3.219,1.98,4.964c.714,1.714,2.11,3.26,2.11,4.91s-1.4,3.188-2.11,4.911Z" transform="translate(0 0)" fill="#151a6a"/>
    <path id="Path_11135" data-name="Path 11135" d="M26.65,15.125a.821.821,0,0,0-1.132.261l-3.494,5.586-2.561-3.2a.822.822,0,1,0-1.283,1.027L21.466,22.9a.821.821,0,0,0,.642.312h.048a.821.821,0,0,0,.649-.384l4.107-6.571a.821.821,0,0,0-.261-1.134Z" transform="translate(-2.5 -2.5)" fill="#151a6a"/>
  </g>
</svg>
