<svg xmlns="http://www.w3.org/2000/svg" width="49" height="51.803" viewBox="0 0 49 51.803">
  <g id="mobile-payment" transform="translate(-1.5 -1)">
    <path id="Path_11136" data-name="Path 11136" d="M44.444,38.214a1.713,1.713,0,0,0,.486,1.691A6.454,6.454,0,0,0,46,40.56V36.478a2.148,2.148,0,0,0-1.554,1.737Z" transform="translate(-8.437 -4.979)" fill="#fabb27" opacity="0.6"/>
    <path id="Path_11137" data-name="Path 11137" d="M50.522,47.5c.287-1.7-.777-2.452-2.129-2.945v5.322A2.982,2.982,0,0,0,50.522,47.5Z" transform="translate(-9.225 -6.569)" fill="#fabb27" opacity="0.6"/>
    <path id="Path_11138" data-name="Path 11138" d="M54.189,25H34.91a2.417,2.417,0,0,0-2.41,2.41v25.7a2.417,2.417,0,0,0,2.41,2.41H54.189a2.417,2.417,0,0,0,2.41-2.41V27.41A2.417,2.417,0,0,0,54.189,25Zm-9.639,1.607a1.2,1.2,0,1,1-1.2,1.2A1.2,1.2,0,0,1,44.549,26.607ZM40.188,45.548a.8.8,0,0,1,1.112-.232,4.076,4.076,0,0,0,2.359.826V40.077A9.4,9.4,0,0,1,41.6,38.912a3.3,3.3,0,0,1-1.073-3.253,3.777,3.777,0,0,1,3.132-3.094V31.426a.8.8,0,0,1,1.607,0V32.5a5.046,5.046,0,0,1,1.685.517.8.8,0,0,1,.221,1.256.793.793,0,0,1-.947.176,3.455,3.455,0,0,0-.959-.321V39c.3.114.611.231.961.355a3.994,3.994,0,0,1,2.753,4.57,4.561,4.561,0,0,1-3.714,3.766v1.26a.8.8,0,1,1-1.607,0v-1.2a5.684,5.684,0,0,1-3.239-1.088.8.8,0,0,1-.232-1.112Zm14.8,7.567a.806.806,0,0,1-.8.8H34.91a.806.806,0,0,1-.8-.8v-.8H54.992Z" transform="translate(-6.098 -2.721)" fill="#fabb27" opacity="0.6"/>
    <g id="Group_5989" data-name="Group 5989" transform="translate(1.5 1)">
      <path id="Path_11139" data-name="Path 11139" d="M11.926,14H6.3a.8.8,0,1,0,0,1.607h5.623a.8.8,0,1,0,0-1.607Z" transform="translate(-2.287 -3.557)" fill="#0d1435"/>
      <path id="Path_11140" data-name="Path 11140" d="M11.926,20H6.3a.8.8,0,1,0,0,1.607h5.623a.8.8,0,1,0,0-1.607Z" transform="translate(-2.287 -4.738)" fill="#0d1435"/>
      <path id="Path_11141" data-name="Path 11141" d="M11.926,26H6.3a.8.8,0,1,0,0,1.607h5.623a.8.8,0,1,0,0-1.607Z" transform="translate(-2.287 -5.918)" fill="#0d1435"/>
      <path id="Path_11142" data-name="Path 11142" d="M11.926,32H6.3a.8.8,0,0,0,0,1.607h5.623a.8.8,0,0,0,0-1.607Z" transform="translate(-2.287 -7.098)" fill="#0d1435"/>
      <path id="Path_11143" data-name="Path 11143" d="M11.926,38H6.3a.8.8,0,0,0,0,1.607h5.623a.8.8,0,0,0,0-1.607Z" transform="translate(-2.287 -8.279)" fill="#0d1435"/>
      <path id="Path_11144" data-name="Path 11144" d="M22.3,28a.8.8,0,0,0-.8.8v4.82a.8.8,0,1,0,1.607,0V28.8a.8.8,0,0,0-.8-.8Z" transform="translate(-5.435 -6.311)" fill="#0d1435"/>
      <path id="Path_11145" data-name="Path 11145" d="M27.3,28a.8.8,0,0,0-.8.8v4.82a.8.8,0,1,0,1.607,0V28.8A.8.8,0,0,0,27.3,28Z" transform="translate(-6.418 -6.311)" fill="#0d1435"/>
      <path id="Path_11146" data-name="Path 11146" d="M39.254,11.443H30.418V3.41A2.412,2.412,0,0,0,28.008,1H3.91A2.412,2.412,0,0,0,1.5,3.41V39.557a2.412,2.412,0,0,0,2.41,2.41h24.1a2.412,2.412,0,0,0,2.41-2.41v-7.23h8.836a2.412,2.412,0,0,0,2.41-2.41V13.852a2.412,2.412,0,0,0-2.41-2.41Zm.8,2.41v.8h-24.1v-.8a.8.8,0,0,1,.8-.8H39.254a.8.8,0,0,1,.8.8ZM3.91,2.607h24.1a.8.8,0,0,1,.8.8v.8H3.107v-.8A.8.8,0,0,1,3.91,2.607Zm24.1,37.754H3.91a.8.8,0,0,1-.8-.8v-.8h25.7v.8a.8.8,0,0,1-.8.8Zm.8-3.213H3.107V5.82h25.7v5.623H16.762a2.412,2.412,0,0,0-2.41,2.41V29.918a2.412,2.412,0,0,0,2.41,2.41H28.811Zm10.443-6.426H16.762a.8.8,0,0,1-.8-.8V16.262h24.1V29.918a.8.8,0,0,1-.8.8Z" transform="translate(-1.5 -1)" fill="#0d1435"/>
      <path id="Path_11147" data-name="Path 11147" d="M29.533,22H22.3a.8.8,0,1,0,0,1.607h7.23a.8.8,0,1,0,0-1.607Z" transform="translate(-5.434 -5.131)" fill="#0d1435"/>
      <path id="Path_11148" data-name="Path 11148" d="M44.336,28H36.3a.8.8,0,0,0-.8.8v4.82a.8.8,0,0,0,.8.8h8.033a.8.8,0,0,0,.8-.8V28.8a.8.8,0,0,0-.8-.8Zm-.8,4.82H37.107V29.607h6.426Z" transform="translate(-8.189 -6.311)" fill="#0d1435"/>
    </g>
  </g>
</svg>
