<svg xmlns="http://www.w3.org/2000/svg" width="50" height="50" viewBox="0 0 50 50">
  <g id="sewing-machine" transform="translate(-1 -1)">
    <g id="Group_5987" data-name="Group 5987" transform="translate(15.516 15.516)" opacity="0.6">
      <path id="Path_11112" data-name="Path 11112" d="M32.16,31.559,37.676,33.4V29.72Z" transform="translate(-21.547 -21.075)" fill="#fabb27"/>
      <path id="Path_11113" data-name="Path 11113" d="M19,35.72v7.758l8.524-4.919Z" transform="translate(-19 -22.236)" fill="#fabb27"/>
      <path id="Path_11114" data-name="Path 11114" d="M26.815,32.325,19,29.72v3.137l16.129,5.379V35.1l-8.306-2.774Z" transform="translate(-19 -21.075)" fill="#fabb27"/>
      <path id="Path_11115" data-name="Path 11115" d="M19.06,53.9a2.419,2.419,0,0,0,2.371,1.944h1.21v2.419a2.419,2.419,0,0,0,2.419,2.419h4.032a2.419,2.419,0,0,0,2.419-2.419V55.848h1.21a2.419,2.419,0,0,0,2.419-2.419V53.1L24.77,51.05ZM29.9,58.268a.806.806,0,0,1-.806.806H25.06a.806.806,0,0,1-.806-.806V55.848H29.9Z" transform="translate(-19.012 -25.203)" fill="#fabb27"/>
      <path id="Path_11116" data-name="Path 11116" d="M35.129,25.96a2.419,2.419,0,0,0-2.419-2.121H31.5V21.419A2.419,2.419,0,0,0,29.081,19H25.048a2.419,2.419,0,0,0-2.419,2.419v2.419h-1.21A2.419,2.419,0,0,0,19,25.96l8.065,2.718Zm-10.887-4.54a.806.806,0,0,1,.806-.806h4.032a.806.806,0,0,1,.806.806v2.419H24.242Z" transform="translate(-19 -19)" fill="#fabb27"/>
      <path id="Path_11117" data-name="Path 11117" d="M29.573,40.09,19,46.187V50l16.121-8.065Z" transform="translate(-19 -23.082)" fill="#fabb27"/>
      <path id="Path_11118" data-name="Path 11118" d="M37.076,50.209V44.62L29.06,48.628Z" transform="translate(-20.947 -23.959)" fill="#fabb27"/>
      <path id="Path_11119" data-name="Path 11119" d="M48.516,49.559,43,47.72V51.4Z" transform="translate(-23.645 -24.559)" fill="#fabb27"/>
      <path id="Path_11120" data-name="Path 11120" d="M60.954,44.418V36.66L52.43,41.579Z" transform="translate(-25.47 -22.418)" fill="#fabb27"/>
      <path id="Path_11121" data-name="Path 11121" d="M51.315,47.631l7.815,2.6V47.1L43,41.72v3.137l8.306,2.774Z" transform="translate(-23.645 -23.397)" fill="#fabb27"/>
      <path id="Path_11122" data-name="Path 11122" d="M59.081,25.782a2.419,2.419,0,0,0-2.371-1.944H55.5V21.419A2.419,2.419,0,0,0,53.081,19H49.048a2.419,2.419,0,0,0-2.419,2.419v2.419h-1.21A2.419,2.419,0,0,0,43,26.258v.331l10.371,2.089ZM48.242,21.419a.806.806,0,0,1,.806-.806h4.032a.806.806,0,0,1,.806.806v2.419H48.242Z" transform="translate(-23.645 -19)" fill="#fabb27"/>
      <path id="Path_11123" data-name="Path 11123" d="M43,53.735a2.419,2.419,0,0,0,2.419,2.113h1.21v2.419a2.419,2.419,0,0,0,2.419,2.419h4.032A2.419,2.419,0,0,0,55.5,58.268V55.848h1.21a2.419,2.419,0,0,0,2.419-2.121L51.065,51.05Zm10.887,4.532a.806.806,0,0,1-.806.806H49.048a.806.806,0,0,1-.806-.806V55.848h5.645Z" transform="translate(-23.645 -25.203)" fill="#fabb27"/>
      <path id="Path_11124" data-name="Path 11124" d="M48.558,39.531l10.573-6.1V29.62L43.01,37.685Z" transform="translate(-23.647 -21.055)" fill="#fabb27"/>
      <path id="Path_11125" data-name="Path 11125" d="M43,30.45v5.589l8.016-4.008Z" transform="translate(-23.645 -21.216)" fill="#fabb27"/>
    </g>
    <path id="Path_11126" data-name="Path 11126" d="M38.1,30.032H36.484V21.968h.806a2.419,2.419,0,0,0,2.419-2.419V11.484A2.419,2.419,0,0,0,37.29,9.065h-.871a5.645,5.645,0,0,0-5.581-4.839H26.806V1.806a.806.806,0,0,0-1.613,0V4.226H17.129V1.806a.806.806,0,0,0-1.613,0V4.226H9.065A5.645,5.645,0,0,0,3.419,9.871v9.677a2.419,2.419,0,0,0,2.419,2.419h1.21v1.613a.806.806,0,1,0,1.613,0V21.968h1.21a2.419,2.419,0,0,0,2.419-2.419V17.129H22.774v12.9H4.226A3.226,3.226,0,0,0,1,33.258v3.226A2.419,2.419,0,0,0,3.419,38.9H38.9a2.419,2.419,0,0,0,2.419-2.419V33.258A3.226,3.226,0,0,0,38.1,30.032Zm0-18.548v8.065a.806.806,0,0,1-.806.806h-.806V10.677h.806A.806.806,0,0,1,38.1,11.484ZM9.871,20.355H5.839a.806.806,0,0,1-.806-.806h5.645A.806.806,0,0,1,9.871,20.355Zm12.9-4.839H12.29a1.613,1.613,0,0,0-1.613,1.613v.806H5.032V9.871A4.032,4.032,0,0,1,9.065,5.839H30.839a4.032,4.032,0,0,1,4.032,4.032V30.032H24.387v-12.9A1.613,1.613,0,0,0,22.774,15.516ZM4.226,31.645H38.1a1.613,1.613,0,0,1,1.387.806H2.839a1.613,1.613,0,0,1,1.387-.806ZM38.9,37.29H3.419a.806.806,0,0,1-.806-.806V34.065h37.1v2.419A.806.806,0,0,1,38.9,37.29ZM16.323,7.452a3.226,3.226,0,1,0,3.226,3.226A3.226,3.226,0,0,0,16.323,7.452Zm0,4.839a1.613,1.613,0,1,1,1.613-1.613A1.613,1.613,0,0,1,16.323,12.29Zm12.9-1.613A3.226,3.226,0,1,0,26,13.9,3.226,3.226,0,0,0,29.226,10.677Zm-4.839,0A1.613,1.613,0,1,1,26,12.29,1.613,1.613,0,0,1,24.387,10.677Z" fill="#0d1435"/>
  </g>
</svg>
