<svg xmlns="http://www.w3.org/2000/svg" width="50.542" height="48.912" viewBox="0 0 50.542 48.912">
  <g id="shipping" transform="translate(-1 -2)">
    <path id="Path_11127" data-name="Path 11127" d="M13,42.446V55.489a2.446,2.446,0,0,0,2.446,2.446h5.706V40H15.446A2.446,2.446,0,0,0,13,42.446Z" transform="translate(-2.218 -7.023)" fill="#fabb27" opacity="0.6"/>
    <path id="Path_11128" data-name="Path 11128" d="M53.532,24H27.446A2.446,2.446,0,0,0,25,26.446V54.977H53.532a2.446,2.446,0,0,0,2.446-2.446V26.446A2.446,2.446,0,0,0,53.532,24ZM36.05,38.537a.815.815,0,0,1-1.268-.678V25.63H46.2V37.858a.815.815,0,0,1-1.268.678l-4.439-2.961ZM51.9,51.717H42.119a.815.815,0,1,1,0-1.63H51.9a.815.815,0,1,1,0,1.63Zm0-3.261H42.119a.815.815,0,0,1,0-1.63H51.9a.815.815,0,0,1,0,1.63Z" transform="translate(-4.435 -4.066)" fill="#fabb27" opacity="0.6"/>
    <path id="Path_11129" data-name="Path 11129" d="M19.749,2A18.749,18.749,0,1,0,38.5,20.749,18.749,18.749,0,0,0,19.749,2ZM14.965,4.324c-2.889,3.044-4.842,8.8-4.987,15.61H2.672A17.13,17.13,0,0,1,14.965,4.324ZM2.672,21.565H9.978c.145,6.806,2.1,12.566,4.987,15.61A17.13,17.13,0,0,1,2.672,21.565ZM18.934,37.779c-3.925-.862-7.118-7.869-7.316-16.214h7.316Zm0-17.845H11.618c.2-8.345,3.391-15.352,7.316-16.214Zm17.893,0H29.521c-.145-6.806-2.1-12.566-4.987-15.61a17.13,17.13,0,0,1,12.293,15.61ZM20.565,3.72c3.925.862,7.118,7.869,7.316,16.214H20.565Zm0,34.059V21.565h7.316C27.683,29.91,24.49,36.916,20.565,37.779Zm3.969-.6c2.889-3.044,4.842-8.8,4.987-15.61h7.306a17.13,17.13,0,0,1-12.293,15.61Z" fill="#0d1435"/>
  </g>
</svg>
