<svg xmlns="http://www.w3.org/2000/svg" width="48.688" height="48.688" viewBox="0 0 48.688 48.688">
  <g id="sweaters" transform="translate(-1 -1)">
    <g id="Group_5991" data-name="Group 5991" transform="translate(16.706 16.706)" opacity="0.6">
      <path id="Path_11159" data-name="Path 11159" d="M40.068,28.853a7.068,7.068,0,0,0,7.068-7.068V21H45.565v.785a5.5,5.5,0,1,1-10.994,0V21H33v.785A7.068,7.068,0,0,0,40.068,28.853Z" transform="translate(-23.577 -21)" fill="#fabb27"/>
      <path id="Path_11160" data-name="Path 11160" d="M40.926,25.712a3.926,3.926,0,0,0,3.926-3.926V21H37v.785a3.926,3.926,0,0,0,3.926,3.926Z" transform="translate(-24.435 -21)" fill="#fabb27"/>
      <path id="Path_11161" data-name="Path 11161" d="M50.966,40.488a3.926,3.926,0,0,1-2.8-1.154,2.356,2.356,0,0,0-3.385,0,3.974,3.974,0,0,1-5.607,0,2.356,2.356,0,0,0-3.377,0,3.974,3.974,0,0,1-5.607,0,2.356,2.356,0,0,0-3.385,0,3.926,3.926,0,0,1-5.6,0L21,39.153v5.3l1.319,1.327a2.411,2.411,0,0,0,3.385,0,3.966,3.966,0,0,1,5.607,0,2.4,2.4,0,0,0,3.377,0,3.966,3.966,0,0,1,5.607,0,2.411,2.411,0,0,0,3.385,0,3.926,3.926,0,0,1,5.6,0,2.411,2.411,0,0,0,3.385,0l1.319-1.327v-5.3l-.212.212a3.926,3.926,0,0,1-2.8,1.123Z" transform="translate(-21 -24.783)" fill="#fabb27"/>
      <path id="Path_11162" data-name="Path 11162" d="M51.626,21h-5.5v.785a8.638,8.638,0,1,1-17.276,0V21h-5.5A2.356,2.356,0,0,0,21,23.356v9.792l1.319,1.319a2.356,2.356,0,0,0,3.385,0,3.981,3.981,0,0,1,5.607,0,2.356,2.356,0,0,0,3.377,0,3.981,3.981,0,0,1,5.607,0,2.356,2.356,0,0,0,3.385,0,3.974,3.974,0,0,1,5.6,0,2.356,2.356,0,0,0,3.385,0l1.319-1.319V23.356A2.356,2.356,0,0,0,51.626,21Z" transform="translate(-21 -21)" fill="#fabb27"/>
      <path id="Path_11163" data-name="Path 11163" d="M48.171,48.955a2.45,2.45,0,0,0-3.385,0,3.926,3.926,0,0,1-5.607,0,2.356,2.356,0,0,0-3.377,0,3.966,3.966,0,0,1-5.607,0,2.45,2.45,0,0,0-3.385,0,3.926,3.926,0,0,1-5.6,0L21,48.743v8.732a2.356,2.356,0,0,0,2.356,2.356h28.27a2.356,2.356,0,0,0,2.356-2.356V48.743l-.212.212a3.926,3.926,0,0,1-5.6,0Z" transform="translate(-21 -26.849)" fill="#fabb27"/>
    </g>
    <path id="Path_11164" data-name="Path 11164" d="M33.2,1H8.068A7.068,7.068,0,0,0,1,8.068V26.914a2.356,2.356,0,0,0,1.571,2.214v.927a2.356,2.356,0,0,0,2.356,2.356h2.5a2.356,2.356,0,0,0,1.429,1.429v.927a2.356,2.356,0,0,0,2.356,2.356H30.055a2.356,2.356,0,0,0,2.356-2.356v-.927a2.356,2.356,0,0,0,1.429-1.429h2.5a2.356,2.356,0,0,0,2.356-2.356v-.927a2.356,2.356,0,0,0,1.571-2.214V8.068A7.068,7.068,0,0,0,33.2,1ZM8.853,14.672l.228.236a3.015,3.015,0,0,0,4.256,0,1.421,1.421,0,0,1,2.026,0,3.015,3.015,0,0,0,4.256,0,1.421,1.421,0,0,1,2.026,0,3.015,3.015,0,0,0,4.256,0,1.421,1.421,0,0,1,2.026,0,3.015,3.015,0,0,0,4.256,0l.228-.236v2.5L31.068,18.5a1.421,1.421,0,0,1-2.026,0,3.015,3.015,0,0,0-4.256,0,1.421,1.421,0,0,1-2.026,0,3.015,3.015,0,0,0-4.256,0,1.421,1.421,0,0,1-2.026,0,3.015,3.015,0,0,0-4.256,0,1.421,1.421,0,0,1-2.026,0L8.853,17.169Zm23.558-2.214-1.343,1.335a1.421,1.421,0,0,1-2.026,0,3.015,3.015,0,0,0-4.256,0,1.421,1.421,0,0,1-2.026,0,3.015,3.015,0,0,0-4.256,0,1.421,1.421,0,0,1-2.026,0,3.015,3.015,0,0,0-4.256,0,1.421,1.421,0,0,1-2.026,0L8.853,12.457V2.571h3.966a7.853,7.853,0,0,0,15.666,0h3.926Zm-8.74-9.887a3.141,3.141,0,0,1-6.078,0Zm-7.68,0a4.712,4.712,0,0,0,9.282,0h1.571a6.282,6.282,0,0,1-12.447,0Zm-13.42,5.5A5.5,5.5,0,0,1,7.282,2.626V27.7H3.356a.785.785,0,0,1-.785-.785ZM4.141,30.055V29.27H7.282v1.571H4.926A.785.785,0,0,1,4.141,30.055Zm26.7,4.712a.785.785,0,0,1-.785.785H11.209a.785.785,0,0,1-.785-.785v-.785H30.841Zm.785-2.356H9.638a.785.785,0,0,1-.785-.785V19.383l.228.236a3.015,3.015,0,0,0,4.256,0,1.421,1.421,0,0,1,2.026,0,3.015,3.015,0,0,0,4.256,0,1.421,1.421,0,0,1,2.026,0,3.015,3.015,0,0,0,4.256,0,1.421,1.421,0,0,1,2.026,0,3.015,3.015,0,0,0,4.256,0l.228-.236V31.626A.785.785,0,0,1,31.626,32.411Zm5.5-2.356a.785.785,0,0,1-.785.785H33.982V29.27h3.141Zm1.571-3.141a.785.785,0,0,1-.785.785H33.982V2.626a5.5,5.5,0,0,1,4.712,5.442Z" transform="translate(0)" fill="#0d1435"/>
  </g>
</svg>
