<svg xmlns="http://www.w3.org/2000/svg" width="235.11" height="182.892" viewBox="0 0 235.11 182.892">
  <g id="Group_5867" data-name="Group 5867" transform="translate(-44.477 -88.556)">
    <g id="Background_Simple" data-name="Background Simple" transform="translate(44.807 88.808)">
      <g id="Group_5842" data-name="Group 5842">
        <path id="Path_10826" data-name="Path 10826" d="M228.376,113.583s-23.72-25.988-61.276-24.73S97.522,115.26,71.036,134.961s-33.6,50.3-18.186,74.192,39.929,13.833,71.159,29.342,37.161,24.312,71.95,20.539,61.275-42.336,57.322-83.415S228.376,113.583,228.376,113.583Z" transform="translate(-44.807 -88.808)" fill="#fff" stroke="#151c3a" stroke-width="0.5"/>
      </g>
    </g>
    <g id="Plants" transform="translate(195.512 156.6)">
      <g id="Group_5850" data-name="Group 5850">
        <g id="Group_5846" data-name="Group 5846" transform="translate(29.929)">
          <g id="Group_5844" data-name="Group 5844">
            <path id="Path_10827" data-name="Path 10827" d="M374.937,224.578c-.034,0,.41-2.2.454-2.332.508-1.569,2.414-4.3,4.261-4.3a2.186,2.186,0,0,1,2.1,2.484,4.572,4.572,0,0,1-2.352,3.042A15.656,15.656,0,0,1,374.937,224.578Z" transform="translate(-361.077 -209.658)" fill="#fabb27"/>
            <path id="Path_10828" data-name="Path 10828" d="M361.7,204c1.739.624,2.6,3.841,2.549,5.49-.005.143-.334,2.362-.365,2.348l-.035-.018c.141.507.285,1.052.431,1.651.261,1.108.546,2.362.764,3.748a38.951,38.951,0,0,1,.491,4.5,28.5,28.5,0,0,1-.171,5.066c0,.019-.008.04-.011.06.227-.491.91-1.842.974-1.94.9-1.379,3.464-3.512,5.245-3.021a2.186,2.186,0,0,1,1.371,2.95,4.571,4.571,0,0,1-3.073,2.312,15.227,15.227,0,0,1-4.553-.106,38.68,38.68,0,0,1-1.1,5.045c-.273.966-.578,1.931-.9,2.894.21-.418.4-.791.434-.84.9-1.379,3.464-3.512,5.245-3.022a2.187,2.187,0,0,1,1.371,2.951,4.567,4.567,0,0,1-3.073,2.312,14.492,14.492,0,0,1-4.423-.087c-.126.368-.247.737-.375,1.1-.61,1.765-1.227,3.523-1.779,5.266-.2.614-.364,1.227-.536,1.838.187-.371.348-.682.378-.727.9-1.38,3.464-3.512,5.245-3.021a2.186,2.186,0,0,1,1.371,2.95,4.569,4.569,0,0,1-3.073,2.312,13.935,13.935,0,0,1-4.3-.07c-.157.632-.315,1.264-.438,1.883-.075.425-.176.828-.227,1.26s-.119.847-.178,1.264c-.083.807-.174,1.64-.236,2.43-.047.549-.081,1.073-.118,1.6.186-.614.577-1.807.622-1.9a8.488,8.488,0,0,1,2.827-3.219,2.582,2.582,0,0,1,.239-.421,2.186,2.186,0,0,1,3.214-.5c1.4,1.207,1.049,4.52.406,6.039-.038.09-.558,1.016-.9,1.595.25-.31.49-.614.752-.93.513-.629,1.044-1.241,1.612-1.9l.866-.937c.282-.319.621-.62.933-.935.739-.715,1.523-1.4,2.328-2.078a14.362,14.362,0,0,1-3.032-3.186,4.572,4.572,0,0,1-.371-3.827,2.187,2.187,0,0,1,3.1-.983c1.565.982,1.721,4.31,1.316,5.909-.025.1-.445,1.214-.688,1.822.487-.4.971-.807,1.477-1.2,1.46-1.129,2.974-2.226,4.479-3.327.461-.337.916-.678,1.373-1.018a15.2,15.2,0,0,1-3.151-3.284,4.572,4.572,0,0,1-.371-3.828,2.186,2.186,0,0,1,3.1-.983c1.565.982,1.722,4.31,1.317,5.909-.031.121-.637,1.723-.812,2.124,1.007-.749,2-1.505,2.955-2.291a38.447,38.447,0,0,0,3.656-3.4,15.424,15.424,0,0,1-3.173-3.3,4.568,4.568,0,0,1-.371-3.827,2.186,2.186,0,0,1,3.1-.983c1.565.981,1.722,4.309,1.317,5.908-.027.105-.488,1.328-.721,1.9l.089.055a28.127,28.127,0,0,0,3-4.028c.493-.781.921-1.554,1.32-2.316A14.713,14.713,0,0,1,387,228.171a4.57,4.57,0,0,1-.789-3.763,2.187,2.187,0,0,1,2.975-1.317c1.664.8,2.185,4.095,1.957,5.728-.012.089-.238.978-.411,1.624.174-.347.362-.7.523-1.037.608-1.258,1.086-2.447,1.5-3.5.232-.6.429-1.153.608-1.669a14.625,14.625,0,0,1-1.7-4.11,4.573,4.573,0,0,1,1.034-3.7,2.187,2.187,0,0,1,3.247.2c1.106,1.48.052,4.64-.9,5.986-.082.116-1.582,1.786-1.6,1.757l-.019-.034c-.163.5-.343,1.035-.551,1.614-.393,1.068-.847,2.271-1.43,3.547a38.713,38.713,0,0,1-2.074,4.028,28.549,28.549,0,0,1-2.937,4.131c-.013.015-.029.029-.042.044.461-.283,1.776-1.034,1.883-1.08,1.516-.651,4.827-1.018,6.042.374a2.186,2.186,0,0,1-.484,3.218,4.569,4.569,0,0,1-3.838.233,15.229,15.229,0,0,1-3.739-2.6,38.716,38.716,0,0,1-3.7,3.6c-.76.655-1.547,1.292-2.343,1.92.406-.233.771-.438.825-.461,1.516-.651,4.827-1.018,6.042.374a2.187,2.187,0,0,1-.484,3.217,4.57,4.57,0,0,1-3.838.233,14.5,14.5,0,0,1-3.642-2.513c-.308.237-.613.478-.922.715-1.483,1.135-2.967,2.262-4.389,3.411-.5.4-.98.822-1.461,1.237.361-.206.667-.377.716-.4,1.516-.651,4.827-1.019,6.042.374a2.186,2.186,0,0,1-.485,3.217,4.57,4.57,0,0,1-3.838.233,13.932,13.932,0,0,1-3.55-2.432c-.48.441-.96.881-1.405,1.329-.3.313-.6.594-.884.925l-.845.956c-.515.628-1.05,1.272-1.537,1.9-.342.432-.66.85-.982,1.27.494-.409,1.479-1.189,1.569-1.244,1.4-.874,4.617-1.738,6.028-.546a2.186,2.186,0,0,1,.009,3.253,4.569,4.569,0,0,1-3.759.812,15.019,15.019,0,0,1-4.068-1.989c-.529.7-1.038,1.38-1.507,2.032-1.633,2.256-2.907,4.2-3.779,5.567l-.088.14-1.13-.548.178-.269c.912-1.366,2.241-3.3,3.939-5.541.534-.71,1.121-1.458,1.729-2.22a23.746,23.746,0,0,1-1.754-2.172,16.016,16.016,0,0,1-4.349.529c-.057.873-.1,1.723-.137,2.526-.117,2.783-.108,5.105-.08,6.728,0,.067,0,.125,0,.189l-1.242-.6c.012-1.612.061-3.793.226-6.372.054-.887.13-1.834.217-2.805a15.041,15.041,0,0,1-4.216-1.656,4.57,4.57,0,0,1-1.941-3.32,2.186,2.186,0,0,1,2.4-2.192c1.833.235,3.369,3.191,3.67,4.813.018.1.095,1.155.133,1.825.038-.4.07-.782.114-1.19.081-.808.186-1.611.3-2.476l.205-1.26c.06-.422.176-.86.262-1.295.223-1,.5-2.01.8-3.018a14.339,14.339,0,0,1-4.286-.984,4.572,4.572,0,0,1-2.421-2.988,2.186,2.186,0,0,1,2.045-2.53c1.846-.045,3.813,2.644,4.357,4.2.034.1.3,1.258.431,1.9.184-.6.365-1.208.571-1.813.6-1.747,1.252-3.5,1.9-5.246.2-.536.39-1.072.584-1.608a15.18,15.18,0,0,1-4.44-1,4.571,4.571,0,0,1-2.421-2.988,2.187,2.187,0,0,1,2.045-2.531c1.847-.045,3.814,2.645,4.357,4.2.041.117.419,1.789.495,2.219.426-1.181.84-2.361,1.2-3.541a38.45,38.45,0,0,0,1.172-4.854,15.431,15.431,0,0,1-4.467-1A4.572,4.572,0,0,1,358,223.1a2.186,2.186,0,0,1,2.045-2.53c1.847-.045,3.814,2.644,4.357,4.2.036.1.325,1.375.449,1.984l.106,0a28.233,28.233,0,0,0,.279-5.014c-.019-.923-.089-1.8-.177-2.66a14.7,14.7,0,0,1-4.443-.508,4.569,4.569,0,0,1-2.735-2.7,2.186,2.186,0,0,1,1.754-2.74c1.83-.248,4.08,2.209,4.792,3.7.039.081.341.947.553,1.581-.045-.385-.085-.784-.135-1.153-.187-1.384-.444-2.641-.68-3.751-.14-.63-.278-1.2-.413-1.727a14.63,14.63,0,0,1-3.69-2.488,4.572,4.572,0,0,1-1.181-3.66A2.187,2.187,0,0,1,361.7,204Z" transform="translate(-351.414 -203.877)" fill="#fabb27"/>
            <path id="Path_10829" data-name="Path 10829" d="M422.529,249.034a15.678,15.678,0,0,1-4.333-1.54c-.03-.016,1.554-1.605,1.665-1.695,1.29-1.028,4.387-2.256,5.926-1.235a2.186,2.186,0,0,1,.382,3.231A4.569,4.569,0,0,1,422.529,249.034Z" transform="translate(-378.851 -220.436)" fill="#fabb27"/>
          </g>
          <g id="Group_5845" data-name="Group 5845" opacity="0.5">
            <path id="Path_10830" data-name="Path 10830" d="M374.937,224.578c-.034,0,.41-2.2.454-2.332.508-1.569,2.414-4.3,4.261-4.3a2.186,2.186,0,0,1,2.1,2.484,4.572,4.572,0,0,1-2.352,3.042A15.656,15.656,0,0,1,374.937,224.578Z" transform="translate(-361.077 -209.658)" fill="#fff"/>
            <path id="Path_10831" data-name="Path 10831" d="M361.7,204c1.739.624,2.6,3.841,2.549,5.49-.005.143-.334,2.362-.365,2.348l-.035-.018c.141.507.285,1.052.431,1.651.261,1.108.546,2.362.764,3.748a38.951,38.951,0,0,1,.491,4.5,28.5,28.5,0,0,1-.171,5.066c0,.019-.008.04-.011.06.227-.491.91-1.842.974-1.94.9-1.379,3.464-3.512,5.245-3.021a2.186,2.186,0,0,1,1.371,2.95,4.571,4.571,0,0,1-3.073,2.312,15.227,15.227,0,0,1-4.553-.106,38.68,38.68,0,0,1-1.1,5.045c-.273.966-.578,1.931-.9,2.894.21-.418.4-.791.434-.84.9-1.379,3.464-3.512,5.245-3.022a2.187,2.187,0,0,1,1.371,2.951,4.567,4.567,0,0,1-3.073,2.312,14.492,14.492,0,0,1-4.423-.087c-.126.368-.247.737-.375,1.1-.61,1.765-1.227,3.523-1.779,5.266-.2.614-.364,1.227-.536,1.838.187-.371.348-.682.378-.727.9-1.38,3.464-3.512,5.245-3.021a2.186,2.186,0,0,1,1.371,2.95,4.569,4.569,0,0,1-3.073,2.312,13.935,13.935,0,0,1-4.3-.07c-.157.632-.315,1.264-.438,1.883-.075.425-.176.828-.227,1.26s-.119.847-.178,1.264c-.083.807-.174,1.64-.236,2.43-.047.549-.081,1.073-.118,1.6.186-.614.577-1.807.622-1.9a8.488,8.488,0,0,1,2.827-3.219,2.582,2.582,0,0,1,.239-.421,2.186,2.186,0,0,1,3.214-.5c1.4,1.207,1.049,4.52.406,6.039-.038.09-.558,1.016-.9,1.595.25-.31.49-.614.752-.93.513-.629,1.044-1.241,1.612-1.9l.866-.937c.282-.319.621-.62.933-.935.739-.715,1.523-1.4,2.328-2.078a14.362,14.362,0,0,1-3.032-3.186,4.572,4.572,0,0,1-.371-3.827,2.187,2.187,0,0,1,3.1-.983c1.565.982,1.721,4.31,1.316,5.909-.025.1-.445,1.214-.688,1.822.487-.4.971-.807,1.477-1.2,1.46-1.129,2.974-2.226,4.479-3.327.461-.337.916-.678,1.373-1.018a15.2,15.2,0,0,1-3.151-3.284,4.572,4.572,0,0,1-.371-3.828,2.186,2.186,0,0,1,3.1-.983c1.565.982,1.722,4.31,1.317,5.909-.031.121-.637,1.723-.812,2.124,1.007-.749,2-1.505,2.955-2.291a38.447,38.447,0,0,0,3.656-3.4,15.424,15.424,0,0,1-3.173-3.3,4.568,4.568,0,0,1-.371-3.827,2.186,2.186,0,0,1,3.1-.983c1.565.981,1.722,4.309,1.317,5.908-.027.105-.488,1.328-.721,1.9l.089.055a28.127,28.127,0,0,0,3-4.028c.493-.781.921-1.554,1.32-2.316A14.713,14.713,0,0,1,387,228.171a4.57,4.57,0,0,1-.789-3.763,2.187,2.187,0,0,1,2.975-1.317c1.664.8,2.185,4.095,1.957,5.728-.012.089-.238.978-.411,1.624.174-.347.362-.7.523-1.037.608-1.258,1.086-2.447,1.5-3.5.232-.6.429-1.153.608-1.669a14.625,14.625,0,0,1-1.7-4.11,4.573,4.573,0,0,1,1.034-3.7,2.187,2.187,0,0,1,3.247.2c1.106,1.48.052,4.64-.9,5.986-.082.116-1.582,1.786-1.6,1.757l-.019-.034c-.163.5-.343,1.035-.551,1.614-.393,1.068-.847,2.271-1.43,3.547a38.713,38.713,0,0,1-2.074,4.028,28.549,28.549,0,0,1-2.937,4.131c-.013.015-.029.029-.042.044.461-.283,1.776-1.034,1.883-1.08,1.516-.651,4.827-1.018,6.042.374a2.186,2.186,0,0,1-.484,3.218,4.569,4.569,0,0,1-3.838.233,15.229,15.229,0,0,1-3.739-2.6,38.716,38.716,0,0,1-3.7,3.6c-.76.655-1.547,1.292-2.343,1.92.406-.233.771-.438.825-.461,1.516-.651,4.827-1.018,6.042.374a2.187,2.187,0,0,1-.484,3.217,4.57,4.57,0,0,1-3.838.233,14.5,14.5,0,0,1-3.642-2.513c-.308.237-.613.478-.922.715-1.483,1.135-2.967,2.262-4.389,3.411-.5.4-.98.822-1.461,1.237.361-.206.667-.377.716-.4,1.516-.651,4.827-1.019,6.042.374a2.186,2.186,0,0,1-.485,3.217,4.57,4.57,0,0,1-3.838.233,13.932,13.932,0,0,1-3.55-2.432c-.48.441-.96.881-1.405,1.329-.3.313-.6.594-.884.925l-.845.956c-.515.628-1.05,1.272-1.537,1.9-.342.432-.66.85-.982,1.27.494-.409,1.479-1.189,1.569-1.244,1.4-.874,4.617-1.738,6.028-.546a2.186,2.186,0,0,1,.009,3.253,4.569,4.569,0,0,1-3.759.812,15.019,15.019,0,0,1-4.068-1.989c-.529.7-1.038,1.38-1.507,2.032-1.633,2.256-2.907,4.2-3.779,5.567l-.088.14-1.13-.548.178-.269c.912-1.366,2.241-3.3,3.939-5.541.534-.71,1.121-1.458,1.729-2.22a23.746,23.746,0,0,1-1.754-2.172,16.016,16.016,0,0,1-4.349.529c-.057.873-.1,1.723-.137,2.526-.117,2.783-.108,5.105-.08,6.728,0,.067,0,.125,0,.189l-1.242-.6c.012-1.612.061-3.793.226-6.372.054-.887.13-1.834.217-2.805a15.041,15.041,0,0,1-4.216-1.656,4.57,4.57,0,0,1-1.941-3.32,2.186,2.186,0,0,1,2.4-2.192c1.833.235,3.369,3.191,3.67,4.813.018.1.095,1.155.133,1.825.038-.4.07-.782.114-1.19.081-.808.186-1.611.3-2.476l.205-1.26c.06-.422.176-.86.262-1.295.223-1,.5-2.01.8-3.018a14.339,14.339,0,0,1-4.286-.984,4.572,4.572,0,0,1-2.421-2.988,2.186,2.186,0,0,1,2.045-2.53c1.846-.045,3.813,2.644,4.357,4.2.034.1.3,1.258.431,1.9.184-.6.365-1.208.571-1.813.6-1.747,1.252-3.5,1.9-5.246.2-.536.39-1.072.584-1.608a15.18,15.18,0,0,1-4.44-1,4.571,4.571,0,0,1-2.421-2.988,2.187,2.187,0,0,1,2.045-2.531c1.847-.045,3.814,2.645,4.357,4.2.041.117.419,1.789.495,2.219.426-1.181.84-2.361,1.2-3.541a38.45,38.45,0,0,0,1.172-4.854,15.431,15.431,0,0,1-4.467-1A4.572,4.572,0,0,1,358,223.1a2.186,2.186,0,0,1,2.045-2.53c1.847-.045,3.814,2.644,4.357,4.2.036.1.325,1.375.449,1.984l.106,0a28.233,28.233,0,0,0,.279-5.014c-.019-.923-.089-1.8-.177-2.66a14.7,14.7,0,0,1-4.443-.508,4.569,4.569,0,0,1-2.735-2.7,2.186,2.186,0,0,1,1.754-2.74c1.83-.248,4.08,2.209,4.792,3.7.039.081.341.947.553,1.581-.045-.385-.085-.784-.135-1.153-.187-1.384-.444-2.641-.68-3.751-.14-.63-.278-1.2-.413-1.727a14.63,14.63,0,0,1-3.69-2.488,4.572,4.572,0,0,1-1.181-3.66A2.187,2.187,0,0,1,361.7,204Z" transform="translate(-351.414 -203.877)" fill="#fff"/>
            <path id="Path_10832" data-name="Path 10832" d="M422.529,249.034a15.678,15.678,0,0,1-4.333-1.54c-.03-.016,1.554-1.605,1.665-1.695,1.29-1.028,4.387-2.256,5.926-1.235a2.186,2.186,0,0,1,.382,3.231A4.569,4.569,0,0,1,422.529,249.034Z" transform="translate(-378.851 -220.436)" fill="#fff"/>
          </g>
        </g>
        <g id="Group_5849" data-name="Group 5849" transform="translate(0 44.519)">
          <g id="Group_5847" data-name="Group 5847">
            <path id="Path_10833" data-name="Path 10833" d="M357.362,299.67s-8.758-21.116-13.662-20.2,8.408,33.664,8.408,33.664-15.414-29.073-25.923-29.073,3.854,32.133,17.166,42.844c0,0-21.019-22.646-33.28-17.75s24.522,27.849,24.522,27.849-21.369-6.733-18.917-1.53,9.108,6.121,9.108,6.121l-24.171,1.224h84.075l-18.917-1.836s19.617-9.793,14.363-13.771-16.815,4.59-16.815,4.59,19.968-22.034,16.114-30.3-21.019,15-21.019,15,14.013-29.685,11.21-34.888S357.362,299.67,357.362,299.67Z" transform="translate(-300.612 -279.443)" fill="#fabb27"/>
            <path id="Path_10834" data-name="Path 10834" d="M357.362,299.67s-8.758-21.116-13.662-20.2,8.408,33.664,8.408,33.664-15.414-29.073-25.923-29.073,3.854,32.133,17.166,42.844c0,0-21.019-22.646-33.28-17.75s24.522,27.849,24.522,27.849-21.369-6.733-18.917-1.53,9.108,6.121,9.108,6.121l-24.171,1.224h84.075l-18.917-1.836s19.617-9.793,14.363-13.771-16.815,4.59-16.815,4.59,19.968-22.034,16.114-30.3-21.019,15-21.019,15,14.013-29.685,11.21-34.888S357.362,299.67,357.362,299.67Z" transform="translate(-300.612 -279.443)" fill="#fff" opacity="0.4"/>
          </g>
          <g id="Group_5848" data-name="Group 5848" transform="translate(23.12 13.633)">
            <path id="Path_10835" data-name="Path 10835" d="M396.322,315.665c-7.707,22.77-7.707,38.885-7.707,38.885s9.108.351,18.566-6.656" transform="translate(-359.889 -307.958)" fill="none" stroke="#0d1435" stroke-linecap="round" stroke-linejoin="round" stroke-width="1"/>
            <path id="Path_10836" data-name="Path 10836" d="M390.758,322.551a136.473,136.473,0,0,0-6.306-19.968" transform="translate(-358.179 -302.583)" fill="none" stroke="#0d1435" stroke-linecap="round" stroke-linejoin="round" stroke-width="1"/>
            <path id="Path_10837" data-name="Path 10837" d="M356.505,313.881l19.618,29.076s13.312-11.21,17.866-17.516" transform="translate(-346.696 -307.225)" fill="none" stroke="#0d1435" stroke-linecap="round" stroke-linejoin="round" stroke-width="1"/>
            <path id="Path_10838" data-name="Path 10838" d="M368.932,364.377s-20.668-9.809-29.076-15.414" transform="translate(-339.856 -321.639)" fill="none" stroke="#0d1435" stroke-linecap="round" stroke-linejoin="round" stroke-width="1"/>
          </g>
        </g>
      </g>
    </g>
    <g id="Device" transform="translate(156.097 100.704)">
      <g id="Group_5857" data-name="Group 5857">
        <rect id="Rectangle_3604" data-name="Rectangle 3604" width="72.274" height="163.793" rx="7.917" transform="translate(5.453)" fill="#fff" stroke="#0d1435" stroke-linecap="round" stroke-linejoin="round" stroke-width="1"/>
        <g id="Group_5851" data-name="Group 5851" transform="translate(74.351 13.878)">
          <path id="Path_10839" data-name="Path 10839" d="M360.872,147.353a.962.962,0,0,1-.962-.963V133.519a.962.962,0,1,1,1.924,0V146.39A.962.962,0,0,1,360.872,147.353Z" transform="translate(-359.91 -132.557)" fill="#0d1435"/>
        </g>
        <g id="Group_5852" data-name="Group 5852" transform="translate(74.351 31.481)">
          <path id="Path_10840" data-name="Path 10840" d="M360.872,171.553a.962.962,0,0,1-.962-.962V163.4a.962.962,0,0,1,1.924,0v7.193A.962.962,0,0,1,360.872,171.553Z" transform="translate(-359.91 -162.436)" fill="#0d1435"/>
        </g>
        <rect id="Rectangle_3605" data-name="Rectangle 3605" width="72.274" height="163.793" rx="7.917" fill="#0d1435" stroke="#0d1435" stroke-linecap="round" stroke-linejoin="round" stroke-width="1"/>
        <rect id="Rectangle_3606" data-name="Rectangle 3606" width="62.65" height="140.485" transform="translate(4.812 10.905)" fill="#fabb27"/>
        <line id="Line_142" data-name="Line 142" x2="16.679" transform="translate(26.835 6.415)" fill="none" stroke="#fff" stroke-linecap="round" stroke-linejoin="round" stroke-width="3"/>
        <path id="Path_10841" data-name="Path 10841" d="M289,372.952a1.659,1.659,0,1,1-1.6-2.084A1.892,1.892,0,0,1,289,372.952Z" transform="translate(-255.107 -216.591)" fill="#fff"/>
        <g id="Group_5853" data-name="Group 5853" transform="translate(25.272 20.528)">
          <ellipse id="Ellipse_561" data-name="Ellipse 561" cx="10.865" cy="12.669" rx="10.865" ry="12.669" fill="#fff"/>
          <ellipse id="Ellipse_562" data-name="Ellipse 562" cx="4.126" cy="4.811" rx="4.126" ry="4.811" transform="translate(6.739 2.887)" fill="#0d1435" stroke="#0d1435" stroke-linecap="round" stroke-linejoin="round" stroke-width="1"/>
          <path id="Path_10842" data-name="Path 10842" d="M289.82,167.253a7.286,7.286,0,0,0-7.5,7.057,6.674,6.674,0,0,0,.1,1.08,9.733,9.733,0,0,0,14.8,0,6.674,6.674,0,0,0,.1-1.08A7.287,7.287,0,0,0,289.82,167.253Z" transform="translate(-278.954 -153.461)" fill="#0d1435" stroke="#0d1435" stroke-linecap="round" stroke-linejoin="round" stroke-width="1"/>
        </g>
        <g id="Group_5855" data-name="Group 5855" transform="translate(17.798 52.281)">
          <g id="Group_5854" data-name="Group 5854" transform="translate(2.6)">
            <path id="Path_10843" data-name="Path 10843" d="M297.28,233.819H270.861a2.641,2.641,0,0,1-2.529-2.74V214.786c0-9.4,7.06-17.045,15.739-17.045s15.739,7.646,15.739,17.045V231.08A2.641,2.641,0,0,1,297.28,233.819Zm-23.889-5.479h21.36V214.786c0-6.377-4.791-11.566-10.68-11.566s-10.68,5.189-10.68,11.566Z" transform="translate(-268.332 -197.741)" fill="#0d1435"/>
          </g>
          <rect id="Rectangle_3607" data-name="Rectangle 3607" width="36.678" height="34.699" transform="translate(0 24.959)" fill="#fff"/>
          <path id="Path_10844" data-name="Path 10844" d="M296.915,270.086l-2.72-6.545a4.829,4.829,0,0,0,1.911-3.9,4.37,4.37,0,1,0-8.712,0,4.829,4.829,0,0,0,1.911,3.9l-2.72,6.545Z" transform="translate(-273.231 -221.233)" fill="#0d1435" stroke="#0d1435" stroke-linecap="round" stroke-linejoin="round" stroke-width="1"/>
        </g>
        <g id="Group_5856" data-name="Group 5856" transform="translate(4.812 20.005)">
          <path id="Path_10845" data-name="Path 10845" d="M275.992,311.246a.317.317,0,0,0,.19.062.321.321,0,0,0,.259-.131l42.048-57.2v-1.083L275.923,310.8A.321.321,0,0,0,275.992,311.246Z" transform="translate(-255.839 -188.124)" fill="#fff"/>
          <path id="Path_10846" data-name="Path 10846" d="M333.817,154.462a.321.321,0,0,0,.518.38l7.94-10.8v-1.084Z" transform="translate(-279.625 -142.956)" fill="#fff"/>
          <path id="Path_10847" data-name="Path 10847" d="M241.876,239.87l51.895-70.6a.321.321,0,1,0-.517-.38l-51.377,69.892Z" transform="translate(-241.876 -153.56)" fill="#fff"/>
          <path id="Path_10848" data-name="Path 10848" d="M267.572,360.538a.319.319,0,0,0,.259-.131l2.925-3.978a.321.321,0,1,0-.518-.38l-2.924,3.978a.32.32,0,0,0,.259.51Z" transform="translate(-252.302 -230.453)" fill="#fff"/>
          <path id="Path_10849" data-name="Path 10849" d="M324.1,274.17l-34.52,46.959a.321.321,0,0,0,.517.379l34-46.255Z" transform="translate(-261.45 -196.866)" fill="#fff"/>
        </g>
      </g>
    </g>
    <g id="Character" transform="translate(56.88 123.21)">
      <g id="Group_5866" data-name="Group 5866" transform="translate(0 0)">
        <g id="Group_5858" data-name="Group 5858">
          <path id="Path_10850" data-name="Path 10850" d="M110.73,156a9.366,9.366,0,0,0,.824-4.155c0-2.635-3.19-4.162-6.936-4.578s-5.41,1.11-4.855,2.081a9.137,9.137,0,0,0,2.081,2.081s-3.745-2.081-6.243-.417,1.11.971.417,2.636-4.578.971-5.549,5.41,1.8,8.878-.693,10.82-9.988-.693-12.207,4.162.919,7.006-4.353,10.058-9.1,6.033-7.578,13.524,6.52,10.126,16.369,7.49,9.156-8.6,12.346-14.7,8.184-4.855,9.71-8.323-.416-7.629-.277-10.82,3.329-3.884,4.578-7.629S110.73,156,110.73,156Z" transform="translate(-65.3 -147.201)" fill="#0d1435" stroke="#0d1435" stroke-linecap="round" stroke-linejoin="round" stroke-width="1"/>
          <path id="Path_10851" data-name="Path 10851" d="M67.555,232.6a3.689,3.689,0,0,0-.381,1.679" transform="translate(-66.07 -182.289)" fill="none" stroke="#fff" stroke-linecap="round" stroke-linejoin="round" stroke-width="0.5"/>
          <path id="Path_10852" data-name="Path 10852" d="M107.173,156.548s-1.736-2,1.6-1.069c4.2,1.176-.732,6.035-2.632,7.012-3.8,1.956-8.839,1.331-11.793,4.875-2.672,3.206.935,6.545-.668,9.082s-8.014,1.069-10.151,4.141,3.874,9.617-2.271,13.223c-4.443,2.609-9.307,3.61-11.658,5.682" transform="translate(-67.068 -150.5)" fill="none" stroke="#fff" stroke-linecap="round" stroke-linejoin="round" stroke-width="0.5"/>
          <path id="Path_10853" data-name="Path 10853" d="M100.48,177.593a4.848,4.848,0,0,0-.319,2.7c.534,2.271,3.606,6.545.8,8.948s-7.613,2.271-8.414,5.075.8,10.552-1.87,14.158-7.88,3.339-10.685,5.744-2.4,3.74-2.4,3.74" transform="translate(-70.341 -159.688)" fill="none" stroke="#fff" stroke-linecap="round" stroke-linejoin="round" stroke-width="0.5"/>
          <path id="Path_10854" data-name="Path 10854" d="M118.393,173.11a11.419,11.419,0,0,0-.675,1.065" transform="translate(-86.836 -157.846)" fill="none" stroke="#fff" stroke-linecap="round" stroke-linejoin="round" stroke-width="0.5"/>
        </g>
        <path id="Path_10855" data-name="Path 10855" d="M141.891,232.178l.681,5.311s3.541,3.541,6.128,5.719,9.26,6.809,9.26,6.809l-3.4.953s-11.031-6.537-13.21-7.081-3.813-3.677-4.494-4.63S140.12,231.224,141.891,232.178Z" transform="translate(-94.665 -182.078)" fill="#fff" stroke="#0d1435" stroke-linecap="round" stroke-linejoin="round" stroke-width="1"/>
        <g id="Group_5859" data-name="Group 5859" transform="translate(48.855 135.713)">
          <path id="Path_10856" data-name="Path 10856" d="M153.371,378.211s3.332,2.819,4.7,3.759,2.99,1.367,2.734,1.879-.94,1.025-4.186.6a11.486,11.486,0,0,1-4.784-1.709c-.6-.171-2.05.256-3.16-.427s.651-4.754.651-4.754A3.167,3.167,0,0,0,153.371,378.211Z" transform="translate(-148.258 -377.558)" fill="#fff" stroke="#0d1435" stroke-linecap="round" stroke-linejoin="round" stroke-width="1"/>
          <path id="Path_10857" data-name="Path 10857" d="M160.77,386.431a.224.224,0,0,0,.022-.08,15.179,15.179,0,0,1-5.569-.527c-2.1-.494-2.719-1.607-4.7-1.607a6.849,6.849,0,0,1-2.3-.376,1.2,1.2,0,0,0,.415,1.052c1.11.683,2.562.256,3.16.427a11.486,11.486,0,0,0,4.784,1.709C159.83,387.456,160.513,386.943,160.77,386.431Z" transform="translate(-148.225 -380.139)" fill="#fff" stroke="#0d1435" stroke-linecap="round" stroke-linejoin="round" stroke-width="1"/>
        </g>
        <g id="Group_5860" data-name="Group 5860" transform="translate(10.209 22.505)">
          <path id="Path_10858" data-name="Path 10858" d="M108.929,185.4s.644,4.323-.184,6.069-3.4,1.931-5.61,2.3-7.265,2.3-6.713,7.265,6.9,15.725,6.9,18.76-1.931,4.6-4.046,10.484-1.839,16.828-1.2,23.91a74.917,74.917,0,0,0,2.759,13.794S95.5,276.534,93.2,280.213s-10.576,19.68-10.576,19.68,0,.552,1.288.92a7.988,7.988,0,0,0,2.759.184s15.817-19.036,18.759-22.255,5.7-8.828,6.07-11.4-.092-18.3-.092-18.3a105.15,105.15,0,0,0,5.885,11.955,85.427,85.427,0,0,1,4.316,7.632,46.219,46.219,0,0,0,.006,10.024c.643,4.6.1,19.36.744,20.556s3.131.7,3.683.145.814-4.148.814-4.148,1.1-11.219,1.747-16.461,1.747-9.747,1.379-10.943-2.666-13.979-4.414-20.048-7.081-17.38-8.277-20.323-1.839-5.61-1.655-6.529,3.771-6.438,4.69-7.909a7.269,7.269,0,0,0,.184-6.529c-1.1-2.391,0-5.609-.184-7.54s-3.035-2.759-4.506-3.495a4.109,4.109,0,0,1-2.023-3.77,10.673,10.673,0,0,1,.828-3.311S110.124,185.4,108.929,185.4Z" transform="translate(-82.628 -185.401)" fill="#fff" stroke="#0d1435" stroke-linecap="round" stroke-linejoin="round" stroke-width="1"/>
          <path id="Path_10859" data-name="Path 10859" d="M145.346,216.153a30.675,30.675,0,0,1-1.2-3.775" transform="translate(-107.901 -196.485)" fill="none" stroke="#0d1435" stroke-linecap="round" stroke-linejoin="round" stroke-width="1"/>
          <path id="Path_10860" data-name="Path 10860" d="M125.916,235.264s1.665.369,4.994-1.295" transform="translate(-100.413 -205.356)" fill="none" stroke="#0d1435" stroke-linecap="round" stroke-linejoin="round" stroke-width="1"/>
        </g>
        <path id="Path_10861" data-name="Path 10861" d="M125.574,276.621c-1.67-5.8-6.613-16.384-8.091-19.879-7.087,2.653-13.681.386-16.783-1.072-.451.976-.933,2.106-1.426,3.479-2.115,5.885-1.839,16.829-1.2,23.91a74.916,74.916,0,0,0,2.759,13.794S95.5,305.4,93.2,309.083s-10.576,19.68-10.576,19.68,0,.552,1.288.92a7.987,7.987,0,0,0,2.759.184s15.817-19.036,18.759-22.255,5.7-8.828,6.07-11.4-.092-18.3-.092-18.3a105.194,105.194,0,0,0,5.886,11.955,85.425,85.425,0,0,1,4.316,7.632,46.219,46.219,0,0,0,.006,10.024c.643,4.6.1,19.36.744,20.556s3.131.7,3.683.145.814-4.148.814-4.148,1.1-11.219,1.747-16.461,1.747-9.747,1.379-10.943S127.321,282.69,125.574,276.621Z" transform="translate(-72.419 -191.766)" fill="#0d1435" stroke="#0d1435" stroke-linecap="round" stroke-linejoin="round" stroke-width="1"/>
        <g id="Group_5861" data-name="Group 5861" transform="translate(3.682 55.082)">
          <path id="Path_10862" data-name="Path 10862" d="M209.017,273.9v-1.2h1.011V263.26H198.065V272.7h1.011v1.2h-1.013v2.19h3.882v-.736h4.2v.736h3.882V273.9Z" transform="translate(-123.529 -249.966)" fill="#fabb27" stroke="#0d1435" stroke-linecap="round" stroke-linejoin="round" stroke-width="1"/>
          <path id="Rectangle_3608" data-name="Rectangle 3608" d="M0,0H68.645a1.784,1.784,0,0,1,1.784,1.784v.644a1.784,1.784,0,0,1-1.784,1.784H0a0,0,0,0,1,0,0V0A0,0,0,0,1,0,0Z" transform="translate(21.213 10.471)" fill="#fabb27" stroke="#0d1435" stroke-linecap="round" stroke-linejoin="round" stroke-width="1"/>
          <rect id="Rectangle_3609" data-name="Rectangle 3609" width="5.392" height="5.476" rx="0.987" transform="translate(66.204 9.84)" fill="#fabb27" stroke="#0d1435" stroke-linecap="round" stroke-linejoin="round" stroke-width="1"/>
          <circle id="Ellipse_563" data-name="Ellipse 563" cx="10.952" cy="10.952" r="10.952" transform="translate(0 21.616) rotate(-80.701)" fill="#fabb27" stroke="#0d1435" stroke-linecap="round" stroke-linejoin="round" stroke-width="1"/>
          <path id="Path_10863" data-name="Path 10863" d="M92.065,256.992a3.829,3.829,0,0,0,2.172-3.349,4.459,4.459,0,0,0-8.846,0,3.829,3.829,0,0,0,2.172,3.349,3.831,3.831,0,0,0-2.172,3.349,4.459,4.459,0,0,0,8.846,0A3.83,3.83,0,0,0,92.065,256.992Z" transform="translate(-77.237 -244.414)" fill="#fff" stroke="#0d1435" stroke-linecap="round" stroke-linejoin="round" stroke-width="1"/>
        </g>
        <g id="Group_5862" data-name="Group 5862" transform="translate(61.132 66.8)">
          <path id="Path_10864" data-name="Path 10864" d="M169.065,263.641a22.166,22.166,0,0,0,4.488,1.446,3.81,3.81,0,0,0,2.891-2.358c.609-1.293.609-1.9.229-1.6l-.761.609s.609-1.293-.076-1.141a1.846,1.846,0,0,0-1.065.913s-.076-1.141-.685-.609a7.035,7.035,0,0,0-1.065,1.217s-.076-1.446-.456-1.065-1.826,2.434-1.826,2.434Z" transform="translate(-169.065 -260.586)" fill="#fff" stroke="#0d1435" stroke-linecap="round" stroke-linejoin="round" stroke-width="1"/>
          <path id="Path_10865" data-name="Path 10865" d="M174.824,263.19s-.228,1.826-1.369,2.13" transform="translate(-170.869 -261.656)" fill="#fff" stroke="#0d1435" stroke-linecap="round" stroke-linejoin="round" stroke-width="1"/>
          <path id="Path_10866" data-name="Path 10866" d="M177.688,262.157s-.609,2.891-1.521,3.347" transform="translate(-171.983 -261.231)" fill="#fff" stroke="#0d1435" stroke-linecap="round" stroke-linejoin="round" stroke-width="1"/>
          <path id="Path_10867" data-name="Path 10867" d="M179.837,262.544a16.207,16.207,0,0,1-1.217,3.043" transform="translate(-172.991 -261.39)" fill="#fff" stroke="#0d1435" stroke-linecap="round" stroke-linejoin="round" stroke-width="1"/>
        </g>
        <path id="Path_10868" data-name="Path 10868" d="M132.977,195.307a4.182,4.182,0,0,1-1.833-3.653,10.673,10.673,0,0,1,.828-3.31s-4.506-2.943-5.7-2.943c0,0,.644,4.323-.184,6.069a2.778,2.778,0,0,1-1.252,1.248,35.064,35.064,0,0,0,4.386,8.255C130.9,203.043,131.713,198.664,132.977,195.307Z" transform="translate(-89.76 -162.896)" fill="#fff" stroke="#0d1435" stroke-linecap="round" stroke-linejoin="round" stroke-width="1"/>
        <g id="Group_5863" data-name="Group 5863" transform="translate(14.895 31.47)">
          <path id="Path_10869" data-name="Path 10869" d="M105,200.617a7.357,7.357,0,0,0-5.312,3.887c-1.813,3.5-9.74,19.38-9.065,20.331,3.852,5.42,17.869,9.318,19.294,10.744a32.4,32.4,0,0,0,4.67,4.037c1.425.907,4.275.518,4.794.259s.907-1.425,0-1.425a1.516,1.516,0,0,1-1.5-1.173c-.13-.518,1.425.518,2.2.13s-1.739-1.807-2.516-2.455-1.425-1.555-2.462-1.555-2.983-.022-2.983-.022-4.774-3.459-7.657-6.033A43.878,43.878,0,0,0,97.155,222l8.751-14.39" transform="translate(-90.582 -200.617)" fill="#fff" stroke="#0d1435" stroke-linecap="round" stroke-linejoin="round" stroke-width="1"/>
          <path id="Path_10870" data-name="Path 10870" d="M117.567,244.67c-.778-.647-1.425-1.555-2.462-1.555s-2.983-.022-2.983-.022-4.774-3.459-7.657-6.033a43.877,43.877,0,0,0-7.309-5.337l3.5-5.759a11.665,11.665,0,0,0-5.93-1.69c-2.331,4.913-4.468,9.767-4.1,10.28,3.852,5.42,17.869,9.318,19.294,10.744a32.4,32.4,0,0,0,4.67,4.037c1.425.907,4.275.518,4.794.259s.907-1.425,0-1.425a1.516,1.516,0,0,1-1.5-1.173c-.13-.518,1.425.518,2.2.13S118.344,245.318,117.567,244.67Z" transform="translate(-90.582 -210.337)" fill="#fff" stroke="#0d1435" stroke-linecap="round" stroke-linejoin="round" stroke-width="1"/>
        </g>
        <g id="Group_5864" data-name="Group 5864" transform="translate(32.75 8.803)">
          <path id="Path_10871" data-name="Path 10871" d="M134.764,169.5a4.417,4.417,0,0,1-.276-2.943c.184-1.288-.92-4.414-.92-4.414l-.017.013c-1.125,1.949-4.377,3.1-5.82,3.547-1.584.488.731,1.584.488,3.047s-3.413,2.315-3.413,2.315-.906-1.95-2.193-1.95-2.2,2.946-1.462,4.509a2.081,2.081,0,0,0,2.3,1.21s-.092,2.759,1.655,3.587a32.754,32.754,0,0,0,5.794,2.115c1.1.184,2.208-.368,2.667-2.023a37.766,37.766,0,0,0,.736-5.058,11.839,11.839,0,0,0,2.115-1.747C136.879,171.063,135.224,170.42,134.764,169.5Z" transform="translate(-120.889 -162.143)" fill="#fff" stroke="#0d1435" stroke-linecap="round" stroke-linejoin="round" stroke-width="1"/>
          <path id="Path_10872" data-name="Path 10872" d="M140.89,174.064c0,.5-.164.914-.365.914s-.366-.409-.366-.914.164-.914.366-.914S140.89,173.559,140.89,174.064Z" transform="translate(-128.806 -166.665)" fill="#0d1435"/>
          <path id="Path_10873" data-name="Path 10873" d="M138.711,171.5s.975-1.1,1.706-.853" transform="translate(-128.211 -165.621)" fill="none" stroke="#0d1435" stroke-linecap="round" stroke-linejoin="round" stroke-width="1"/>
          <path id="Path_10874" data-name="Path 10874" d="M139.822,184.516a2.648,2.648,0,0,1-2.559-.609" transform="translate(-127.616 -171.085)" fill="none" stroke="#0d1435" stroke-linecap="round" stroke-linejoin="round" stroke-width="1"/>
        </g>
        <g id="Group_5865" data-name="Group 5865" transform="translate(8.093 136.997)">
          <path id="Path_10875" data-name="Path 10875" d="M81.153,379.737s-2.2,4.41-2.113,5.008,4.442,3.759,6.492,4.869,5.724,1.281,5.467-.256-3.759-2.563-4.613-4.869A38.014,38.014,0,0,1,85.2,380.84,7.53,7.53,0,0,1,81.153,379.737Z" transform="translate(-79.037 -379.737)" fill="#fff" stroke="#0d1435" stroke-linecap="round" stroke-linejoin="round" stroke-width="1"/>
          <path id="Path_10876" data-name="Path 10876" d="M91,392.173a8.56,8.56,0,0,1-4.615-.67,27.7,27.7,0,0,1-7.063-4.969,3.087,3.087,0,0,0-.282,1c.085.6,4.442,3.759,6.492,4.869S91.211,393.684,91,392.173Z" transform="translate(-79.037 -382.53)" fill="#fff" stroke="#0d1435" stroke-linecap="round" stroke-linejoin="round" stroke-width="1"/>
        </g>
      </g>
    </g>
  </g>
</svg>
