<svg xmlns="http://www.w3.org/2000/svg" xmlns:xlink="http://www.w3.org/1999/xlink" width="181.215" height="186.841" viewBox="0 0 181.215 186.841">
  <defs>
    <clipPath id="clip-path">
      <rect id="Rectangle_3613" data-name="Rectangle 3613" width="78.514" height="153.22" rx="14.522" fill="#0d1435" stroke="#0d1435" stroke-linecap="round" stroke-linejoin="round" stroke-width="1"/>
    </clipPath>
    <clipPath id="clip-path-2">
      <path id="Path_10954" data-name="Path 10954" d="M282.037,153.266H198.424v24.8a31.617,31.617,0,1,0,29.38,50.236h54.233Z" transform="translate(-170.815 -153.266)" fill="none"/>
    </clipPath>
    <clipPath id="clip-path-3">
      <path id="Path_10909" data-name="Path 10909" d="M163.97,288.27s8.753-30.476,10.408-36.991,4.137-10.755,9.307-11.79,14.68-1.993,14.68-1.993a104.4,104.4,0,0,1,14.271-.414c6,.414,11.479,3.62,14.375,5.792s11.272,9.721,11.272,9.721L237.25,235.22l7.549.621s5.481,24.2,6.205,28.646.724,6.412,0,6.929.517.828-6.1-1.344-14.375-5.171-18.615-6.412-4.757-1.448-4.757-1.448-10.375,15.618-13.685,20.272a80.325,80.325,0,0,0-6.027,10.367" transform="translate(-163.97 -235.22)" fill="#fff" stroke="#0d1435" stroke-linecap="round" stroke-linejoin="round" stroke-width="1"/>
    </clipPath>
    <clipPath id="clip-path-4">
      <path id="Path_10918" data-name="Path 10918" d="M254.48,218.533s-1.758,5.378-3.206,7.239-2.068,2.172-2.585,6.515,1.758,14.168,2.482,13.961,7.86-11.582,10.238-13.444,4.861-3.827,4.861-3.827-5.792-1.758-7.756-4.24A55.692,55.692,0,0,1,254.48,218.533Z" transform="translate(-248.614 -218.533)" fill="#fff" stroke="#0d1435" stroke-linecap="round" stroke-linejoin="round" stroke-width="1"/>
    </clipPath>
    <clipPath id="clip-path-5">
      <path id="Path_10922" data-name="Path 10922" d="M281.388,178.037s-.31,6.929-.1,9.2,1.034,6.2-.828,9.928-3.413,6.1-5.171,6.722-7.446-.62-12-4.033-5.378-10.445-6.1-12.72.1-10.032,4.757-12.513a16.421,16.421,0,0,1,12.2-1.138C276.631,174.315,281.388,178.037,281.388,178.037Z" transform="translate(-256.959 -172.804)" fill="#fff" stroke="#0d1435" stroke-linecap="round" stroke-linejoin="round" stroke-width="1"/>
    </clipPath>
    <clipPath id="clip-path-6">
      <path id="Path_10933" data-name="Path 10933" d="M255.378,182.311s.931-4.033,3.206-5.481,4.447-1.138,3.1-3.1-2.068-3.93.827-4.86,8.584.62,11.893,1.861,9.721,1.655,11.376-3c1.022-2.875-1.967-5.161-4.162-6.338a12.161,12.161,0,0,0-7.865-1.458c-1.645.289-3.243.939-4.908,1.107-2.808.284-5.288-1.021-8.092-.342a11.128,11.128,0,0,0-6,3.722C252.172,167.626,251.448,173.417,255.378,182.311Z" transform="translate(-252.625 -159.773)" fill="#0d1435" stroke="#0d1435" stroke-linecap="round" stroke-linejoin="round" stroke-width="1"/>
    </clipPath>
    <clipPath id="clip-path-7">
      <path id="Path_10943" data-name="Path 10943" d="M205.718,252.851l7.59,23.7S230.752,266.4,234.834,261.1s6.446-11.277,7.877-11.837,6.544.837,7.292,1.642.57,1.741-.335,2.6a3.713,3.713,0,0,1-1.419.974s-.047,1.864-.451,2.187-.313-.094-.4.323a3.191,3.191,0,0,1-.479,1.256c-.3.423-.395.633-.7.745a9.424,9.424,0,0,1-1.845.573,24.771,24.771,0,0,1-3.4.62c-.72.125-5.407,9.372-9.792,14.885s-18.281,18.142-20.452,18.208S195.743,272.19,193,267" transform="translate(-192.999 -249.136)" fill="#fff" stroke="#0d1435" stroke-linecap="round" stroke-linejoin="round" stroke-width="1"/>
    </clipPath>
    <clipPath id="clip-path-8">
      <path id="Path_10948" data-name="Path 10948" d="M304,259.562a9.428,9.428,0,0,0,1.845-.573c.307-.113.4-.323.7-.745a3.19,3.19,0,0,0,.479-1.256c.091-.416.36-.558.764-.881s.091-1.628.091-1.628a3.714,3.714,0,0,0,1.419-.974c.905-.855,1.084-1.792.335-2.6s-5.861-2.2-7.292-1.642c-1.371.537-3.6,6.045-7.371,11.163l3.494,2.864c1.1-1.825,1.878-3.066,2.138-3.111A24.772,24.772,0,0,0,304,259.562Z" transform="translate(-294.97 -249.136)" fill="#fff" stroke="#0d1435" stroke-linecap="round" stroke-linejoin="round" stroke-width="1"/>
    </clipPath>
  </defs>
  <g id="Group_5933" data-name="Group 5933" transform="translate(-31.905 -27.536)">
    <g id="Background_Simple" data-name="Background Simple" transform="translate(33.238 27.808)">
      <g id="Group_5868" data-name="Group 5868" transform="translate(0 0)">
        <path id="Path_10878" data-name="Path 10878" d="M35.282,105.7s-3.446,33.229,21.09,60.762,62.485,36.769,93.095,45.059,56.731-4.449,63.922-30.188-15.357-38.244-24.052-70.931-6.2-42.358-30.776-66.32-68.522-21.1-95.085,6.174S35.282,105.7,35.282,105.7Z" transform="translate(-35.116 -27.808)" fill="#fff" stroke="#151c3a" stroke-width="0.5"/>
      </g>
    </g>
    <g id="Icons" transform="translate(31.905 28.945)">
      <g id="Group_5869" data-name="Group 5869" transform="translate(11.908 8.318)">
        <path id="Path_10879" data-name="Path 10879" d="M126.725,74.924l52.234,85.336,63.47-60.13" transform="translate(-99.261 -64.815)" fill="none" stroke="#0d1435" stroke-linecap="round" stroke-linejoin="round" stroke-width="1"/>
        <path id="Path_10880" data-name="Path 10880" d="M60.583,249.679l79.7-3.883-58-24.6" transform="translate(-60.583 -150.352)" fill="none" stroke="#0d1435" stroke-linecap="round" stroke-linejoin="round" stroke-width="1"/>
        <path id="Path_10881" data-name="Path 10881" d="M266.63,50.579l-11.857,97.455,72.738,14.431" transform="translate(-174.14 -50.579)" fill="none" stroke="#0d1435" stroke-linecap="round" stroke-linejoin="round" stroke-width="1"/>
        <path id="Path_10882" data-name="Path 10882" d="M115.754,341.176l56.789-60.737,58.915,44.642" transform="translate(-92.845 -184.994)" fill="none" stroke="#0d1435" stroke-linecap="round" stroke-linejoin="round" stroke-width="1"/>
      </g>
      <g id="Group_5873" data-name="Group 5873" transform="translate(0 96.852)">
        <g id="Group_5871" data-name="Group 5871" transform="translate(0 0)">
          <g id="Group_5870" data-name="Group 5870">
            <path id="Path_10883" data-name="Path 10883" d="M42.038,263.8a10.133,10.133,0,1,0,10.133,10.133A10.145,10.145,0,0,0,42.038,263.8Z" transform="translate(-31.905 -263.796)" fill="#0d1435"/>
          </g>
        </g>
        <g id="Group_5872" data-name="Group 5872" transform="translate(4.529 4.264)">
          <path id="Path_10884" data-name="Path 10884" d="M54.622,279.674a5.8,5.8,0,0,0-11.589-.106c0,.084-.005.168-.005.252a5.708,5.708,0,0,0,.831,2.973l-1.046,3.087,3.212-1.021a5.806,5.806,0,0,0,8.6-5.039C54.624,279.772,54.624,279.723,54.622,279.674Zm-5.8,4.984a4.855,4.855,0,0,1-2.682-.8l-1.873.6.608-1.8a4.788,4.788,0,0,1-.928-2.837,4.525,4.525,0,0,1,.024-.47,4.878,4.878,0,0,1,9.711.092c.011.125.016.25.016.377A4.862,4.862,0,0,1,48.825,284.658Z" transform="translate(-42.812 -274.065)" fill="#fff" fill-rule="evenodd"/>
          <path id="Path_10885" data-name="Path 10885" d="M55.968,285.387c-.144-.071-.842-.413-.972-.459s-.225-.071-.321.071-.369.459-.451.551-.166.105-.31.035a3.847,3.847,0,0,1-1.143-.7,4.232,4.232,0,0,1-.79-.975c-.081-.141-.008-.217.063-.288s.141-.165.214-.247l.051-.068a1.584,1.584,0,0,0,.09-.168.254.254,0,0,0-.011-.247c-.035-.071-.32-.766-.44-1.048s-.236-.234-.321-.234-.176-.013-.272-.013a.526.526,0,0,0-.38.176,1.58,1.58,0,0,0-.5,1.178,1.8,1.8,0,0,0,.073.48,3.21,3.21,0,0,0,.508.977,5.837,5.837,0,0,0,2.427,2.131c1.447.562,1.447.375,1.707.35a1.417,1.417,0,0,0,.958-.671,1.166,1.166,0,0,0,.084-.67C56.2,285.493,56.11,285.457,55.968,285.387Z" transform="translate(-47.297 -278.469)" fill="#fff" fill-rule="evenodd"/>
        </g>
      </g>
      <g id="Group_5877" data-name="Group 5877" transform="translate(26.859 6.684)">
        <g id="Group_5875" data-name="Group 5875">
          <g id="Group_5874" data-name="Group 5874">
            <path id="Path_10886" data-name="Path 10886" d="M106.723,46.644a10.133,10.133,0,1,0,0,20.267h0a10.133,10.133,0,0,0,0-20.267Z" transform="translate(-96.589 -46.644)" fill="#0d1435"/>
          </g>
        </g>
        <g id="Group_5876" data-name="Group 5876" transform="translate(3.421 5.404)">
          <path id="Path_10887" data-name="Path 10887" d="M117.972,61.135a1.686,1.686,0,0,0-1.187-1.195,48.789,48.789,0,0,0-10.49,0,1.686,1.686,0,0,0-1.187,1.195,19.009,19.009,0,0,0,0,6.5,1.687,1.687,0,0,0,1.187,1.195,48.86,48.86,0,0,0,10.49,0,1.687,1.687,0,0,0,1.187-1.195,18.982,18.982,0,0,0,0-6.5Z" transform="translate(-104.828 -59.658)" fill="#fff"/>
          <path id="Path_10888" data-name="Path 10888" d="M117.687,70.233V66.241l3.509,2Z" transform="translate(-112.348 -63.507)" fill="#0d1435"/>
        </g>
      </g>
      <g id="Group_5880" data-name="Group 5880" transform="translate(22.264 151.734)">
        <g id="Group_5879" data-name="Group 5879">
          <g id="Group_5878" data-name="Group 5878">
            <path id="Path_10889" data-name="Path 10889" d="M98.812,395.968A13.288,13.288,0,1,0,112.1,409.255,13.3,13.3,0,0,0,98.812,395.968Z" transform="translate(-85.524 -395.968)" fill="#0d1435"/>
          </g>
        </g>
        <path id="Path_10890" data-name="Path 10890" d="M109.621,424.483h3.437v-8.607h2.4l.256-2.882h-2.654v-1.641c0-.679.137-.948.794-.948h1.86v-2.991h-2.38c-2.557,0-3.71,1.127-3.71,3.282v2.3h-1.788v2.918h1.788Z" transform="translate(-98.57 -402.661)" fill="#fff"/>
      </g>
      <g id="Group_5884" data-name="Group 5884" transform="translate(140.742 138.506)">
        <g id="Group_5882" data-name="Group 5882">
          <g id="Group_5881" data-name="Group 5881">
            <path id="Path_10891" data-name="Path 10891" d="M380.99,364.11a10.133,10.133,0,1,0,10.133,10.133A10.145,10.145,0,0,0,380.99,364.11Z" transform="translate(-370.856 -364.11)" fill="#0d1435"/>
          </g>
        </g>
        <g id="Group_5883" data-name="Group 5883" transform="translate(4.23 4.23)">
          <path id="Path_10892" data-name="Path 10892" d="M386.946,375.36c1.577,0,1.763.006,2.386.034a3.272,3.272,0,0,1,1.1.2,1.956,1.956,0,0,1,1.121,1.121,3.271,3.271,0,0,1,.2,1.1c.028.622.034.809.034,2.386s-.006,1.763-.034,2.385a3.27,3.27,0,0,1-.2,1.1,1.956,1.956,0,0,1-1.121,1.121,3.261,3.261,0,0,1-1.1.2c-.622.029-.809.034-2.386.034s-1.763-.006-2.385-.034a3.262,3.262,0,0,1-1.1-.2,1.956,1.956,0,0,1-1.121-1.121,3.27,3.27,0,0,1-.2-1.1c-.029-.622-.034-.809-.034-2.385s.006-1.763.034-2.386a3.271,3.271,0,0,1,.2-1.1,1.956,1.956,0,0,1,1.121-1.121,3.273,3.273,0,0,1,1.1-.2c.622-.029.809-.034,2.385-.034m0-1.064c-1.6,0-1.8.007-2.434.035a4.347,4.347,0,0,0-1.433.274,3.016,3.016,0,0,0-1.727,1.727,4.316,4.316,0,0,0-.274,1.433c-.029.63-.036.831-.036,2.434s.007,1.8.036,2.434a4.316,4.316,0,0,0,.274,1.433,3.016,3.016,0,0,0,1.727,1.727,4.347,4.347,0,0,0,1.433.274c.63.029.831.035,2.434.035s1.8-.007,2.435-.035a4.347,4.347,0,0,0,1.433-.274,3.018,3.018,0,0,0,1.727-1.727,4.347,4.347,0,0,0,.275-1.433c.029-.63.035-.831.035-2.434s-.007-1.8-.035-2.434a4.347,4.347,0,0,0-.275-1.433,3.018,3.018,0,0,0-1.727-1.727,4.347,4.347,0,0,0-1.433-.274c-.63-.029-.831-.035-2.435-.035" transform="translate(-381.042 -374.296)" fill="#fff"/>
          <path id="Path_10893" data-name="Path 10893" d="M390.991,381.213a3.032,3.032,0,1,0,3.032,3.032,3.032,3.032,0,0,0-3.032-3.032m0,5a1.968,1.968,0,1,1,1.968-1.968,1.968,1.968,0,0,1-1.968,1.968" transform="translate(-385.087 -378.341)" fill="#fff"/>
          <path id="Path_10894" data-name="Path 10894" d="M402.561,379.926a.709.709,0,1,1-.708-.708.709.709,0,0,1,.708.708" transform="translate(-392.797 -377.174)" fill="#fff"/>
        </g>
      </g>
      <g id="Group_5887" data-name="Group 5887" transform="translate(139.226 27.051)">
        <g id="Group_5886" data-name="Group 5886">
          <g id="Group_5885" data-name="Group 5885">
            <path id="Path_10895" data-name="Path 10895" d="M382.557,126.4h0A15.353,15.353,0,0,1,367.2,111.046h0a15.353,15.353,0,0,1,15.353-15.353h0a15.353,15.353,0,0,1,15.353,15.353h0A15.353,15.353,0,0,1,382.557,126.4Z" transform="translate(-367.204 -95.693)" fill="#0d1435" stroke="#0d1435" stroke-linecap="round" stroke-linejoin="round" stroke-width="1"/>
          </g>
        </g>
        <path id="Path_10896" data-name="Path 10896" d="M384.478,128.446a9.546,9.546,0,0,0,14.685-8.476,6.809,6.809,0,0,0,1.675-1.738,6.713,6.713,0,0,1-1.928.529,3.362,3.362,0,0,0,1.475-1.857,6.723,6.723,0,0,1-2.131.815,3.359,3.359,0,0,0-5.72,3.061,9.523,9.523,0,0,1-6.918-3.507,3.361,3.361,0,0,0,1.039,4.482,3.349,3.349,0,0,1-1.521-.42,3.361,3.361,0,0,0,2.692,3.334,3.359,3.359,0,0,1-1.515.057,3.359,3.359,0,0,0,3.135,2.331A6.748,6.748,0,0,1,384.478,128.446Z" transform="translate(-377.305 -107.953)" fill="#fff"/>
      </g>
      <g id="Group_5893" data-name="Group 5893" transform="translate(26.148 70.665)">
        <g id="Group_5890" data-name="Group 5890">
          <g id="Group_5889" data-name="Group 5889">
            <g id="Group_5888" data-name="Group 5888">
              <path id="Path_10897" data-name="Path 10897" d="M102.88,200.728a8,8,0,1,0,8,8A8.011,8.011,0,0,0,102.88,200.728Z" transform="translate(-94.878 -200.728)" fill="gray"/>
            </g>
          </g>
        </g>
        <g id="Group_5892" data-name="Group 5892" transform="translate(3.74 3.064)">
          <g id="Group_5891" data-name="Group 5891">
            <rect id="Rectangle_3610" data-name="Rectangle 3610" width="1.76" height="5.685" transform="translate(0.169 2.843)" fill="#fff"/>
            <path id="Path_10898" data-name="Path 10898" d="M104.926,210.2a1.049,1.049,0,1,0-1.041-1.049A1.045,1.045,0,0,0,104.926,210.2Z" transform="translate(-103.885 -208.106)" fill="#fff"/>
          </g>
          <path id="Path_10899" data-name="Path 10899" d="M112.928,217.409c0-.8.368-1.276,1.072-1.276.647,0,.958.457.958,1.276v2.984h1.751v-3.6a2.062,2.062,0,0,0-3.782-1.32v-.766H111.24v5.685h1.688Z" transform="translate(-108.186 -211.865)" fill="#fff"/>
        </g>
      </g>
      <g id="Group_5897" data-name="Group 5897" transform="translate(156.544 110.752)">
        <g id="Group_5894" data-name="Group 5894" transform="translate(0 0)">
          <path id="Path_10900" data-name="Path 10900" d="M417.229,313.906h0a8.318,8.318,0,0,1-8.318-8.318h0a8.318,8.318,0,0,1,8.318-8.318h0a8.318,8.318,0,0,1,8.318,8.318h0A8.318,8.318,0,0,1,417.229,313.906Z" transform="translate(-408.911 -297.27)" fill="gray"/>
        </g>
        <g id="Group_5896" data-name="Group 5896" transform="translate(3.629 5.736)">
          <path id="Path_10901" data-name="Path 10901" d="M421.1,316.831a1.6,1.6,0,0,0,.658-.292,1.625,1.625,0,0,0,.413-.458,1.707,1.707,0,0,0,.259-.929,1.546,1.546,0,0,0-.227-.853,1.3,1.3,0,0,0-.673-.514,1.392,1.392,0,0,0,.444-.332,1.3,1.3,0,0,0,.27-.857,1.481,1.481,0,0,0-.267-.889,1.787,1.787,0,0,0-1.509-.62H417.65v5.824h2.625A4.03,4.03,0,0,0,421.1,316.831Zm-2.286-4.734h1.267a2.178,2.178,0,0,1,.688.091.521.521,0,0,1,.313.537.55.55,0,0,1-.237.512,1.169,1.169,0,0,1-.616.144h-1.416Zm0,3.8v-1.553h1.433a1.473,1.473,0,0,1,.583.1.626.626,0,0,1,.371.624.734.734,0,0,1-.383.727,1.372,1.372,0,0,1-.59.1Z" transform="translate(-417.65 -311.085)" fill="#fff"/>
          <g id="Group_5895" data-name="Group 5895" transform="translate(5.107 0.335)">
            <path id="Path_10902" data-name="Path 10902" d="M430.606,318.5a2.347,2.347,0,0,0,1.517.53,2.091,2.091,0,0,0,1.62-.628,1.407,1.407,0,0,0,.418-.779h-1.15a.941.941,0,0,1-.232.3.953.953,0,0,1-.625.2,1.143,1.143,0,0,1-.621-.162,1.033,1.033,0,0,1-.451-.909h3.137a5.477,5.477,0,0,0-.037-.855,2.116,2.116,0,0,0-.343-.89,1.746,1.746,0,0,0-.745-.637,2.45,2.45,0,0,0-1.013-.2,2.076,2.076,0,0,0-1.54.6,2.33,2.33,0,0,0-.593,1.716A2.088,2.088,0,0,0,430.606,318.5Zm.8-2.863a.9.9,0,0,1,.672-.246.99.99,0,0,1,.669.232.941.941,0,0,1,.3.681h-1.94A1.175,1.175,0,0,1,431.411,315.638Z" transform="translate(-429.949 -313.396)" fill="#fff"/>
            <rect id="Rectangle_3611" data-name="Rectangle 3611" width="2.531" height="0.588" transform="translate(0.794)" fill="#fff"/>
          </g>
        </g>
      </g>
      <g id="Group_5899" data-name="Group 5899" transform="translate(96.08)">
        <g id="Group_5898" data-name="Group 5898">
          <path id="Path_10903" data-name="Path 10903" d="M271.613,47.183h0a8.318,8.318,0,0,1-8.318-8.318h0a8.318,8.318,0,0,1,8.318-8.318h0a8.318,8.318,0,0,1,8.318,8.318h0A8.318,8.318,0,0,1,271.613,47.183Z" transform="translate(-263.295 -30.546)" fill="gray"/>
        </g>
        <path id="Path_10904" data-name="Path 10904" d="M281.222,46.6v0l-.009-.007h0a1.216,1.216,0,0,0-.312-.113s0,0,0,0a2.679,2.679,0,0,1-1.281-.933,2.949,2.949,0,0,1-.439-.767v0a.373.373,0,0,1,.016-.328,0,0,0,0,0,0,0,.912.912,0,0,1,.441-.28h0a1.717,1.717,0,0,0,.6-.308s0,0,0,0a.359.359,0,0,0,.086-.111.162.162,0,0,0,.014-.041.22.22,0,0,0-.011-.156v0a.481.481,0,0,0-.208-.2h0a.43.43,0,0,0-.357-.032h0a2.306,2.306,0,0,1-.316.093.009.009,0,0,0-.007,0,.734.734,0,0,1-.359-.009c0-.014,0-.043-.007-.079h0c-.009-.217.011-.441.014-.674v0a6.178,6.178,0,0,0-.027-1.08v0a2.42,2.42,0,0,0-1.012-1.5,2.546,2.546,0,0,0-1.239-.441h0c-.152-.013-.3-.018-.446-.018a2.772,2.772,0,0,0-1.693.538,2.735,2.735,0,0,0-.825,1.076v0a3.041,3.041,0,0,0-.133,1.313h0a6.254,6.254,0,0,1,.02.863.154.154,0,0,1,0,.018,1.178,1.178,0,0,1-.425-.011h0a3.343,3.343,0,0,1-.326-.091.008.008,0,0,1-.007,0,.389.389,0,0,0-.316.073s0,0,0,0,0,0,0,0a.322.322,0,0,0-.174.26.083.083,0,0,0,0,.025s0,0,0,0a.3.3,0,0,0,.108.176c.045.038.086.063.111.083,0,0,0,0,.007,0a3.171,3.171,0,0,0,.666.289h0a.479.479,0,0,1,.3.285.815.815,0,0,1-.118.511v0a3.148,3.148,0,0,1-1.013,1.159,2.429,2.429,0,0,1-.744.339l-.011,0a.423.423,0,0,0-.264.154c0,.009-.009.018-.014.029a.226.226,0,0,0,.043.208.351.351,0,0,0,.113.088l.007,0a2.6,2.6,0,0,0,.687.24,0,0,0,0,1,0,0,2.373,2.373,0,0,1,.429.107c0,.009.018.049.045.117.041.122.059.264.1.416a.129.129,0,0,0,.093.084.247.247,0,0,0,.165-.014h.013a2.682,2.682,0,0,1,1.085-.039h0a4.309,4.309,0,0,1,1.02.551v0h0a1.665,1.665,0,0,0,.813.3h0a5.748,5.748,0,0,0,.689-.015h0a1.265,1.265,0,0,0,.542-.186s0,0,.007,0c.368-.211.694-.461,1.053-.62h0a1.741,1.741,0,0,1,.423-.05h0a5.556,5.556,0,0,1,.891.045.058.058,0,0,0,.029,0,.168.168,0,0,0,.1-.056.131.131,0,0,0,.032-.064c.009-.029.016-.043,0-.018a.109.109,0,0,0,.011-.025,1.219,1.219,0,0,1,.172-.438.26.26,0,0,1,.183-.056h.016a3.206,3.206,0,0,0,.708-.2.014.014,0,0,1,.009,0,.624.624,0,0,0,.287-.192v0h0a.2.2,0,0,0-.061-.289Z" transform="translate(-268.083 -35.838)" fill="#fff" fill-rule="evenodd"/>
      </g>
    </g>
    <g id="Device" transform="translate(83.074 51.799)">
      <g id="Group_5906" data-name="Group 5906" transform="translate(0)">
        <g id="Group_5901" data-name="Group 5901">
          <rect id="Rectangle_3612" data-name="Rectangle 3612" width="78.514" height="153.22" rx="14.522" fill="#0d1435"/>
          <g id="Group_5900" data-name="Group 5900" clip-path="url(#clip-path)">
            <path id="Path_10905" data-name="Path 10905" d="M161.9,85.586a6.768,6.768,0,0,0-6.768,6.768V232.038a6.751,6.751,0,0,0,2.428,5.19L203.368,85.586Z" transform="translate(-155.135 -85.586)" fill="#fff" opacity="0.2"/>
            <path id="Path_10906" data-name="Path 10906" d="M248.589,440.158a2.668,2.668,0,1,0-2.668,2.668A2.668,2.668,0,0,0,248.589,440.158Z" transform="translate(-206.664 -291.369)" fill="none" stroke="#fff" stroke-linecap="round" stroke-linejoin="round" stroke-width="1"/>
          </g>
          <rect id="Rectangle_3614" data-name="Rectangle 3614" width="78.514" height="153.22" rx="14.522" fill="none" stroke="#0d1435" stroke-linecap="round" stroke-linejoin="round" stroke-width="1"/>
        </g>
        <rect id="Rectangle_3615" data-name="Rectangle 3615" width="71.531" height="133.72" transform="translate(3.492 10.405)" fill="#fabb27" stroke="#0d1435" stroke-linecap="round" stroke-linejoin="round" stroke-width="1"/>
        <circle id="Ellipse_564" data-name="Ellipse 564" cx="32.8" cy="32.8" r="32.8" transform="translate(5.331 51.464)" fill="#0d1435"/>
        <rect id="Rectangle_3616" data-name="Rectangle 3616" width="66.871" height="15.228" transform="translate(5.965 26.456)" fill="#fff"/>
        <rect id="Rectangle_3617" data-name="Rectangle 3617" width="66.871" height="15.228" transform="translate(5.965 126.431)" fill="#fff"/>
        <rect id="Rectangle_3618" data-name="Rectangle 3618" width="66.871" height="0.662" transform="translate(5.965 121.134)" fill="#fff"/>
        <rect id="Rectangle_3619" data-name="Rectangle 3619" width="66.871" height="0.662" transform="translate(5.965 124.114)" fill="#fff"/>
        <g id="Group_5904" data-name="Group 5904" transform="translate(5.102 11.373)">
          <g id="Group_5902" data-name="Group 5902" transform="translate(61.556 0.419)">
            <rect id="Rectangle_3620" data-name="Rectangle 3620" width="5.931" height="3.252" fill="none" stroke="#0d1435" stroke-linecap="round" stroke-linejoin="round" stroke-width="0.821"/>
            <rect id="Rectangle_3621" data-name="Rectangle 3621" width="4.625" height="3.252" fill="#0d1435" stroke="#0d1435" stroke-linecap="round" stroke-linejoin="round" stroke-width="0.725"/>
            <rect id="Rectangle_3622" data-name="Rectangle 3622" width="0.836" height="1.432" transform="translate(5.918 0.91)" fill="#0d1435" stroke="#0d1435" stroke-linecap="round" stroke-linejoin="round" stroke-width="0.725"/>
          </g>
          <g id="Group_5903" data-name="Group 5903">
            <rect id="Rectangle_3623" data-name="Rectangle 3623" width="1.087" height="1.864" transform="translate(0 1.428)" fill="#0d1435" stroke="#0d1435" stroke-linecap="round" stroke-linejoin="round" stroke-width="0.883"/>
            <rect id="Rectangle_3624" data-name="Rectangle 3624" width="1.087" height="2.519" transform="translate(1.709 0.773)" fill="#0d1435" stroke="#0d1435" stroke-linecap="round" stroke-linejoin="round" stroke-width="0.883"/>
            <rect id="Rectangle_3625" data-name="Rectangle 3625" width="1.087" height="3.292" transform="translate(3.418)" fill="#0d1435" stroke="#0d1435" stroke-linecap="round" stroke-linejoin="round" stroke-width="0.883"/>
          </g>
        </g>
        <g id="Group_5905" data-name="Group 5905" transform="translate(4.645 16.854)">
          <rect id="Rectangle_3626" data-name="Rectangle 3626" width="68.689" height="5.163" fill="#0d1435"/>
        </g>
      </g>
    </g>
    <g id="Character" transform="translate(89.584 79.902)">
      <g id="Group_5932" data-name="Group 5932" transform="translate(0 0)">
        <g id="Group_5931" data-name="Group 5931" clip-path="url(#clip-path-2)">
          <g id="Group_5929" data-name="Group 5929" transform="translate(-2.842 2.702)">
            <g id="Group_5909" data-name="Group 5909" transform="translate(0 31.328)">
              <g id="Group_5908" data-name="Group 5908">
                <path id="Path_10907" data-name="Path 10907" d="M163.97,288.27s8.753-30.476,10.408-36.991,4.137-10.755,9.307-11.79,14.68-1.993,14.68-1.993a104.4,104.4,0,0,1,14.271-.414c6,.414,11.479,3.62,14.375,5.792s11.272,9.721,11.272,9.721L237.25,235.22l7.549.621s5.481,24.2,6.205,28.646.724,6.412,0,6.929.517.828-6.1-1.344-14.375-5.171-18.615-6.412-4.757-1.448-4.757-1.448-10.375,15.618-13.685,20.272a80.325,80.325,0,0,0-6.027,10.367" transform="translate(-163.97 -235.22)" fill="#fff"/>
                <g id="Group_5907" data-name="Group 5907" clip-path="url(#clip-path-3)">
                  <path id="Path_10908" data-name="Path 10908" d="M261.168,280.659c.724-.517.724-2.482,0-6.929-.432-2.653-2.557-12.336-4.2-19.717.655,8.707.9,17.241-.436,18.832-2.9,3.438-7.153-1.08-7.153-1.08l-.81-6.7s-14.477-10.677-19.905-12.486a26.754,26.754,0,0,0-16.829-.362c-5.61,1.81-10.315,3.62-13.753,7.058S182.7,290.218,182.7,290.218l-1.349,8.168,30.632,3.707a80.325,80.325,0,0,1,6.027-10.367c3.309-4.653,13.685-20.272,13.685-20.272s.517.207,4.757,1.448,12,4.24,18.615,6.412S260.444,281.177,261.168,280.659Z" transform="translate(-174.134 -244.463)" opacity="0.2"/>
                </g>
                <path id="Path_10910" data-name="Path 10910" d="M163.97,288.27s8.753-30.476,10.408-36.991,4.137-10.755,9.307-11.79,14.68-1.993,14.68-1.993a104.4,104.4,0,0,1,14.271-.414c6,.414,11.479,3.62,14.375,5.792s11.272,9.721,11.272,9.721L237.25,235.22l7.549.621s5.481,24.2,6.205,28.646.724,6.412,0,6.929.517.828-6.1-1.344-14.375-5.171-18.615-6.412-4.757-1.448-4.757-1.448-10.375,15.618-13.685,20.272a80.325,80.325,0,0,0-6.027,10.367" transform="translate(-163.97 -235.22)" fill="none" stroke="#0d1435" stroke-linecap="round" stroke-linejoin="round" stroke-width="1"/>
              </g>
              <path id="Path_10911" data-name="Path 10911" d="M305.542,288.666l-2.95,4.8,8.736-4.8" transform="translate(-245.032 -266.473)" fill="none" stroke="#0d1435" stroke-linecap="round" stroke-linejoin="round" stroke-width="1"/>
              <path id="Path_10912" data-name="Path 10912" d="M342.94,277.062s.414,8.584.931,9.928,2.792,1.965,2.792,1.965" transform="translate(-268.626 -259.688)" fill="#fff" stroke="#0d1435" stroke-linecap="round" stroke-linejoin="round" stroke-width="1"/>
            </g>
            <g id="Group_5910" data-name="Group 5910" transform="translate(27.485 30.19)">
              <path id="Path_10913" data-name="Path 10913" d="M232.174,257.51s-1.129,2.679-.564,2.679,4.231-1.41,5.924-1.41,3.526,2.962,3.526,2.962,4.937-3.667,6.488-3.244a5.724,5.724,0,0,1,2.05,1.214.69.69,0,0,0,1.14-.5c.029-.758.055-1.8.055-3.115,0-3.1-2.68-11.566-7.617-11.989s-5.783,3.1-7.9,7.335S232.174,257.51,232.174,257.51Z" transform="translate(-230.916 -239.261)" fill="#0d1435"/>
              <path id="Path_10914" data-name="Path 10914" d="M242.036,232.481s-4.757.62-6.929,2.689-1.448,5.378-2.585,8.377-3.1,9.1-2.069,9,4.654-3,5.688-2.275,3.413,3.723,3.826,3.93,5.688-3.62,6.412-4.033,4.24,4.137,4.343,2.9a75.594,75.594,0,0,0-.414-13.031C249.585,235.584,244.414,232.584,242.036,232.481Z" transform="translate(-230.162 -232.481)" fill="#fff" stroke="#0d1435" stroke-linecap="round" stroke-linejoin="round" stroke-width="1"/>
            </g>
            <g id="Group_5918" data-name="Group 5918" transform="translate(35.146)">
              <g id="Group_5912" data-name="Group 5912" transform="translate(0 24.399)">
                <path id="Path_10915" data-name="Path 10915" d="M254.48,218.533s-1.758,5.378-3.206,7.239-2.068,2.172-2.585,6.515,1.758,14.168,2.482,13.961,7.86-11.582,10.238-13.444,4.861-3.827,4.861-3.827-5.792-1.758-7.756-4.24A55.692,55.692,0,0,1,254.48,218.533Z" transform="translate(-248.614 -218.533)" fill="#fff"/>
                <g id="Group_5911" data-name="Group 5911" clip-path="url(#clip-path-4)">
                  <path id="Path_10916" data-name="Path 10916" d="M267.736,232c2.014-1.581,3.831-3.02,3.831-3.02s-5.792-1.758-7.756-4.24a55.692,55.692,0,0,1-4.033-6.205,51.65,51.65,0,0,1-2.106,5.346C258.546,226.349,260.989,230.353,267.736,232Z" transform="translate(-253.911 -218.533)" opacity="0.2"/>
                  <path id="Path_10917" data-name="Path 10917" d="M264.848,224.738a55.7,55.7,0,0,1-4.033-6.205s-.591,1.806-1.369,3.687a12.936,12.936,0,0,0,4.249,6.274,19.3,19.3,0,0,0,6.13,2.677c1.553-1.222,2.779-2.193,2.779-2.193S266.813,227.22,264.848,224.738Z" transform="translate(-254.948 -218.533)" fill="#0d1435"/>
                </g>
                <path id="Path_10919" data-name="Path 10919" d="M254.48,218.533s-1.758,5.378-3.206,7.239-2.068,2.172-2.585,6.515,1.758,14.168,2.482,13.961,7.86-11.582,10.238-13.444,4.861-3.827,4.861-3.827-5.792-1.758-7.756-4.24A55.692,55.692,0,0,1,254.48,218.533Z" transform="translate(-248.614 -218.533)" fill="none" stroke="#0d1435" stroke-linecap="round" stroke-linejoin="round" stroke-width="1"/>
              </g>
              <g id="Group_5915" data-name="Group 5915" transform="translate(3.465 5.411)">
                <g id="Group_5914" data-name="Group 5914">
                  <path id="Path_10920" data-name="Path 10920" d="M281.388,178.037s-.31,6.929-.1,9.2,1.034,6.2-.828,9.928-3.413,6.1-5.171,6.722-7.446-.62-12-4.033-5.378-10.445-6.1-12.72.1-10.032,4.757-12.513a16.421,16.421,0,0,1,12.2-1.138C276.631,174.315,281.388,178.037,281.388,178.037Z" transform="translate(-256.959 -172.804)" fill="#fff"/>
                  <g id="Group_5913" data-name="Group 5913" clip-path="url(#clip-path-5)">
                    <path id="Path_10921" data-name="Path 10921" d="M266.459,174.625A7.021,7.021,0,0,0,264.677,176l2.4,1.7s3.076-3.076,9.953,1.267a14.084,14.084,0,0,0,8.755,2.426c.051-1.844.119-3.357.119-3.357s-4.757-3.723-7.239-4.55A16.421,16.421,0,0,0,266.459,174.625Z" transform="translate(-261.472 -172.804)" opacity="0.2"/>
                  </g>
                  <path id="Path_10923" data-name="Path 10923" d="M281.388,178.037s-.31,6.929-.1,9.2,1.034,6.2-.828,9.928-3.413,6.1-5.171,6.722-7.446-.62-12-4.033-5.378-10.445-6.1-12.72.1-10.032,4.757-12.513a16.421,16.421,0,0,1,12.2-1.138C276.631,174.315,281.388,178.037,281.388,178.037Z" transform="translate(-256.959 -172.804)" fill="none" stroke="#0d1435" stroke-linecap="round" stroke-linejoin="round" stroke-width="1"/>
                </g>
                <path id="Path_10924" data-name="Path 10924" d="M290.469,206.033c0,.738-.286,1.337-.639,1.337s-.639-.6-.639-1.337.286-1.337.639-1.337S290.469,205.294,290.469,206.033Z" transform="translate(-275.807 -191.453)" fill="#0d1435"/>
                <path id="Path_10925" data-name="Path 10925" d="M308.662,207.713c0,.738-.286,1.337-.639,1.337s-.639-.6-.639-1.337.286-1.337.639-1.337S308.662,206.974,308.662,207.713Z" transform="translate(-286.446 -192.436)" fill="#0d1435"/>
                <path id="Path_10926" data-name="Path 10926" d="M299.756,204.835s-1.965,1.965-1.448,2.792,1.716,1.293,1.345,2.482c-.388,1.241-3.1,1.655-4.033,0" transform="translate(-279.566 -191.535)" fill="none" stroke="#0d1435" stroke-linecap="round" stroke-linejoin="round" stroke-width="1"/>
                <path id="Path_10927" data-name="Path 10927" d="M280.468,220.277a8.527,8.527,0,0,0,6.309,3.1s-4.24,2.792-6.1,2.482S280.468,220.277,280.468,220.277Z" transform="translate(-270.31 -200.565)" fill="#0d1435" stroke="#0d1435" stroke-linecap="round" stroke-linejoin="round" stroke-width="1"/>
                <path id="Path_10928" data-name="Path 10928" d="M283.8,196.369s1.8-2.51,5.413-.941" transform="translate(-272.658 -185.732)" fill="none" stroke="#0d1435" stroke-linecap="round" stroke-linejoin="round" stroke-width="1"/>
                <path id="Path_10929" data-name="Path 10929" d="M307.325,198.531a2.678,2.678,0,0,1,3.1,1.648" transform="translate(-286.411 -187.816)" fill="none" stroke="#0d1435" stroke-linecap="round" stroke-linejoin="round" stroke-width="1"/>
              </g>
              <g id="Group_5917" data-name="Group 5917" transform="translate(1.665)">
                <path id="Path_10930" data-name="Path 10930" d="M255.378,182.311s.931-4.033,3.206-5.481,4.447-1.138,3.1-3.1-2.068-3.93.827-4.86,8.584.62,11.893,1.861,9.721,1.655,11.376-3c1.022-2.875-1.967-5.161-4.162-6.338a12.161,12.161,0,0,0-7.865-1.458c-1.645.289-3.243.939-4.908,1.107-2.808.284-5.288-1.021-8.092-.342a11.128,11.128,0,0,0-6,3.722C252.172,167.626,251.448,173.417,255.378,182.311Z" transform="translate(-252.625 -159.773)" fill="#0d1435"/>
                <g id="Group_5916" data-name="Group 5916" clip-path="url(#clip-path-6)">
                  <path id="Path_10931" data-name="Path 10931" d="M276.372,159.689s5.373,2.9,1.612,7.738-7.308,1.5-16.228-.215-14.185,2.687-14.185,2.687" transform="translate(-249.669 -159.724)" fill="none" stroke="gray" stroke-linecap="round" stroke-linejoin="round" stroke-width="1"/>
                  <path id="Path_10932" data-name="Path 10932" d="M249.382,190.257s1.719-3.331,7.308-4.3,5.91-.108,5.91-.108" transform="translate(-250.728 -174.817)" fill="none" stroke="gray" stroke-linecap="round" stroke-linejoin="round" stroke-width="1"/>
                </g>
                <path id="Path_10934" data-name="Path 10934" d="M255.378,182.311s.931-4.033,3.206-5.481,4.447-1.138,3.1-3.1-2.068-3.93.827-4.86,8.584.62,11.893,1.861,9.721,1.655,11.376-3c1.022-2.875-1.967-5.161-4.162-6.338a12.161,12.161,0,0,0-7.865-1.458c-1.645.289-3.243.939-4.908,1.107-2.808.284-5.288-1.021-8.092-.342a11.128,11.128,0,0,0-6,3.722C252.172,167.626,251.448,173.417,255.378,182.311Z" transform="translate(-252.625 -159.773)" fill="none" stroke="#0d1435" stroke-linecap="round" stroke-linejoin="round" stroke-width="1"/>
              </g>
              <path id="Path_10935" data-name="Path 10935" d="M256.823,205.068s-2.683-6.142-5.047-2.946,1.92,7.242,5.132,6.455" transform="translate(-250.064 -183.998)" fill="#fff" stroke="#0d1435" stroke-linecap="round" stroke-linejoin="round" stroke-width="1"/>
            </g>
            <g id="Group_5919" data-name="Group 5919" transform="translate(68.681 16.635)">
              <path id="Path_10936" data-name="Path 10936" d="M331.8,208.674s-1.758-.207-2.068,1.241-.62,3.723,0,3.723a2.446,2.446,0,0,0,2.172-1.241,23.713,23.713,0,0,0,.828-3.826Z" transform="translate(-329.375 -204.944)" fill="#fff" stroke="#0d1435" stroke-linecap="round" stroke-linejoin="round" stroke-width="1"/>
              <path id="Path_10937" data-name="Path 10937" d="M337.274,207.446s-2.482-.414-2.792.517-.724,4.137-.414,4.24a8.875,8.875,0,0,0,2.172-.724Z" transform="translate(-332.055 -204.233)" fill="#fff" stroke="#0d1435" stroke-linecap="round" stroke-linejoin="round" stroke-width="1"/>
              <path id="Path_10938" data-name="Path 10938" d="M343.8,206.4s-2.9-1.861-3.62-.931-.724,4.757-.724,4.757a1.584,1.584,0,0,0,1.448-.414c.517-.621,1.138-1.448,1.138-1.448a12.463,12.463,0,0,0,2.378.414c.31-.1,1.034,0,.828-1.034S343.8,206.4,343.8,206.4Z" transform="translate(-335.268 -202.975)" fill="#fff" stroke="#0d1435" stroke-linecap="round" stroke-linejoin="round" stroke-width="1"/>
              <path id="Path_10939" data-name="Path 10939" d="M351.819,205.118a9.731,9.731,0,0,1-3.1-3.516c-1.034-2.172-1.551-2.068-2.068-1.138s.1,1.861.517,2.689a22.211,22.211,0,0,0,2.172,2.792Z" transform="translate(-339.361 -199.836)" fill="#fff" stroke="#0d1435" stroke-linecap="round" stroke-linejoin="round" stroke-width="1"/>
            </g>
            <path id="Path_10940" data-name="Path 10940" d="M312.76,247.4s-1.5,12.8-1.268,13.492,2.768,1.5,3.344,1.038.231-1.384,0-1.96,1.961-11.3,1.961-11.3Z" transform="translate(-250.222 -211.018)" fill="#fabb27" stroke="#0d1435" stroke-linecap="round" stroke-linejoin="round" stroke-width="1"/>
            <g id="Group_5925" data-name="Group 5925" transform="translate(12.054 37.106)">
              <g id="Group_5922" data-name="Group 5922">
                <g id="Group_5921" data-name="Group 5921">
                  <path id="Path_10941" data-name="Path 10941" d="M205.718,252.851l7.59,23.7S230.752,266.4,234.834,261.1s6.446-11.277,7.877-11.837,6.544.837,7.292,1.642.57,1.741-.335,2.6a3.713,3.713,0,0,1-1.419.974s-.047,1.864-.451,2.187-.313-.094-.4.323a3.191,3.191,0,0,1-.479,1.256c-.3.423-.395.633-.7.745a9.424,9.424,0,0,1-1.845.573,24.771,24.771,0,0,1-3.4.62c-.72.125-5.407,9.372-9.792,14.885s-18.281,18.142-20.452,18.208S195.743,272.19,193,267" transform="translate(-192.999 -249.136)" fill="#fff"/>
                  <g id="Group_5920" data-name="Group 5920" clip-path="url(#clip-path-7)">
                    <path id="Path_10942" data-name="Path 10942" d="M256.456,258.243a3.19,3.19,0,0,0,.479-1.256c.091-.416,0,0,.4-.323s.451-2.187.451-2.187a3.714,3.714,0,0,0,1.419-.974c.905-.855,1.084-1.792.335-2.6s-5.861-2.2-7.292-1.642a3.852,3.852,0,0,0-1.329,1.445c.761,1.252,1.638,2.006.821,4.183-1.246,3.322-4.152,7.474-6.644,11s-23.253,23.045-25.744,22.63c-2.034-.339-7.942-7.459-10.043-10.06,4.5,7.22,9.65,14.848,10.955,14.808,2.171-.066,16.066-12.695,20.452-18.208s9.072-14.76,9.792-14.885a24.772,24.772,0,0,0,3.4-.62,9.426,9.426,0,0,0,1.845-.573C256.061,258.876,256.158,258.665,256.456,258.243Z" transform="translate(-202.54 -249.136)" opacity="0.2"/>
                  </g>
                  <path id="Path_10944" data-name="Path 10944" d="M205.718,252.851l7.59,23.7S230.752,266.4,234.834,261.1s6.446-11.277,7.877-11.837,6.544.837,7.292,1.642.57,1.741-.335,2.6a3.713,3.713,0,0,1-1.419.974s-.047,1.864-.451,2.187-.313-.094-.4.323a3.191,3.191,0,0,1-.479,1.256c-.3.423-.395.633-.7.745a9.424,9.424,0,0,1-1.845.573,24.771,24.771,0,0,1-3.4.62c-.72.125-5.407,9.372-9.792,14.885s-18.281,18.142-20.452,18.208S195.743,272.19,193,267" transform="translate(-192.999 -249.136)" fill="none" stroke="#0d1435" stroke-linecap="round" stroke-linejoin="round" stroke-width="1"/>
                </g>
                <path id="Path_10945" data-name="Path 10945" d="M236.734,315.17s-1.987.084-3.675,5.388" transform="translate(-216.425 -287.751)" fill="none" stroke="#0d1435" stroke-linecap="round" stroke-linejoin="round" stroke-width="1"/>
              </g>
              <g id="Group_5924" data-name="Group 5924" transform="translate(42.341)">
                <path id="Path_10946" data-name="Path 10946" d="M304,259.562a9.428,9.428,0,0,0,1.845-.573c.307-.113.4-.323.7-.745a3.19,3.19,0,0,0,.479-1.256c.091-.416.36-.558.764-.881s.091-1.628.091-1.628a3.714,3.714,0,0,0,1.419-.974c.905-.855,1.084-1.792.335-2.6s-5.861-2.2-7.292-1.642c-1.371.537-3.6,6.045-7.371,11.163l3.494,2.864c1.1-1.825,1.878-3.066,2.138-3.111A24.772,24.772,0,0,0,304,259.562Z" transform="translate(-294.97 -249.136)" fill="#fff"/>
                <g id="Group_5923" data-name="Group 5923" clip-path="url(#clip-path-8)">
                  <path id="Path_10947" data-name="Path 10947" d="M256.456,258.243a3.19,3.19,0,0,0,.479-1.256c.091-.416,0,0,.4-.323s.451-2.187.451-2.187a3.714,3.714,0,0,0,1.419-.974c.905-.855,1.084-1.792.335-2.6s-5.861-2.2-7.292-1.642a3.852,3.852,0,0,0-1.329,1.445c.761,1.252,1.638,2.006.821,4.183-1.246,3.322-4.152,7.474-6.644,11s-23.253,23.045-25.744,22.63c-2.034-.339-7.942-7.459-10.043-10.06,4.5,7.22,9.65,14.848,10.955,14.808,2.171-.066,16.066-12.695,20.452-18.208s9.072-14.76,9.792-14.885a24.772,24.772,0,0,0,3.4-.62,9.426,9.426,0,0,0,1.845-.573C256.061,258.876,256.158,258.665,256.456,258.243Z" transform="translate(-244.881 -249.136)" opacity="0.2"/>
                </g>
                <path id="Path_10949" data-name="Path 10949" d="M304,259.562a9.428,9.428,0,0,0,1.845-.573c.307-.113.4-.323.7-.745a3.19,3.19,0,0,0,.479-1.256c.091-.416.36-.558.764-.881s.091-1.628.091-1.628a3.714,3.714,0,0,0,1.419-.974c.905-.855,1.084-1.792.335-2.6s-5.861-2.2-7.292-1.642c-1.371.537-3.6,6.045-7.371,11.163l3.494,2.864c1.1-1.825,1.878-3.066,2.138-3.111A24.772,24.772,0,0,0,304,259.562Z" transform="translate(-294.97 -249.136)" fill="none" stroke="#0d1435" stroke-linecap="round" stroke-linejoin="round" stroke-width="1"/>
              </g>
            </g>
            <g id="Group_5928" data-name="Group 5928" transform="translate(56.836 14.885)">
              <g id="Group_5927" data-name="Group 5927" transform="translate(0 5.171)">
                <path id="Path_10950" data-name="Path 10950" d="M302.917,216.036c-1.142,0-2.068,1.644-2.068,3.671s.926,3.671,2.068,3.671l25.337,7.653V208.073Z" transform="translate(-300.849 -208.073)" fill="#fabb27" stroke="#0d1435" stroke-linecap="round" stroke-linejoin="round" stroke-width="1"/>
                <g id="Group_5926" data-name="Group 5926" transform="translate(6.437 3.958)">
                  <line id="Line_143" data-name="Line 143" x1="9.883" y2="2.843" transform="translate(0 0.95)" fill="none" stroke="#0d1435" stroke-linecap="round" stroke-linejoin="round" stroke-width="1"/>
                  <line id="Line_144" data-name="Line 144" x1="2.068" y2="0.595" transform="translate(11.118)" fill="none" stroke="#0d1435" stroke-linecap="round" stroke-linejoin="round" stroke-width="1"/>
                </g>
                <path id="Path_10951" data-name="Path 10951" d="M306.162,224.8l-3.245,1.019c-1.142,0-2.068,1.644-2.068,3.671s.926,3.671,2.068,3.671l2.926.884A10.089,10.089,0,0,1,306.162,224.8Z" transform="translate(-300.849 -217.852)" fill="#0d1435" stroke="#0d1435" stroke-linecap="round" stroke-linejoin="round" stroke-width="1"/>
              </g>
              <ellipse id="Ellipse_565" data-name="Ellipse 565" cx="8.686" cy="15.417" rx="8.686" ry="15.417" transform="translate(20.892 1.388)" fill="#d6d6d6" stroke="#0d1435" stroke-linecap="round" stroke-linejoin="round" stroke-width="1"/>
              <path id="Path_10952" data-name="Path 10952" d="M359.409,224.734l-8.273-2.216-.724,5.895.931,6,8.066-2.836.31-6.678" transform="translate(-329.832 -211.349)" fill="#d6d6d6" stroke="#0d1435" stroke-linecap="round" stroke-linejoin="round" stroke-width="1"/>
              <path id="Path_10953" data-name="Path 10953" d="M358.747,195.62c-5.229,0-9.468,7.524-9.468,16.805s4.239,16.805,9.468,16.805,9.468-7.524,9.468-16.805S363.976,195.62,358.747,195.62Zm.234,31.224c-4.357,0-7.889-6.456-7.889-14.419s3.532-14.419,7.889-14.419,7.889,6.456,7.889,14.419S363.338,226.844,358.981,226.844Z" transform="translate(-329.169 -195.62)" fill="#0d1435" stroke="#0d1435" stroke-linecap="round" stroke-linejoin="round" stroke-width="1"/>
              <ellipse id="Ellipse_566" data-name="Ellipse 566" cx="1.927" cy="3.421" rx="1.927" ry="3.421" transform="translate(27.65 13.385)" fill="#fabb27" stroke="#0d1435" stroke-linecap="round" stroke-linejoin="round" stroke-width="1"/>
            </g>
          </g>
          <g id="Group_5930" data-name="Group 5930" transform="translate(92.728 16.364)">
            <line id="Line_145" data-name="Line 145" y1="0.595" x2="1.922" transform="translate(15.258)" fill="none" stroke="#0d1435" stroke-linecap="round" stroke-linejoin="round" stroke-width="1"/>
            <line id="Line_146" data-name="Line 146" y1="3.527" x2="11.395" transform="translate(1.494 1.328)" fill="none" stroke="#0d1435" stroke-linecap="round" stroke-linejoin="round" stroke-width="1"/>
            <line id="Line_147" data-name="Line 147" x2="10.457" y2="0.373" transform="translate(2.988 17.18)" fill="none" stroke="#0d1435" stroke-linecap="round" stroke-linejoin="round" stroke-width="1"/>
            <line id="Line_148" data-name="Line 148" x2="2.166" y2="0.699" transform="translate(11.652 32.54)" fill="none" stroke="#0d1435" stroke-linecap="round" stroke-linejoin="round" stroke-width="1"/>
            <line id="Line_149" data-name="Line 149" x2="7.692" y2="2.481" transform="translate(2.241 29.505)" fill="none" stroke="#0d1435" stroke-linecap="round" stroke-linejoin="round" stroke-width="1"/>
            <line id="Line_150" data-name="Line 150" y1="0.747" x2="5.602" transform="translate(2.614 9.71)" fill="none" stroke="#0d1435" stroke-linecap="round" stroke-linejoin="round" stroke-width="1"/>
            <line id="Line_151" data-name="Line 151" x2="4.108" y2="3.361" transform="translate(0 33.613)" fill="none" stroke="#0d1435" stroke-linecap="round" stroke-linejoin="round" stroke-width="1"/>
          </g>
        </g>
      </g>
    </g>
  </g>
</svg>
