<svg xmlns="http://www.w3.org/2000/svg" xmlns:xlink="http://www.w3.org/1999/xlink" width="185.464" height="187.31" viewBox="0 0 185.464 187.31">
  <defs>
    <clipPath id="clip-path">
      <path id="Path_10970" data-name="Path 10970" d="M302.96,233.873c-1.373-2.267-7.967-2.23-8.564-1.223,0,0,3.268,10.561,6.909,9.467S302.96,233.873,302.96,233.873Z" transform="translate(-294.396 -231.992)" fill="#fabb27" stroke="#0d1435" stroke-linecap="round" stroke-linejoin="round" stroke-width="1"/>
    </clipPath>
    <clipPath id="clip-path-2">
      <path id="Path_10974" data-name="Path 10974" d="M295.094,231.619a3.255,3.255,0,0,0-.7,1.992c0,.985,1.879,20.66,7.679,27.509a5.642,5.642,0,0,0,4.185,2.328c4.909.053,7.287-3.842,10.411-12.875q.583-1.687,1.211-3.623c3.038-9.324,6.77-28.773,6.77-28.773s-6.622,1.536-10.551,5.43c-1.717,1.7-3.505,6.532-4.649,10.079-.562,1.743-.97,3.174-1.14,3.778-.053.2-.083.309-.083.309a8.877,8.877,0,0,0-.695-1.762c0-.008,0-.012-.007-.015a.123.123,0,0,1-.023-.045,21.542,21.542,0,0,0-3.113-4.283l-1.43-5.423s-.506.988-2.792,1.34-5.773-2.562-5.773-2.562Z" transform="translate(-294.396 -218.178)" fill="#fabb27" stroke="#0d1435" stroke-linecap="round" stroke-linejoin="round" stroke-width="1"/>
    </clipPath>
    <clipPath id="clip-path-3">
      <path id="Path_10984" data-name="Path 10984" d="M372.066,272.171s.835-6.592,1.344-8.744c2.293-9.69,10.368-32.142,9.066-38.785-1.339-6.827-9.524-12.8-22.735-13.458-12.252-.611-22.354,3.732-24.769,8.78-2.306,4.819-2.211,38.077-1.626,53.084H367A16.672,16.672,0,0,0,372.066,272.171Z" transform="translate(-332.994 -211.126)" fill="#fabb27" stroke="#0d1435" stroke-linecap="round" stroke-linejoin="round" stroke-width="1"/>
    </clipPath>
    <clipPath id="clip-path-4">
      <rect id="Rectangle_3629" data-name="Rectangle 3629" width="23.139" height="11.458" transform="translate(0 21.874) rotate(-70.968)" fill="#fabb27" stroke="#0d1435" stroke-linecap="round" stroke-linejoin="round" stroke-width="1"/>
    </clipPath>
    <clipPath id="clip-path-5">
      <rect id="Rectangle_3632" data-name="Rectangle 3632" width="23.139" height="11.458" transform="translate(11.074 0) rotate(75.116)" fill="#fabb27" stroke="#0d1435" stroke-linecap="round" stroke-linejoin="round" stroke-width="1"/>
    </clipPath>
    <clipPath id="clip-path-6">
      <path id="Path_11023" data-name="Path 11023" d="M344.723,223.618c-.627-1.136-2.418-.588-4.508,2.7s-2.944,7.114-2.439,8.509,7.265,3.085,7.265,3.085l1.393-3.533Z" transform="translate(-337.635 -223.078)" fill="#fabb27" stroke="#0d1435" stroke-linecap="round" stroke-linejoin="round" stroke-width="1"/>
    </clipPath>
  </defs>
  <g id="Group_5982" data-name="Group 5982" transform="translate(-42.493 -40.305)">
    <g id="Background_Simple" data-name="Background Simple" transform="translate(42.774 47.914)">
      <g id="Group_5934" data-name="Group 5934">
        <path id="Path_10956" data-name="Path 10956" d="M67.044,72.772l.251-.227c23.095-20.8,53.77-21.733,76.118.653,11.648,11.668,32.329,9.435,47.126,13.655,51.018,14.551,42.2,83.772,17,117.234-22.741,30.2-72.017,37.018-105.123,22.161-29.092-13.056-49.576-42.221-56.866-72.717q-1.1-4.588-1.792-9.258C39.918,118.311,47.283,90.74,67.044,72.772Z" transform="translate(-42.774 -56.678)" fill="#fff" stroke="#0d1435" stroke-width="0.5" opacity="0.7"/>
      </g>
    </g>
    <g id="Bubble" transform="translate(107.937 177.341)">
      <g id="Group_5936" data-name="Group 5936">
        <path id="Path_10957" data-name="Path 10957" d="M229.635,400.34a20.466,20.466,0,0,1-39.864,1.179" transform="translate(-189.102 -375.859)" fill="none" stroke="#0d1435" stroke-linecap="round" stroke-linejoin="round" stroke-width="1"/>
        <path id="Path_10958" data-name="Path 10958" d="M278.163,379.7a20.325,20.325,0,0,1,.6,6.956" transform="translate(-237.908 -364.46)" fill="none" stroke="#0d1435" stroke-linecap="round" stroke-linejoin="round" stroke-width="1"/>
        <path id="Path_10959" data-name="Path 10959" d="M204.585,350.482a20.46,20.46,0,0,1,31.793,7.19" transform="translate(-197.282 -345.676)" fill="none" stroke="#0d1435" stroke-linecap="round" stroke-linejoin="round" stroke-width="1"/>
        <path id="Path_10960" data-name="Path 10960" d="M191.2,347.316l-.57-1.526,5.4,4.105" transform="translate(-189.578 -345.739)" fill="none" stroke="#0d1435" stroke-linecap="round" stroke-linejoin="round" stroke-width="1"/>
        <path id="Path_10961" data-name="Path 10961" d="M189.174,366.286a20.374,20.374,0,0,1,3.691-8.265l-1.8-4.817" transform="translate(-188.772 -349.833)" fill="none" stroke="#0d1435" stroke-linecap="round" stroke-linejoin="round" stroke-width="1"/>
        <path id="Path_10962" data-name="Path 10962" d="M188.295,390.236a20.455,20.455,0,0,1,.049-2.492" transform="translate(-188.277 -368.904)" fill="none" stroke="#0d1435" stroke-linecap="round" stroke-linejoin="round" stroke-width="1"/>
        <g id="Group_5935" data-name="Group 5935" transform="translate(8.829 9.09)">
          <path id="Path_10963" data-name="Path 10963" d="M221.968,368.61a10.29,10.29,0,1,1-3.639.221" transform="translate(-209.36 -367.429)" fill="none" stroke="#0d1435" stroke-linecap="round" stroke-linejoin="round" stroke-width="1"/>
          <path id="Path_10964" data-name="Path 10964" d="M218.074,401.147a11.41,11.41,0,0,1-10-12.659" transform="translate(-207.991 -378.405)" fill="none" stroke="#0d1435" stroke-linecap="round" stroke-linejoin="round" stroke-width="1"/>
          <path id="Path_10965" data-name="Path 10965" d="M247.139,398.845a11.424,11.424,0,0,1-8.69,7.881" transform="translate(-224.808 -384.124)" fill="none" stroke="#0d1435" stroke-linecap="round" stroke-linejoin="round" stroke-width="1"/>
          <path id="Path_10966" data-name="Path 10966" d="M209.79,373.167a11.411,11.411,0,0,1,21.936,5.544" transform="translate(-208.984 -365.974)" fill="none" stroke="#0d1435" stroke-linecap="round" stroke-linejoin="round" stroke-width="1"/>
          <line id="Line_152" data-name="Line 152" y1="0.148" x2="0.123" transform="translate(18.034 6.801)" fill="none" stroke="#0d1435" stroke-linecap="round" stroke-linejoin="round" stroke-width="2"/>
          <line id="Line_153" data-name="Line 153" y1="1.027" x2="0.858" transform="translate(16.312 7.983)" fill="none" stroke="#0d1435" stroke-linecap="round" stroke-linejoin="round" stroke-width="2"/>
          <path id="Path_10967" data-name="Path 10967" d="M219.708,389.224l4.692,5.605,5.62-6.727" transform="translate(-214.461 -378.191)" fill="none" stroke="#0d1435" stroke-linecap="round" stroke-linejoin="round" stroke-width="2"/>
        </g>
      </g>
    </g>
    <g id="Character" transform="translate(136.281 40.805)">
      <rect id="Rectangle_3627" data-name="Rectangle 3627" width="90.577" height="90.577" rx="45.288" transform="translate(0 47.623)" fill="#fff" stroke="#0d1435" stroke-linecap="round" stroke-linejoin="round" stroke-width="1"/>
      <g id="Group_5962" data-name="Group 5962" transform="translate(12.329)">
        <g id="Group_5941" data-name="Group 5941" transform="translate(6.852 79.436)">
          <g id="Group_5938" data-name="Group 5938" transform="translate(0 6.187)">
            <path id="Path_10968" data-name="Path 10968" d="M302.96,233.873c-1.373-2.267-7.967-2.23-8.564-1.223,0,0,3.268,10.561,6.909,9.467S302.96,233.873,302.96,233.873Z" transform="translate(-294.396 -231.992)" fill="#fabb27"/>
            <g id="Group_5937" data-name="Group 5937" clip-path="url(#clip-path)">
              <path id="Path_10969" data-name="Path 10969" d="M302.96,233.873c-1.373-2.267-7.967-2.23-8.564-1.223,0,0,3.268,10.561,6.909,9.467S302.96,233.873,302.96,233.873Z" transform="translate(-294.396 -231.992)" fill="rgba(0,0,0,0.7)" opacity="0.3"/>
            </g>
            <path id="Path_10971" data-name="Path 10971" d="M302.96,233.873c-1.373-2.267-7.967-2.23-8.564-1.223,0,0,3.268,10.561,6.909,9.467S302.96,233.873,302.96,233.873Z" transform="translate(-294.396 -231.992)" fill="none" stroke="#0d1435" stroke-linecap="round" stroke-linejoin="round" stroke-width="1"/>
          </g>
          <g id="Group_5940" data-name="Group 5940">
            <path id="Path_10972" data-name="Path 10972" d="M295.094,231.619a3.255,3.255,0,0,0-.7,1.992c0,.985,1.879,20.66,7.679,27.509a5.642,5.642,0,0,0,4.185,2.328c4.909.053,7.287-3.842,10.411-12.875q.583-1.687,1.211-3.623c3.038-9.324,6.77-28.773,6.77-28.773s-6.622,1.536-10.551,5.43c-1.717,1.7-3.505,6.532-4.649,10.079-.562,1.743-.97,3.174-1.14,3.778-.053.2-.083.309-.083.309a8.877,8.877,0,0,0-.695-1.762c0-.008,0-.012-.007-.015a.123.123,0,0,1-.023-.045,21.542,21.542,0,0,0-3.113-4.283l-1.43-5.423s-.506.988-2.792,1.34-5.773-2.562-5.773-2.562Z" transform="translate(-294.396 -218.178)" fill="#fabb27"/>
            <g id="Group_5939" data-name="Group 5939" clip-path="url(#clip-path-2)">
              <path id="Path_10973" data-name="Path 10973" d="M311.542,275.175a5.642,5.642,0,0,0,4.185,2.328c4.909.053,7.287-3.842,10.411-12.875l-.068-21a15.567,15.567,0,0,0-7.151,4.109c-.562,1.743-.97,3.174-1.14,3.778,1.381,2.875,3.789,9.486,1.026,16.531C317.014,272.621,314.082,274.477,311.542,275.175Z" transform="translate(-303.863 -232.233)" fill="rgba(0,0,0,0.7)" opacity="0.3"/>
            </g>
            <path id="Path_10975" data-name="Path 10975" d="M295.094,231.619a3.255,3.255,0,0,0-.7,1.992c0,.985,1.879,20.66,7.679,27.509a5.642,5.642,0,0,0,4.185,2.328c4.909.053,7.287-3.842,10.411-12.875q.583-1.687,1.211-3.623c3.038-9.324,6.77-28.773,6.77-28.773s-6.622,1.536-10.551,5.43c-1.717,1.7-3.505,6.532-4.649,10.079-.562,1.743-.97,3.174-1.14,3.778-.053.2-.083.309-.083.309a8.877,8.877,0,0,0-.695-1.762c0-.008,0-.012-.007-.015a.123.123,0,0,1-.023-.045,21.542,21.542,0,0,0-3.113-4.283l-1.43-5.423s-.506.988-2.792,1.34-5.773-2.562-5.773-2.562Z" transform="translate(-294.396 -218.178)" fill="none" stroke="#0d1435" stroke-linecap="round" stroke-linejoin="round" stroke-width="1"/>
          </g>
          <path id="Path_10976" data-name="Path 10976" d="M330.215,276.245a8.794,8.794,0,0,1-.486,5.557" transform="translate(-313.905 -250.24)" fill="none" stroke="#0d1435" stroke-linecap="round" stroke-linejoin="round" stroke-width="1"/>
          <path id="Path_10977" data-name="Path 10977" d="M325.285,261.932a21.151,21.151,0,0,1,2.216,5.274" transform="translate(-311.451 -242.337)" fill="none" stroke="#0d1435" stroke-linecap="round" stroke-linejoin="round" stroke-width="1"/>
          <path id="Path_10978" data-name="Path 10978" d="M329.119,264.254a3.9,3.9,0,0,0-2.556-2.322" transform="translate(-312.157 -242.337)" fill="none" stroke="#0d1435" stroke-linecap="round" stroke-linejoin="round" stroke-width="1"/>
          <path id="Path_10979" data-name="Path 10979" d="M310.992,250.534a6.649,6.649,0,0,0,1.251-.88" transform="translate(-303.56 -235.558)" fill="none" stroke="#0d1435" stroke-linecap="round" stroke-linejoin="round" stroke-width="1"/>
          <path id="Path_10980" data-name="Path 10980" d="M295.952,248.191a5.86,5.86,0,0,0,5.866,1.905" transform="translate(-295.255 -234.75)" fill="none" stroke="#0d1435" stroke-linecap="round" stroke-linejoin="round" stroke-width="1"/>
          <path id="Path_10981" data-name="Path 10981" d="M323.659,257.868a.291.291,0,0,0,.026.042.123.123,0,0,1-.023-.045A0,0,0,0,0,323.659,257.868Z" transform="translate(-310.554 -240.091)" fill="#fabb27" stroke="#0d1435" stroke-linecap="round" stroke-linejoin="round" stroke-width="1"/>
        </g>
        <g id="Group_5943" data-name="Group 5943" transform="translate(24.138 76.278)">
          <path id="Path_10982" data-name="Path 10982" d="M372.066,272.171s.835-6.592,1.344-8.744c2.293-9.69,10.368-32.142,9.066-38.785-1.339-6.827-9.524-12.8-22.735-13.458-12.252-.611-22.354,3.732-24.769,8.78-2.306,4.819-2.211,38.077-1.626,53.084H367A16.672,16.672,0,0,0,372.066,272.171Z" transform="translate(-332.994 -211.126)" fill="#fabb27"/>
          <g id="Group_5942" data-name="Group 5942" clip-path="url(#clip-path-3)">
            <path id="Path_10983" data-name="Path 10983" d="M374.7,255.706c-6.346,8.7-13.265,21.718-13.265,21.718l-18.9-23.556s4.328,29.92,6.69,33.159,2.256,4.727,2.256,4.727,5.991,6.452,10.485,5.576c3.811-.743,17.518-16.039,21.794-33.771Z" transform="translate(-338.264 -234.726)" fill="rgba(0,0,0,0.7)" opacity="0.3"/>
          </g>
          <path id="Path_10985" data-name="Path 10985" d="M372.066,272.171s.835-6.592,1.344-8.744c2.293-9.69,10.368-32.142,9.066-38.785-1.339-6.827-9.524-12.8-22.735-13.458-12.252-.611-22.354,3.732-24.769,8.78-2.306,4.819-2.211,38.077-1.626,53.084H367A16.672,16.672,0,0,0,372.066,272.171Z" transform="translate(-332.994 -211.126)" fill="none" stroke="#0d1435" stroke-linecap="round" stroke-linejoin="round" stroke-width="1"/>
        </g>
        <g id="Group_5945" data-name="Group 5945" transform="translate(33.415 38.473)">
          <path id="Path_10986" data-name="Path 10986" d="M387.718,197.024a21.3,21.3,0,0,1-13.718.484,13.026,13.026,0,0,0,.923-4.071,2.287,2.287,0,0,0-.923-2.145s.322-.354.869-.914h0c2.7-2.75,10.9-10.48,13.57-5.871C388.443,184.506,385.649,184.771,387.718,197.024Z" transform="translate(-364.913 -157.831)" fill="#fff" stroke="#0d1435" stroke-linecap="round" stroke-linejoin="round" stroke-width="1"/>
          <path id="Path_10987" data-name="Path 10987" d="M380.27,195.166a7.428,7.428,0,0,1-5.347,4.948A2.287,2.287,0,0,0,374,197.97s.322-.354.869-.914h0C377.484,196.03,380.27,195.166,380.27,195.166Z" transform="translate(-364.913 -164.509)" fill="#0d1435"/>
          <path id="Path_10988" data-name="Path 10988" d="M381.172,150.264c2.829-11.275-3.265-15.135-7.105-16.612-6.151-2.367-13.914.326-15.733,6.59s-.18,7.69-.265,10.253c-.06,1.8-1.251,2.683.062,7.192.867,2.976,2.477,6.389,4.354,6.5,5.081.3,9.892-2.6,9.625-3.957" transform="translate(-355.787 -130.074)" fill="#fff" stroke="#0d1435" stroke-linecap="round" stroke-linejoin="round" stroke-width="1"/>
          <path id="Path_10989" data-name="Path 10989" d="M374.74,159.312a2.865,2.865,0,0,1,3.49,1.7" transform="translate(-365.321 -144.647)" fill="none" stroke="#0d1435" stroke-linecap="round" stroke-linejoin="round" stroke-width="1"/>
          <path id="Path_10990" data-name="Path 10990" d="M357.475,158.024a2.309,2.309,0,0,1,3.387.6" transform="translate(-355.788 -143.729)" fill="none" stroke="#0d1435" stroke-linecap="round" stroke-linejoin="round" stroke-width="1"/>
          <ellipse id="Ellipse_567" data-name="Ellipse 567" cx="0.564" cy="0.949" rx="0.564" ry="0.949" transform="translate(9.871 18.491)" fill="#0d1435"/>
          <path id="Path_10991" data-name="Path 10991" d="M361.252,167.789c0,.524.253.949.564.949s.564-.425.564-.949-.253-.949-.564-.949S361.252,167.265,361.252,167.789Z" transform="translate(-357.874 -148.869)" fill="#0d1435"/>
          <path id="Path_10992" data-name="Path 10992" d="M362.818,164.108a17.159,17.159,0,0,1,.194,3.121c-.156.511-1.923,2.1-1.992,2.813s1.477,1.425,1.477,1.425" transform="translate(-357.745 -147.36)" fill="#fff" stroke="#0d1435" stroke-linecap="round" stroke-linejoin="round" stroke-width="1"/>
          <path id="Path_10993" data-name="Path 10993" d="M362.512,183.888a14.212,14.212,0,0,0,6.493,0s-1.4,4.375-4.159,3.93c-1.829-.3-1.363-3.163-1.363-3.163Z" transform="translate(-358.569 -158.282)" fill="#0d1435"/>
          <path id="Path_10994" data-name="Path 10994" d="M367.377,135.059a4.663,4.663,0,0,0-3.488-.532c-2.029.472-2.348,4.74-2.348,4.74a4.282,4.282,0,0,1-1.276-2.142l-.638,1.831-1.692-1.595-.566,1.906-.672-1.374-1.3,2.537s-1.957-2.522-1.653-4.471c.827-5.315,5.045-9.682,13.867-9.213a7.343,7.343,0,0,1,6.1,3.28s4.343-.588,6.269,1.666c6.56,7.672,2.446,16-3.783,23.9l-2.135-7.522-2.067-.236a21.669,21.669,0,0,0,.013-2.318,11.636,11.636,0,0,0-.766-2.909l-.765.343.319-1.441-1.748.9s.739-5.926,0-6.93A1.218,1.218,0,0,0,367.377,135.059Z" transform="translate(-353.709 -126.712)" fill="#0d1435"/>
          <path id="Path_10995" data-name="Path 10995" d="M396.242,172.427s2.067-3.852,4.229-2.913.658,5.543-1.222,7.047-3.007,0-3.007,0" transform="translate(-377.194 -150.264)" fill="#fff" stroke="#0d1435" stroke-linecap="round" stroke-linejoin="round" stroke-width="1"/>
          <g id="Group_5944" data-name="Group 5944" transform="translate(1.92 1.784)" opacity="0.2">
            <path id="Path_10996" data-name="Path 10996" d="M378.914,138.933a3.785,3.785,0,0,0-3.3-2.326c-2.53-.166-4.348,2.576-4.405,4.486" transform="translate(-365.29 -133.955)" fill="none" stroke="#fff" stroke-linecap="round" stroke-linejoin="round" stroke-width="1"/>
            <path id="Path_10997" data-name="Path 10997" d="M392.236,140.888s1.734-1.329,2.74,0c1.7,2.247.292,7.672.292,7.672" transform="translate(-376.902 -135.996)" fill="none" stroke="#fff" stroke-linecap="round" stroke-linejoin="round" stroke-width="1"/>
            <path id="Path_10998" data-name="Path 10998" d="M397.5,137.724s1.8-1.108,3.349,1.029,1.377,7.33,1.377,7.33" transform="translate(-379.81 -134.417)" fill="none" stroke="#fff" stroke-linecap="round" stroke-linejoin="round" stroke-width="1"/>
            <path id="Path_10999" data-name="Path 10999" d="M408.916,137.437s3.123,1.316,3.3,7.608" transform="translate(-386.112 -134.417)" fill="none" stroke="#fff" stroke-linecap="round" stroke-linejoin="round" stroke-width="1"/>
            <path id="Path_11000" data-name="Path 11000" d="M376.751,135.38s-1.757-2.981-6.959-1.984-5.982,6.314-5.982,6.314" transform="translate(-361.206 -132.074)" fill="none" stroke="#fff" stroke-linecap="round" stroke-linejoin="round" stroke-width="1"/>
            <path id="Path_11001" data-name="Path 11001" d="M374.835,133.1s-2.095-2.908-8.462-2.326-8.927,6.147-8.28,8.806" transform="translate(-357.996 -130.694)" fill="none" stroke="#fff" stroke-linecap="round" stroke-linejoin="round" stroke-width="1"/>
          </g>
        </g>
        <g id="Group_5957" data-name="Group 5957" transform="translate(0 10.3)">
          <g id="Group_5953" data-name="Group 5953">
            <path id="Path_11002" data-name="Path 11002" d="M279.1,211.276s7.573-5.829,10.873-6.419,14.658,1.89,14.658,1.89V220.2s-7.106.78-10.294,3.114-14.174,2.709-14.174,2.709Z" transform="translate(-279.097 -141.636)" fill="#757575" stroke="#0d1435" stroke-linecap="round" stroke-linejoin="round" stroke-width="1"/>
            <path id="Path_11003" data-name="Path 11003" d="M294.967,205.8a20.576,20.576,0,0,1,.441-2.658c.267-.945,2.1-.844,2.512-.511a5.121,5.121,0,0,1,.813.915s-.635.185-.813.245S297.565,207.277,294.967,205.8Z" transform="translate(-287.86 -140.327)" fill="#fff" stroke="#0d1435" stroke-linecap="round" stroke-linejoin="round" stroke-width="1"/>
            <g id="Group_5947" data-name="Group 5947" transform="translate(9.232 44.936)">
              <rect id="Rectangle_3628" data-name="Rectangle 3628" width="23.139" height="11.458" transform="translate(0 21.874) rotate(-70.968)" fill="#fabb27"/>
              <g id="Group_5946" data-name="Group 5946" transform="translate(0 0)" clip-path="url(#clip-path-4)">
                <path id="Path_11004" data-name="Path 11004" d="M299.711,186.015l10.832,3.736,7.546-21.874-10.832-3.737Zm17.239-17.583-6.961,20.18-9.139-3.152,6.961-20.18Z" transform="translate(-299.711 -164.141)" fill="rgba(0,0,0,0.7)" opacity="0.5"/>
                <path id="Path_11005" data-name="Path 11005" d="M317.614,169.554l-.932,2.7a.579.579,0,0,1-.736.359h0a.579.579,0,0,1-.358-.736l.932-2.7a.579.579,0,0,1,.736-.359h0A.579.579,0,0,1,317.614,169.554Z" transform="translate(-308.46 -166.706)" fill="rgba(0,0,0,0.7)" opacity="0.5"/>
                <path id="Path_11006" data-name="Path 11006" d="M322.294,208.832l-.932,2.7a.579.579,0,0,1-.736.358h0a.579.579,0,0,1-.359-.736l.932-2.7a.579.579,0,0,1,.736-.358h0A.579.579,0,0,1,322.294,208.832Z" transform="translate(-311.044 -188.393)" fill="rgba(0,0,0,0.7)" opacity="0.5"/>
                <path id="Path_11007" data-name="Path 11007" d="M312.409,187.137a3.59,3.59,0,1,0,4.564-2.223A3.59,3.59,0,0,0,312.409,187.137Zm5.279,1.556.267.092-.163.473-.267-.093a.849.849,0,0,1-1.119.313l-.252-.087.189-.546.288.1c.263.09.4.008.46-.176s.009-.332-.254-.423-.488-.051-.926.233a1.363,1.363,0,0,1-1.306.26c-.494-.17-.738-.483-.688-.919l-.273-.094.163-.472.273.094a.843.843,0,0,1,1.112-.31l.116.04-.188.546-.152-.052c-.263-.09-.4-.02-.462.164s0,.323.263.414.482.049.926-.233a1.37,1.37,0,0,1,1.306-.26A.853.853,0,0,1,317.688,188.693Z" transform="translate(-306.614 -175.502)" fill="rgba(0,0,0,0.7)" opacity="0.5"/>
              </g>
              <rect id="Rectangle_3630" data-name="Rectangle 3630" width="23.139" height="11.458" transform="translate(0 21.874) rotate(-70.968)" fill="none" stroke="#0d1435" stroke-linecap="round" stroke-linejoin="round" stroke-width="1"/>
            </g>
            <g id="Group_5949" data-name="Group 5949" transform="translate(0.482 10.104)">
              <rect id="Rectangle_3631" data-name="Rectangle 3631" width="23.139" height="11.458" transform="translate(11.074 0) rotate(75.116)" fill="#fabb27"/>
              <g id="Group_5948" data-name="Group 5948" transform="translate(0)" clip-path="url(#clip-path-5)">
                <path id="Path_11008" data-name="Path 11008" d="M291.246,86.365l-11.074,2.943,5.943,22.362,11.074-2.943Zm-4.5,24.21-5.483-20.631,9.343-2.483,5.483,20.631Z" transform="translate(-280.172 -86.365)" fill="rgba(0,0,0,0.7)" opacity="0.5"/>
                <path id="Path_11009" data-name="Path 11009" d="M310.711,128.722l-.734-2.762a.58.58,0,0,1,.411-.708h0a.58.58,0,0,1,.709.411l.734,2.762a.58.58,0,0,1-.411.708h0A.58.58,0,0,1,310.711,128.722Z" transform="translate(-296.618 -107.826)" fill="rgba(0,0,0,0.7)" opacity="0.5"/>
                <path id="Path_11010" data-name="Path 11010" d="M284.912,98.739l-.734-2.761a.579.579,0,0,1,.411-.708h0a.579.579,0,0,1,.709.411l.734,2.762a.58.58,0,0,1-.411.708h0A.579.579,0,0,1,284.912,98.739Z" transform="translate(-282.373 -91.27)" fill="rgba(0,0,0,0.7)" opacity="0.5"/>
                <path id="Path_11011" data-name="Path 11011" d="M298.214,109.269a3.589,3.589,0,1,0-2.547,4.391A3.589,3.589,0,0,0,298.214,109.269Zm-5.249,1.654-.274.073-.129-.483.274-.073c-.026-.447.244-.749.754-.884l.258-.069.148.558-.3.078c-.268.072-.334.215-.284.4s.178.28.446.209.434-.23.639-.71c.253-.584.509-.831.938-.945a.848.848,0,0,1,1.083.378l.279-.074.129.483-.279.074c.026.442-.24.742-.749.877l-.118.031-.148-.558.155-.041c.269-.072.342-.206.292-.394s-.18-.268-.449-.2-.428.229-.639.71c-.258.586-.509.831-.938.945A.853.853,0,0,1,292.964,110.923Z" transform="translate(-286.236 -97.538)" fill="rgba(0,0,0,0.7)" opacity="0.5"/>
              </g>
              <rect id="Rectangle_3633" data-name="Rectangle 3633" width="23.139" height="11.458" transform="translate(11.074 0) rotate(75.116)" fill="none" stroke="#0d1435" stroke-linecap="round" stroke-linejoin="round" stroke-width="1"/>
            </g>
            <path id="Path_11012" data-name="Path 11012" d="M279.1,213.653s10.984-3.7,13.937-4.234,11.594-.3,11.594-.3v13.45s-9.021,2.737-10.413,3.832S280.16,228.4,280.16,228.4Z" transform="translate(-279.097 -144.014)" fill="#999" stroke="#0d1435" stroke-linecap="round" stroke-linejoin="round" stroke-width="1"/>
            <path id="Path_11013" data-name="Path 11013" d="M309.825,222.878c-.579,3.114-.163,7.288-2.224,9.815" transform="translate(-294.836 -151.637)" fill="none" stroke="#0d1435" stroke-linecap="round" stroke-linejoin="round" stroke-width="1"/>
            <path id="Path_11014" data-name="Path 11014" d="M313.918,212.353q-.335,1.524-.638,3.056" transform="translate(-297.971 -145.826)" fill="none" stroke="#0d1435" stroke-linecap="round" stroke-linejoin="round" stroke-width="1"/>
            <g id="Group_5950" data-name="Group 5950" transform="translate(21.958 19.442)">
              <path id="Path_11015" data-name="Path 11015" d="M333.049,109.678a2.461,2.461,0,1,1-2.461-2.461A2.461,2.461,0,0,1,333.049,109.678Z" transform="translate(-328.128 -107.217)" fill="silver" stroke="#0d1435" stroke-linecap="round" stroke-linejoin="round" stroke-width="1"/>
              <path id="Path_11016" data-name="Path 11016" d="M332.459,111.706a2.058,2.058,0,1,0-2.907-.159A2.059,2.059,0,0,0,332.459,111.706Zm-2.211-2.252-.108-.121.213-.191.108.121a.486.486,0,0,1,.648.155l.1.114-.247.221-.117-.13c-.106-.119-.2-.114-.279-.04s-.1.164.009.283.23.161.529.142a.783.783,0,0,1,.727.233.486.486,0,0,1,.088.652l.111.124-.213.191-.111-.123a.484.484,0,0,1-.644-.155l-.047-.052.246-.221.062.069c.106.119.194.121.277.047s.09-.162-.017-.281-.228-.159-.529-.142a.787.787,0,0,1-.727-.233A.489.489,0,0,1,330.247,109.455Z" transform="translate(-328.624 -107.713)" fill="rgba(0,0,0,0.7)" opacity="0.5"/>
            </g>
            <g id="Group_5951" data-name="Group 5951" transform="translate(10.305)">
              <path id="Path_11017" data-name="Path 11017" d="M307.028,66.264a2.46,2.46,0,1,1-2.46-2.46A2.461,2.461,0,0,1,307.028,66.264Z" transform="translate(-302.107 -63.804)" fill="silver" stroke="#0d1435" stroke-linecap="round" stroke-linejoin="round" stroke-width="1"/>
              <path id="Path_11018" data-name="Path 11018" d="M306.437,68.292a2.058,2.058,0,1,0-2.907-.158A2.059,2.059,0,0,0,306.437,68.292Zm-2.211-2.252-.108-.121.214-.191.108.121a.486.486,0,0,1,.648.155l.1.114-.246.221-.117-.131c-.107-.118-.2-.114-.28-.04s-.1.164.009.283.23.161.529.142a.783.783,0,0,1,.727.233.487.487,0,0,1,.088.653l.111.123-.213.191-.111-.123a.484.484,0,0,1-.644-.155L305,67.463l.246-.221.062.069c.107.119.194.121.277.047s.09-.162-.016-.28-.228-.159-.529-.142a.785.785,0,0,1-.727-.234A.489.489,0,0,1,304.225,66.041Z" transform="translate(-302.602 -64.299)" fill="rgba(0,0,0,0.7)" opacity="0.5"/>
            </g>
            <g id="Group_5952" data-name="Group 5952" transform="translate(1.929 45.152)">
              <path id="Path_11019" data-name="Path 11019" d="M285.279,169.474a2.461,2.461,0,1,1,2.977-1.8A2.46,2.46,0,0,1,285.279,169.474Z" transform="translate(-283.405 -164.623)" fill="silver" stroke="#0d1435" stroke-linecap="round" stroke-linejoin="round" stroke-width="1"/>
              <path id="Path_11020" data-name="Path 11020" d="M284.546,168.549a2.059,2.059,0,1,0,.847-2.785A2.058,2.058,0,0,0,284.546,168.549Zm2.714-1.61.143-.077.135.253-.143.077a.486.486,0,0,1-.3.592l-.135.072-.156-.292.154-.082c.141-.075.158-.164.106-.262s-.136-.133-.277-.058-.212.185-.264.48a.783.783,0,0,1-.4.651.486.486,0,0,1-.654-.07l-.146.078-.135-.253.146-.078a.484.484,0,0,1,.3-.588l.062-.033.156.292-.081.043c-.141.075-.164.159-.112.258s.136.126.276.051.209-.184.264-.48a.786.786,0,0,1,.4-.65A.489.489,0,0,1,287.26,166.938Z" transform="translate(-283.901 -165.119)" fill="rgba(0,0,0,0.7)" opacity="0.5"/>
            </g>
          </g>
          <g id="Group_5955" data-name="Group 5955" transform="translate(26.216 71.331)">
            <path id="Path_11021" data-name="Path 11021" d="M344.723,223.618c-.627-1.136-2.418-.588-4.508,2.7s-2.944,7.114-2.439,8.509,7.265,3.085,7.265,3.085l1.393-3.533Z" transform="translate(-337.635 -223.078)" fill="#fabb27"/>
            <g id="Group_5954" data-name="Group 5954" clip-path="url(#clip-path-6)">
              <path id="Path_11022" data-name="Path 11022" d="M344.723,223.618c-.627-1.136-2.418-.588-4.508,2.7s-2.944,7.114-2.439,8.509,7.265,3.085,7.265,3.085l1.393-3.533Z" transform="translate(-337.635 -223.078)" fill="rgba(0,0,0,0.7)" opacity="0.5"/>
            </g>
            <path id="Path_11024" data-name="Path 11024" d="M344.723,223.618c-.627-1.136-2.418-.588-4.508,2.7s-2.944,7.114-2.439,8.509,7.265,3.085,7.265,3.085l1.393-3.533Z" transform="translate(-337.635 -223.078)" fill="none" stroke="#0d1435" stroke-linecap="round" stroke-linejoin="round" stroke-width="1"/>
          </g>
          <g id="Group_5956" data-name="Group 5956" transform="translate(10.325 62.815)">
            <path id="Path_11025" data-name="Path 11025" d="M327.99,219.994l-3.877-8.485a38.168,38.168,0,0,1-3.024-4.994c-.5-1.379-6.055-2.451-7.311-2.451s-2.582,2.242-2.582,2.242l2.611,0a5.191,5.191,0,0,1,1.1,1.636c.123.613-3.452,3.659-3.962,3.949a18.875,18.875,0,0,0-3.278,1.79c-1.42,1.052-4.62,1.872-5.216,2.815s-.175,1.121.253,1.339a3.706,3.706,0,0,0,1.143.268,3.308,3.308,0,0,0,0,1.634c.255.562,1.743.511,1.743.511a1.016,1.016,0,0,0,.8.9,6.964,6.964,0,0,1,1.279.339,17.394,17.394,0,0,0,4.452.228c1.379-.292,5.562-2.52,6.585-2.428s3.851,6.656,3.851,6.656A6.845,6.845,0,0,0,327.99,219.994Z" transform="translate(-302.151 -204.064)" fill="#fff" stroke="#0d1435" stroke-linecap="round" stroke-linejoin="round" stroke-width="1"/>
            <path id="Path_11026" data-name="Path 11026" d="M305.927,232.516a29.087,29.087,0,0,0,4.279-1.174,18.779,18.779,0,0,1,3.074-1.179" transform="translate(-304.236 -218.475)" fill="none" stroke="#0d1435" stroke-linecap="round" stroke-linejoin="round" stroke-width="1"/>
            <path id="Path_11027" data-name="Path 11027" d="M309.819,237.563s2.254-.459,3.038-.562a31.361,31.361,0,0,0,4-1.583" transform="translate(-306.385 -221.376)" fill="none" stroke="#0d1435" stroke-linecap="round" stroke-linejoin="round" stroke-width="1"/>
            <path id="Path_11028" data-name="Path 11028" d="M314.456,241.131a24.147,24.147,0,0,0,3.839-.576c.664-.306,2.6-.919,2.6-.919" transform="translate(-308.945 -223.705)" fill="none" stroke="#0d1435" stroke-linecap="round" stroke-linejoin="round" stroke-width="1"/>
          </g>
          <path id="Path_11029" data-name="Path 11029" d="M374.348,227.419c-4.712,3.105-7.558,10.606-7.558,10.606l-7.355,13.681s-6.185-15.228-7.937-15.423l-6.6-12s.781,7.033-1.971,10.019-4.976,1.185-4.976,1.185l2.054,5.673.511,2.7s8.676,26.028,11.512,27.64,9.29,2.334,14.761-1.673,14.833-19.159,15.719-24.116" transform="translate(-311.593 -152.413)" fill="#fabb27" stroke="#0d1435" stroke-linecap="round" stroke-linejoin="round" stroke-width="1"/>
          <path id="Path_11030" data-name="Path 11030" d="M362.27,253.74c.238-.357.458-.726.659-1.1" transform="translate(-325.021 -168.068)" fill="none" stroke="#0d1435" stroke-linecap="round" stroke-linejoin="round" stroke-width="1"/>
          <path id="Path_11031" data-name="Path 11031" d="M349.856,259.8a7.48,7.48,0,0,0,4.866-2.633" transform="translate(-318.167 -170.568)" fill="none" stroke="#0d1435" stroke-linecap="round" stroke-linejoin="round" stroke-width="1"/>
          <path id="Path_11032" data-name="Path 11032" d="M342.538,261.969a6.633,6.633,0,0,0,2.311.514" transform="translate(-314.126 -173.221)" fill="none" stroke="#0d1435" stroke-linecap="round" stroke-linejoin="round" stroke-width="1"/>
          <path id="Path_11033" data-name="Path 11033" d="M390.046,298.987a6.8,6.8,0,0,1-.15,1.866" transform="translate(-340.274 -193.661)" fill="none" stroke="#0d1435" stroke-linecap="round" stroke-linejoin="round" stroke-width="1"/>
          <path id="Path_11034" data-name="Path 11034" d="M385.923,285.517a15.11,15.11,0,0,1,1.8,4.9" transform="translate(-338.081 -186.223)" fill="none" stroke="#0d1435" stroke-linecap="round" stroke-linejoin="round" stroke-width="1"/>
          <path id="Path_11035" data-name="Path 11035" d="M391.477,287.967a10.541,10.541,0,0,0-2.862-2.45" transform="translate(-339.568 -186.223)" fill="none" stroke="#0d1435" stroke-linecap="round" stroke-linejoin="round" stroke-width="1"/>
          <path id="Path_11036" data-name="Path 11036" d="M411.817,246.616a8.909,8.909,0,0,0-7.422,3.232" transform="translate(-348.281 -164.728)" fill="none" stroke="#0d1435" stroke-linecap="round" stroke-linejoin="round" stroke-width="1"/>
          <path id="Path_11037" data-name="Path 11037" d="M427.88,272.03a3.888,3.888,0,0,1-2.319-.376" transform="translate(-359.967 -178.569)" fill="none" stroke="#0d1435" stroke-linecap="round" stroke-linejoin="round" stroke-width="1"/>
          <path id="Path_11038" data-name="Path 11038" d="M436.988,260.1c-.651,3.141-2.4,4.735-3.932,5.288" transform="translate(-364.106 -172.191)" fill="none" stroke="#0d1435" stroke-linecap="round" stroke-linejoin="round" stroke-width="1"/>
        </g>
        <path id="Path_11039" data-name="Path 11039" d="M385.083,219.055s-6.87,1.6-10.7-.963" transform="translate(-331.711 -138.694)" fill="none" stroke="#0d1435" stroke-linecap="round" stroke-linejoin="round" stroke-width="1"/>
        <path id="Path_11040" data-name="Path 11040" d="M343.26,314.109s3.743,10.569,12.4,12.361" transform="translate(-314.525 -191.71)" fill="none" stroke="#0d1435" stroke-linecap="round" stroke-linejoin="round" stroke-width="1"/>
        <path id="Path_11041" data-name="Path 11041" d="M397.423,346.82c-.446.336-.912.644-1.387.936" transform="translate(-343.665 -209.772)" fill="none" stroke="#0d1435" stroke-linecap="round" stroke-linejoin="round" stroke-width="1"/>
        <g id="Group_5961" data-name="Group 5961" transform="translate(4.232)">
          <g id="Group_5958" data-name="Group 5958">
            <line id="Line_154" data-name="Line 154" y2="9.292" transform="translate(1.755 9.048)" fill="none" stroke="#0d1435" stroke-linecap="round" stroke-linejoin="round" stroke-width="1"/>
            <line id="Line_155" data-name="Line 155" y2="3.717" transform="translate(1.755 3.473)" fill="none" stroke="#0d1435" stroke-linecap="round" stroke-linejoin="round" stroke-width="1"/>
            <line id="Line_156" data-name="Line 156" y2="1.988" transform="translate(1.755)" fill="none" stroke="#0d1435" stroke-linecap="round" stroke-linejoin="round" stroke-width="1"/>
            <path id="Path_11042" data-name="Path 11042" d="M288.547,79.33,290.3,81.5l1.755-2.172" transform="translate(-288.547 -62.077)" fill="none" stroke="#0d1435" stroke-linecap="round" stroke-linejoin="round" stroke-width="1"/>
          </g>
          <g id="Group_5959" data-name="Group 5959" transform="translate(4.645 46.527)">
            <line id="Line_157" data-name="Line 157" y2="9.292" transform="translate(1.755 9.048)" fill="none" stroke="#0d1435" stroke-linecap="round" stroke-linejoin="round" stroke-width="1"/>
            <line id="Line_158" data-name="Line 158" y2="3.717" transform="translate(1.755 3.473)" fill="none" stroke="#0d1435" stroke-linecap="round" stroke-linejoin="round" stroke-width="1"/>
            <line id="Line_159" data-name="Line 159" y2="1.988" transform="translate(1.755)" fill="none" stroke="#0d1435" stroke-linecap="round" stroke-linejoin="round" stroke-width="1"/>
            <path id="Path_11043" data-name="Path 11043" d="M298.919,183.219l1.755,2.172,1.755-2.172" transform="translate(-298.919 -165.966)" fill="none" stroke="#0d1435" stroke-linecap="round" stroke-linejoin="round" stroke-width="1"/>
          </g>
          <g id="Group_5960" data-name="Group 5960" transform="translate(13.823 18.563)">
            <line id="Line_160" data-name="Line 160" y2="9.292" transform="translate(1.755 9.048)" fill="none" stroke="#0d1435" stroke-linecap="round" stroke-linejoin="round" stroke-width="1"/>
            <line id="Line_161" data-name="Line 161" y2="3.717" transform="translate(1.755 3.473)" fill="none" stroke="#0d1435" stroke-linecap="round" stroke-linejoin="round" stroke-width="1"/>
            <line id="Line_162" data-name="Line 162" y2="1.988" transform="translate(1.755)" fill="none" stroke="#0d1435" stroke-linecap="round" stroke-linejoin="round" stroke-width="1"/>
            <path id="Path_11044" data-name="Path 11044" d="M319.413,120.781l1.755,2.172,1.755-2.172" transform="translate(-319.413 -103.527)" fill="none" stroke="#0d1435" stroke-linecap="round" stroke-linejoin="round" stroke-width="1"/>
          </g>
        </g>
      </g>
    </g>
    <g id="Hand" transform="translate(49.032 79.267)">
      <g id="Group_5981" data-name="Group 5981" transform="translate(0 0)">
        <g id="Group_5964" data-name="Group 5964" transform="translate(32.312 59.109)">
          <path id="Path_11045" data-name="Path 11045" d="M135.11,291.072c-.146,5.833,2.741,5.362,2.741,5.362a11.927,11.927,0,0,1,1.088-1.916c1.511-2.325,3.825-5.584,2.956-7.515a28.3,28.3,0,0,0-1.931-3.329c-1.547-2.372-3.325-4.771-3.325-4.771l7.708-1.277a37.53,37.53,0,0,0,9.822,2.533c.113.007.226.011.336.011,3.956.077,3.318-3.026,3.318-4.026,0-.427-1.069-1.208-2.321-1.978-1.785-1.1-3.95-2.172-3.95-2.172l1.172-2.427a7.052,7.052,0,0,0,2.048.109c3-.328,2.588-3.281,2.1-4.57a5.278,5.278,0,0,0-1.8-1.569,100.953,100.953,0,0,0-8.99-4.865H137.42L128.9,281.937S135.252,285.24,135.11,291.072Z" transform="translate(-128.897 -258.672)" fill="#fff"/>
          <path id="Path_11046" data-name="Path 11046" d="M135.11,291.072c-.146,5.833,2.741,5.362,2.741,5.362a11.927,11.927,0,0,1,1.088-1.916c1.511-2.325,3.825-5.584,2.956-7.515a28.3,28.3,0,0,0-1.931-3.329c-1.547-2.372-3.325-4.771-3.325-4.771l7.708-1.277a37.53,37.53,0,0,0,9.822,2.533c.113.007.226.011.336.011,3.956.077,3.318-3.026,3.318-4.026,0-.427-1.069-1.208-2.321-1.978-1.785-1.1-3.95-2.172-3.95-2.172l1.172-2.427a7.052,7.052,0,0,0,2.048.109c3-.328,2.588-3.281,2.1-4.57a5.278,5.278,0,0,0-1.8-1.569,100.953,100.953,0,0,0-8.99-4.865H137.42L128.9,281.937S135.252,285.24,135.11,291.072Z" transform="translate(-128.897 -258.672)" fill="#fabb27" opacity="0.4"/>
          <path id="Path_11047" data-name="Path 11047" d="M135.11,291.072c-.146,5.833,2.741,5.362,2.741,5.362a11.927,11.927,0,0,1,1.088-1.916,8.381,8.381,0,0,1-.157-1.7c.036-2,1.675-5.818,1.675-5.818l-1.675-2.65a3.427,3.427,0,0,1,1.182-.679c-1.547-2.372-3.325-4.771-3.325-4.771l7.708-1.277a37.53,37.53,0,0,0,9.822,2.533c.113.007.226.011.336.011a15.182,15.182,0,0,1,1-6c-1.785-1.1-3.95-2.172-3.95-2.172l1.172-2.427a7.052,7.052,0,0,0,2.048.109,17.507,17.507,0,0,1,.3-6.139,100.953,100.953,0,0,0-8.99-4.865H137.42L128.9,281.937S135.252,285.24,135.11,291.072Z" transform="translate(-128.897 -258.672)" fill="#fabb27" opacity="0.4"/>
          <g id="Group_5963" data-name="Group 5963" transform="translate(0.002)">
            <path id="Path_11048" data-name="Path 11048" d="M137.42,258.671h8.664s10.215,4.9,10.792,6.434,1.048,5.4-4.15,4.463l-1.171,2.426s6.27,3.117,6.27,4.149.677,4.276-3.655,4.015a37.4,37.4,0,0,1-9.819-2.533l-7.709,1.277s4.1,5.53,5.255,8.1-3.321,7.49-4.043,9.434c0,0-2.888.468-2.744-5.364s-6.209-9.136-6.209-9.136" transform="translate(-128.901 -258.671)" fill="none" stroke="#0d1435" stroke-linecap="round" stroke-linejoin="round" stroke-width="1"/>
            <path id="Path_11049" data-name="Path 11049" d="M148.375,319.2a2.377,2.377,0,0,0-3.353,1.04" transform="translate(-137.802 -291.914)" fill="none" stroke="#0d1435" stroke-linecap="round" stroke-linejoin="round" stroke-width="1"/>
          </g>
        </g>
        <g id="Group_5976" data-name="Group 5976" transform="translate(22.351)">
          <rect id="Rectangle_3634" data-name="Rectangle 3634" width="51.22" height="88.769" rx="3" fill="#fabb27" stroke="#0d1435" stroke-linecap="round" stroke-linejoin="round" stroke-width="1"/>
          <path id="Path_11050" data-name="Path 11050" d="M158.243,132.446v81.8a1.851,1.851,0,0,1-1.851,1.851H112.05a1.851,1.851,0,0,1-1.851-1.851v-81.8a1.851,1.851,0,0,1,1.851-1.851H121.9a1.553,1.553,0,0,1,1.456,1.011l.419,1.125a1.553,1.553,0,0,0,1.455,1.011h17.979a1.553,1.553,0,0,0,1.455-1.011l.419-1.125a1.553,1.553,0,0,1,1.456-1.011h9.853A1.851,1.851,0,0,1,158.243,132.446Z" transform="translate(-108.611 -128.844)" fill="#0d1435"/>
          <path id="Path_11051" data-name="Path 11051" d="M156.9,265.536H143.906a4.4,4.4,0,0,1-4.4-4.4h0a4.4,4.4,0,0,1,4.4-4.4H156.9a4.4,4.4,0,0,1,4.4,4.4h0A4.4,4.4,0,0,1,156.9,265.536Z" transform="translate(-124.791 -198.489)" fill="#fabb27" stroke="#0d1435" stroke-linecap="round" stroke-linejoin="round" stroke-width="1"/>
          <g id="Group_5965" data-name="Group 5965" transform="translate(19.838 1.907)">
            <path id="Path_11052" data-name="Path 11052" d="M152.48,131.71a.766.766,0,1,1-.766-.765A.766.766,0,0,1,152.48,131.71Z" transform="translate(-150.949 -130.945)" fill="#fff" stroke="#0d1435" stroke-linecap="round" stroke-linejoin="round" stroke-width="1"/>
            <path id="Path_11053" data-name="Path 11053" d="M175.544,132.062a.48.48,0,1,1-.48-.48A.48.48,0,0,1,175.544,132.062Z" transform="translate(-163.999 -131.297)" fill="#fff" stroke="#0d1435" stroke-linecap="round" stroke-linejoin="round" stroke-width="1"/>
            <path id="Path_11054" data-name="Path 11054" d="M163.231,132.59h-5.74a.271.271,0,0,1-.271-.271h0a.271.271,0,0,1,.271-.271h5.74a.271.271,0,0,1,.27.271h0A.27.27,0,0,1,163.231,132.59Z" transform="translate(-154.412 -131.555)" fill="#fff" stroke="#0d1435" stroke-linecap="round" stroke-linejoin="round" stroke-width="1"/>
          </g>
          <rect id="Rectangle_3635" data-name="Rectangle 3635" width="43.302" height="44.197" rx="12.487" transform="translate(3.959 9.542)" fill="#fff" stroke="#0d1435" stroke-linecap="round" stroke-linejoin="round" stroke-width="1"/>
          <g id="Group_5971" data-name="Group 5971" transform="translate(17.26 13.898)">
            <g id="Group_5969" data-name="Group 5969" transform="translate(2.726)">
              <g id="Group_5966" data-name="Group 5966" transform="translate(0 6.924)">
                <line id="Line_163" data-name="Line 163" y1="6.643" transform="translate(1.255 0.776)" fill="none" stroke="#0d1435" stroke-linecap="round" stroke-linejoin="round" stroke-width="1"/>
                <line id="Line_164" data-name="Line 164" y1="2.657" transform="translate(1.255 8.748)" fill="none" stroke="#0d1435" stroke-linecap="round" stroke-linejoin="round" stroke-width="1"/>
                <line id="Line_165" data-name="Line 165" y1="1.421" transform="translate(1.255 12.467)" fill="none" stroke="#0d1435" stroke-linecap="round" stroke-linejoin="round" stroke-width="1"/>
                <path id="Path_11055" data-name="Path 11055" d="M153.789,174.734l-1.255-1.553-1.255,1.553" transform="translate(-151.28 -173.181)" fill="none" stroke="#0d1435" stroke-linecap="round" stroke-linejoin="round" stroke-width="1"/>
              </g>
              <g id="Group_5967" data-name="Group 5967" transform="translate(8.739 4.461)">
                <line id="Line_166" data-name="Line 166" y1="6.643" transform="translate(1.255 0.776)" fill="none" stroke="#0d1435" stroke-linecap="round" stroke-linejoin="round" stroke-width="1"/>
                <line id="Line_167" data-name="Line 167" y1="2.657" transform="translate(1.255 8.748)" fill="none" stroke="#0d1435" stroke-linecap="round" stroke-linejoin="round" stroke-width="1"/>
                <line id="Line_168" data-name="Line 168" y1="1.421" transform="translate(1.255 12.467)" fill="none" stroke="#0d1435" stroke-linecap="round" stroke-linejoin="round" stroke-width="1"/>
                <path id="Path_11056" data-name="Path 11056" d="M173.3,169.233l-1.255-1.553-1.255,1.553" transform="translate(-170.794 -167.681)" fill="none" stroke="#0d1435" stroke-linecap="round" stroke-linejoin="round" stroke-width="1"/>
              </g>
              <g id="Group_5968" data-name="Group 5968" transform="translate(4.17)">
                <line id="Line_169" data-name="Line 169" y1="6.643" transform="translate(1.255 0.776)" fill="none" stroke="#0d1435" stroke-linecap="round" stroke-linejoin="round" stroke-width="1"/>
                <line id="Line_170" data-name="Line 170" y1="2.657" transform="translate(1.255 8.748)" fill="none" stroke="#0d1435" stroke-linecap="round" stroke-linejoin="round" stroke-width="1"/>
                <line id="Line_171" data-name="Line 171" y1="1.421" transform="translate(1.255 12.467)" fill="none" stroke="#0d1435" stroke-linecap="round" stroke-linejoin="round" stroke-width="1"/>
                <path id="Path_11057" data-name="Path 11057" d="M163.1,159.272l-1.255-1.553-1.255,1.553" transform="translate(-160.592 -157.72)" fill="none" stroke="#0d1435" stroke-linecap="round" stroke-linejoin="round" stroke-width="1"/>
              </g>
            </g>
            <circle id="Ellipse_568" data-name="Ellipse 568" cx="6.948" cy="6.948" r="6.948" transform="matrix(0.228, -0.974, 0.974, 0.228, 0, 21.924)" fill="#fabb27" stroke="#0d1435" stroke-linecap="round" stroke-linejoin="round" stroke-width="1"/>
            <g id="Group_5970" data-name="Group 5970" transform="translate(6.587 12.496)">
              <path id="Path_11058" data-name="Path 11058" d="M161.18,186.18v-.559h.967v.559a1.631,1.631,0,0,1,1.268,1.838v.236H162.3v-.312c0-.537-.215-.742-.591-.742s-.592.2-.592.742.215.914,1.011,1.548a2.653,2.653,0,0,1,1.3,2.225,1.651,1.651,0,0,1-1.279,1.849v.548h-.967v-.548a1.642,1.642,0,0,1-1.279-1.849V191.2h1.118v.591c0,.537.236.731.613.731s.613-.193.613-.731-.215-.925-1.01-1.548a2.64,2.64,0,0,1-1.3-2.225A1.64,1.64,0,0,1,161.18,186.18Z" transform="translate(-159.901 -185.621)" fill="#0d1435"/>
            </g>
          </g>
          <g id="Group_5972" data-name="Group 5972" transform="translate(19.71 41.65)">
            <path id="Path_11059" data-name="Path 11059" d="M151.15,219.9v-.212h.367v.212a.619.619,0,0,1,.481.7v.09h-.424v-.118c0-.2-.082-.282-.224-.282s-.225.077-.225.282.082.347.384.587A1.008,1.008,0,0,1,152,222a.626.626,0,0,1-.485.7v.208h-.367V222.7a.623.623,0,0,1-.485-.7v-.2h.425v.224c0,.2.09.277.232.277s.232-.073.232-.277-.081-.351-.383-.588a1,1,0,0,1-.494-.845A.623.623,0,0,1,151.15,219.9Z" transform="translate(-150.665 -219.686)" fill="#0d1435"/>
            <path id="Path_11060" data-name="Path 11060" d="M154.949,220.455a.444.444,0,0,0,.494-.359h.3v2.856H155.3v-2.179h-.347Z" transform="translate(-153.03 -219.912)" fill="#0d1435"/>
            <path id="Path_11061" data-name="Path 11061" d="M157.858,220.741a.682.682,0,1,1,1.363,0v1.485a.682.682,0,1,1-1.363,0Zm.449,1.513c0,.2.09.282.232.282s.232-.078.232-.282v-1.542c0-.2-.09-.282-.232-.282s-.232.077-.232.282Z" transform="translate(-154.637 -219.872)" fill="#0d1435"/>
            <path id="Path_11062" data-name="Path 11062" d="M161.468,220.741a.682.682,0,1,1,1.363,0v1.485a.682.682,0,1,1-1.363,0Zm.449,1.513c0,.2.09.282.232.282s.232-.078.232-.282v-1.542c0-.2-.09-.282-.232-.282s-.232.077-.232.282Z" transform="translate(-156.63 -219.872)" fill="#0d1435"/>
            <path id="Path_11063" data-name="Path 11063" d="M165.078,220.741a.682.682,0,1,1,1.363,0v1.485a.682.682,0,1,1-1.363,0Zm.449,1.513c0,.2.09.282.232.282s.232-.078.232-.282v-1.542c0-.2-.09-.282-.232-.282s-.232.077-.232.282Z" transform="translate(-158.623 -219.872)" fill="#0d1435"/>
            <path id="Path_11064" data-name="Path 11064" d="M169.2,225.507v.433h-.433v-.433Z" transform="translate(-160.662 -222.9)" fill="#0d1435"/>
            <path id="Path_11065" data-name="Path 11065" d="M170.383,220.741a.682.682,0,1,1,1.363,0v1.485a.682.682,0,1,1-1.363,0Zm.449,1.513c0,.2.09.282.232.282s.232-.078.232-.282v-1.542c0-.2-.09-.282-.232-.282s-.232.077-.232.282Z" transform="translate(-161.552 -219.872)" fill="#0d1435"/>
            <path id="Path_11066" data-name="Path 11066" d="M173.994,220.741a.682.682,0,1,1,1.363,0v1.485a.682.682,0,1,1-1.363,0Zm.449,1.513c0,.2.09.282.232.282s.232-.078.232-.282v-1.542c0-.2-.09-.282-.232-.282s-.232.077-.232.282Z" transform="translate(-163.546 -219.872)" fill="#0d1435"/>
          </g>
          <g id="Group_5973" data-name="Group 5973" transform="translate(17.726 47.299)">
            <path id="Path_11067" data-name="Path 11067" d="M146.234,232.373h.449v2.856h-.449Z" transform="translate(-146.234 -232.34)" fill="#0d1435"/>
            <path id="Path_11068" data-name="Path 11068" d="M147.966,232.373h.71c.449,0,.669.249.669.706v1.444c0,.457-.22.706-.669.706h-.71Zm.449.408v2.04h.253c.143,0,.228-.073.228-.277v-1.485c0-.2-.086-.278-.228-.278Z" transform="translate(-147.19 -232.34)" fill="#0d1435"/>
            <path id="Path_11069" data-name="Path 11069" d="M152.027,237.784v.433h-.433v-.433Z" transform="translate(-149.194 -235.328)" fill="#0d1435"/>
            <path id="Path_11070" data-name="Path 11070" d="M153.947,232.708c-.143,0-.232.077-.232.282v.306h-.424v-.277c0-.457.228-.718.669-.718s.669.261.669.718a1.567,1.567,0,0,1-.554,1.13c-.265.286-.339.42-.339.571a.351.351,0,0,0,0,.061h.849v.408h-1.3v-.351a1.237,1.237,0,0,1,.448-.91,1.2,1.2,0,0,0,.441-.893C154.179,232.777,154.089,232.708,153.947,232.708Z" transform="translate(-150.13 -232.3)" fill="#0d1435"/>
            <path id="Path_11071" data-name="Path 11071" d="M157.519,232.732a.445.445,0,0,0,.494-.359h.3v2.856h-.449v-2.178h-.347Z" transform="translate(-152.465 -232.34)" fill="#0d1435"/>
            <path id="Path_11072" data-name="Path 11072" d="M161.084,235.221a.643.643,0,0,1-.7-.718v-.224a.62.62,0,0,1,.278-.592v-.008a.585.585,0,0,1-.278-.571v-.09a.7.7,0,1,1,1.4,0v.09a.592.592,0,0,1-.278.571v.008a.62.62,0,0,1,.278.592v.224A.643.643,0,0,1,161.084,235.221Zm-.253-2.028c0,.229.106.3.253.3s.253-.073.253-.3v-.159c0-.257-.11-.326-.253-.326s-.253.069-.253.326Zm.253,1.62c.143,0,.249-.069.253-.322v-.265c0-.224-.094-.322-.253-.322s-.253.1-.253.322v.265C160.831,234.744,160.941,234.813,161.084,234.813Z" transform="translate(-154.046 -232.3)" fill="#0d1435"/>
            <path id="Path_11073" data-name="Path 11073" d="M164.74,232.732a.445.445,0,0,0,.494-.359h.3v2.856h-.449v-2.178h-.347Z" transform="translate(-156.452 -232.34)" fill="#0d1435"/>
            <path id="Path_11074" data-name="Path 11074" d="M168.992,234.479c0,.481-.22.743-.685.743-.441,0-.669-.261-.669-.718v-.073h.425v.1c0,.2.09.282.232.282.159,0,.249-.077.249-.351v-.518h-.008a.413.413,0,0,1-.408.249c-.331,0-.5-.232-.5-.653v-.522a.682.682,0,1,1,1.362,0Zm-.449-.975v-.514c0-.2-.09-.277-.232-.277s-.232.073-.232.277v.514c0,.2.09.281.232.281S168.544,233.708,168.544,233.5Z" transform="translate(-158.048 -232.3)" fill="#0d1435"/>
            <path id="Path_11075" data-name="Path 11075" d="M171.719,234.307v.265c0,.2.09.278.232.278s.232-.073.232-.278v-.628c0-.2-.09-.281-.232-.281s-.232.077-.232.281v.086h-.425l.082-1.657h1.183v.408h-.783l-.037.682h.009a.421.421,0,0,1,.387-.208c.331,0,.5.232.5.653v.637c0,.457-.228.718-.669.718s-.67-.261-.67-.718v-.237Z" transform="translate(-160.071 -232.34)" fill="#0d1435"/>
            <path id="Path_11076" data-name="Path 11076" d="M174.887,233.043c0-.481.22-.743.685-.743.441,0,.669.261.669.718v.073h-.425v-.1c0-.2-.09-.282-.232-.282-.159,0-.249.077-.249.351v.518h.008a.413.413,0,0,1,.408-.249c.331,0,.5.232.5.653v.522a.682.682,0,1,1-1.362,0Zm.449.975v.514c0,.2.09.278.232.278s.232-.073.232-.278v-.514c0-.2-.09-.282-.232-.282S175.336,233.814,175.336,234.018Z" transform="translate(-162.055 -232.3)" fill="#0d1435"/>
            <path id="Path_11077" data-name="Path 11077" d="M179.843,232.373v.392l-.661,2.464h-.449l.657-2.448H178.5v-.408Z" transform="translate(-164.048 -232.34)" fill="#0d1435"/>
          </g>
          <g id="Group_5974" data-name="Group 5974" transform="translate(25.041 45.393)">
            <path id="Path_11078" data-name="Path 11078" d="M162.568,228.072h.525v.155h-.177v.927h-.17v-.927h-.178Z" transform="translate(-162.568 -228.06)" fill="#0d1435"/>
            <path id="Path_11079" data-name="Path 11079" d="M163.876,228.317a.258.258,0,1,1,.516,0v.562a.258.258,0,1,1-.516,0Zm.17.573c0,.077.034.107.088.107s.088-.029.088-.107v-.584c0-.077-.034-.106-.088-.106s-.088.029-.088.106Z" transform="translate(-163.29 -228.045)" fill="#0d1435"/>
          </g>
        </g>
        <path id="Path_11084" data-name="Path 11084" d="M97.949,242.568a6.678,6.678,0,0,1,3.9,3.4" transform="translate(-79.497 -190.67)" fill="none" stroke="#0d1435" stroke-linecap="round" stroke-linejoin="round" stroke-width="1"/>
        <g id="Group_5979" data-name="Group 5979" transform="translate(5.366 48.616)">
          <path id="Path_11085" data-name="Path 11085" d="M68.729,318.076c.322-5.58.534-11.279.812-15.869.578-9.515,1.011-15.9,1.877-22.4s.722-16.312,1.155-19.741,1.724-4.153,2.744-8.226,1.936-12.181,3.61-13.322a61.03,61.03,0,0,1,6.786-3.281v22.971c3.032,4.662,6.642,5.815,6.642,5.815,2.31-6.687,2.022-9.341,4.332-11.8s3.975-5.663,7.6-4.323c1.727.638,2.65,1.291,1.783,7.146s-2.6,7.7-2.6,7.7a42.014,42.014,0,0,0,.866,10.8c.722,2.976-2.022,10.885-3.321,15.939s-8.23,15.295-8.23,15.295a88.572,88.572,0,0,0,.288,11.563c.053.544.12,1.125.2,1.733l.458,15.726-25-.472Z" transform="translate(-68.729 -235.242)" fill="#fff"/>
          <g id="Group_5977" data-name="Group 5977" transform="translate(0.177)">
            <path id="Path_11086" data-name="Path 11086" d="M139.313,264.861a1.4,1.4,0,0,1,0-1.04,3.647,3.647,0,0,0-1.271-.682c-3.628-1.343-5.292,1.869-7.6,4.322a7.106,7.106,0,0,0-.58.7c2.091-.789,4.833-.774,5.935.755C137.181,270.829,140.006,267.365,139.313,264.861Z" transform="translate(-102.659 -250.47)" fill="#fabb27" opacity="0.4"/>
            <path id="Path_11087" data-name="Path 11087" d="M114.571,343.878l-1.142,4.281a32.273,32.273,0,0,0,4.015-5.4c-.117-3.734.026-6.541.026-6.541s6.931-10.241,8.231-15.293,4.044-12.965,3.321-15.939a42.026,42.026,0,0,1-.865-10.8,6.059,6.059,0,0,0,.839-1.369,2.35,2.35,0,0,0-1.087-.643,23.884,23.884,0,0,0-1.405,10.169c.449,5.775-.54,6.256-2.453,13.764s-5.088,16.009-6.581,17.535S115.331,342.039,114.571,343.878Z" transform="translate(-93.588 -266.678)" fill="#fabb27" opacity="0.4"/>
            <path id="Path_11088" data-name="Path 11088" d="M99.435,261.856a12.763,12.763,0,0,0-3.194.894s4.446,1.161,4.734,2.4,1.241,2.522,2.931,1.011c0,0,.088-.945.263-2.318a14.962,14.962,0,0,1-6.176-5.628V235.241s-2.526,1.058-4.61,2.08c1.544.2,3.124.679,3.741,1.723a4.661,4.661,0,0,1-2.6,2.88c-1.642.737,0,13.133,0,13.133a5.387,5.387,0,0,0-3.559,3.157s4.427.452,6.256,1.858S99.435,261.856,99.435,261.856Z" transform="translate(-81.185 -235.241)" fill="#fabb27" opacity="0.4"/>
            <path id="Path_11089" data-name="Path 11089" d="M69.76,347.729c-.226,3.715-.4,8.161-.635,12.684.57-8.6,2.3-23.349,2.3-23.349s1.544,5.457,1.661,4.877c.343-1.708-.723-11.362-.628-14.8.044-1.559-.069-5.556-.208-9.454-.124,2.679-.3,5.365-.609,7.647C70.771,331.829,70.337,338.214,69.76,347.729Z" transform="translate(-69.125 -280.763)" fill="#fabb27" opacity="0.4"/>
          </g>
          <g id="Group_5978" data-name="Group 5978" transform="translate(0 0)">
            <path id="Path_11090" data-name="Path 11090" d="M68.729,334.393V318.076c.322-5.58.534-11.279.812-15.869.578-9.515,1.011-15.9,1.877-22.4s.722-16.312,1.155-19.741,1.724-4.153,2.744-8.226,1.936-12.181,3.61-13.322a61.03,61.03,0,0,1,6.786-3.281v22.971c3.032,4.662,6.642,5.815,6.642,5.815,2.31-6.687,2.022-9.341,4.332-11.8s3.975-5.663,7.6-4.323c1.727.638,2.65,1.291,1.783,7.146s-2.6,7.7-2.6,7.7a42.014,42.014,0,0,0,.866,10.8c.722,2.976-2.022,10.885-3.321,15.939s-8.23,15.295-8.23,15.295a88.572,88.572,0,0,0,.288,11.563c.053.544.12,1.125.2,1.733a137.218,137.218,0,0,0,1.34,16.317" transform="translate(-68.729 -235.242)" fill="none" stroke="#0d1435" stroke-linecap="round" stroke-linejoin="round" stroke-width="1"/>
            <path id="Path_11091" data-name="Path 11091" d="M114.473,299.518s-.722,3.221-2.166,3.943a5.347,5.347,0,0,1-3.521,0" transform="translate(-90.847 -270.732)" fill="none" stroke="#0d1435" stroke-linecap="round" stroke-linejoin="round" stroke-width="1"/>
            <path id="Path_11092" data-name="Path 11092" d="M99.177,284.608s-1.444-3.209-6.064-.426" transform="translate(-82.193 -261.637)" fill="none" stroke="#0d1435" stroke-linecap="round" stroke-linejoin="round" stroke-width="1"/>
            <path id="Path_11093" data-name="Path 11093" d="M103.36,254.944a2.976,2.976,0,0,0-2.671-2.135" transform="translate(-86.376 -244.942)" fill="none" stroke="#0d1435" stroke-linecap="round" stroke-linejoin="round" stroke-width="1"/>
            <path id="Path_11094" data-name="Path 11094" d="M117.282,390.515c-2.744,3.477-2.222,6.8-3.277,8.53s-.91,7.942-.91,7.942" transform="translate(-93.222 -320.976)" fill="none" stroke="#0d1435" stroke-linecap="round" stroke-linejoin="round" stroke-width="1"/>
            <path id="Path_11095" data-name="Path 11095" d="M77.959,316.013V328.1a59.913,59.913,0,0,0,1.011,10.319" transform="translate(-73.825 -279.84)" fill="none" stroke="#0d1435" stroke-linecap="round" stroke-linejoin="round" stroke-width="1"/>
            <path id="Path_11096" data-name="Path 11096" d="M145.6,293.362s0-2.063-.578-2.681" transform="translate(-110.854 -265.853)" fill="none" stroke="#0d1435" stroke-linecap="round" stroke-linejoin="round" stroke-width="1"/>
            <path id="Path_11097" data-name="Path 11097" d="M136.559,278.605s-1.279-4.306-5.033-2.429" transform="translate(-103.402 -257.582)" fill="none" stroke="#0d1435" stroke-linecap="round" stroke-linejoin="round" stroke-width="1"/>
            <path id="Path_11098" data-name="Path 11098" d="M107.963,296.624c-2.787.059-5.614-1.177-7.274.327" transform="translate(-86.376 -268.901)" fill="none" stroke="#0d1435" stroke-linecap="round" stroke-linejoin="round" stroke-width="1"/>
          </g>
        </g>
        <g id="Group_5980" data-name="Group 5980" transform="translate(0 125.061)">
          <path id="Rectangle_3636" data-name="Rectangle 3636" d="M0,0H0A1.639,1.639,0,0,1,1.639,1.639V15.488A1.639,1.639,0,0,1,0,17.126H0a0,0,0,0,1,0,0V0A0,0,0,0,1,0,0Z" transform="translate(4.208 0.856)" fill="#0d1435"/>
          <path id="Path_11099" data-name="Path 11099" d="M66.144,411.07s13.238-3.461,25.943.484a.969.969,0,0,1,.676.927v8.126a.486.486,0,0,1-.572.48c-2.727-.491-14.721-2.387-25.392.108Z" transform="translate(-61.936 -407.995)" fill="#0d1435"/>
          <path id="Path_11100" data-name="Path 11100" d="M61.531,408.857v-1.83a1.093,1.093,0,0,0-1.093-1.093H58.954a1.024,1.024,0,0,0-.9.533l-1.308,2.39v14l1.292,1.574a1.025,1.025,0,0,0,.792.375h1.607a1.093,1.093,0,0,0,1.093-1.093Z" transform="translate(-56.747 -405.934)" fill="#fabb27" stroke="#0d1435" stroke-linecap="round" stroke-linejoin="round" stroke-width="1"/>
          <path id="Path_11101" data-name="Path 11101" d="M64.633,409.741l3.022-.562a.583.583,0,0,1,.69.573V411.5l-1,.742v5.669h1v2.958a.72.72,0,0,1-.574.7l-2.87.594a.694.694,0,0,1-.834-.679V410.423A.694.694,0,0,1,64.633,409.741Z" transform="translate(-60.788 -407.721)" fill="#fabb27" stroke="#0d1435" stroke-linecap="round" stroke-linejoin="round" stroke-width="1"/>
          <path id="Path_11102" data-name="Path 11102" d="M65.582,433l2.462-.563a.4.4,0,0,0,.313-.394V430.2" transform="translate(-61.625 -419.331)" fill="none" stroke="#0d1435" stroke-linecap="round" stroke-linejoin="round" stroke-width="1"/>
          <path id="Path_11103" data-name="Path 11103" d="M69.539,418.672V412.6l.989-.753v-1.137" transform="translate(-63.81 -408.573)" fill="none" stroke="#0d1435" stroke-linecap="round" stroke-linejoin="round" stroke-width="1"/>
          <line id="Line_172" data-name="Line 172" y2="16.211" transform="translate(1.728 1.107)" fill="none" stroke="#0d1435" stroke-linecap="round" stroke-linejoin="round" stroke-width="1"/>
          <path id="Path_11104" data-name="Path 11104" d="M86.762,420.25h0a.443.443,0,0,1-.443-.443v-.968a.442.442,0,0,1,.443-.443h0a.443.443,0,0,1,.443.443v.968A.443.443,0,0,1,86.762,420.25Z" transform="translate(-73.075 -412.815)" fill="#fff"/>
          <path id="Path_11105" data-name="Path 11105" d="M101.992,420.652h0a.443.443,0,0,1-.443-.443v-.968a.443.443,0,0,1,.443-.443h0a.443.443,0,0,1,.443.443v.968A.442.442,0,0,1,101.992,420.652Z" transform="translate(-81.485 -413.037)" fill="#fff"/>
          <path id="Path_11106" data-name="Path 11106" d="M115.542,422.32h0a.443.443,0,0,1-.443-.443v-.968a.443.443,0,0,1,.443-.443h0a.443.443,0,0,1,.443.443v.968A.443.443,0,0,1,115.542,422.32Z" transform="translate(-88.966 -413.958)" fill="#fff"/>
        </g>
      </g>
    </g>
  </g>
</svg>
